<svg width="400" height="400" viewBox="0 0 400 400" fill="none" xmlns="http://www.w3.org/2000/svg">
<rect width="400" height="400" fill="#3A4651"/>
<path d="M17.536 272H27.872C33.006 272 36.406 269.484 36.406 265.506V265.438C36.406 262.14 33.89 260.508 31.034 259.76C32.972 258.978 35.08 257.346 35.08 254.116V254.048C35.08 252.552 34.536 251.294 33.55 250.308C32.224 248.982 30.048 248.2 27.362 248.2H17.536V272ZM33.278 254.286C33.278 257.448 30.728 259.182 27.158 259.182H19.304V249.832H27.328C31.136 249.832 33.278 251.6 33.278 254.218V254.286ZM34.604 265.438V265.506C34.604 268.498 32.02 270.368 27.94 270.368H19.304V260.814H27.362C32.054 260.814 34.604 262.514 34.604 265.438Z" fill="white"/>
<path d="M46.7311 272H48.4991V248.2H46.7311V272Z" fill="white"/>
<path d="M70.4432 272.408C77.6512 272.408 82.4452 266.594 82.4452 260.1V260.032C82.4452 253.538 77.7192 247.792 70.5112 247.792C63.3032 247.792 58.5092 253.606 58.5092 260.1V260.168C58.5092 266.662 63.2352 272.408 70.4432 272.408ZM70.5112 270.81C64.6292 270.81 60.3452 265.982 60.3452 260.1V260.032C60.3452 254.15 64.5612 249.39 70.4432 249.39C76.3252 249.39 80.6092 254.218 80.6092 260.1V260.168C80.6092 266.05 76.3932 270.81 70.5112 270.81Z" fill="white"/>
<path d="M100.248 272.34C104.838 272.34 108.136 269.688 108.136 265.846V265.778C108.136 262.31 105.824 260.338 100.316 259.216C94.6719 258.06 93.3799 256.53 93.3799 254.014V253.946C93.3799 251.464 95.6919 249.458 99.1939 249.458C101.812 249.458 104.056 250.206 106.3 252.144L107.422 250.75C105.008 248.812 102.73 247.86 99.2619 247.86C94.8419 247.86 91.6119 250.58 91.6119 254.116V254.184C91.6119 257.788 93.9239 259.726 99.6359 260.882C105.042 261.97 106.368 263.432 106.368 265.948V266.016C106.368 268.736 103.92 270.742 100.35 270.742C96.8479 270.742 94.4339 269.62 91.8159 267.206L90.6599 268.532C93.5159 271.082 96.4399 272.34 100.248 272.34Z" fill="white"/>
<path d="M118.596 272H120.364V248.2H118.596V272Z" fill="white"/>
<path d="M142.682 272.408C146.558 272.408 149.89 270.742 152.032 268.838V259.658H142.376V261.29H150.332V268.124C148.598 269.586 145.776 270.844 142.75 270.844C136.392 270.844 132.55 266.254 132.55 260.1V260.032C132.55 254.286 136.596 249.39 142.376 249.39C145.98 249.39 148.156 250.614 150.026 252.246L151.182 250.92C148.802 248.948 146.354 247.792 142.478 247.792C135.372 247.792 130.714 253.674 130.714 260.1V260.168C130.714 266.866 135.168 272.408 142.682 272.408Z" fill="white"/>
<path d="M162.17 272H163.87V250.852L180.632 272H181.958V248.2H180.258V268.906L163.836 248.2H162.17V272Z" fill="white"/>
<path d="M190.731 272H192.567L195.593 265.336H209.635L212.661 272H214.599L203.515 248.03H201.815L190.731 272ZM196.341 263.738L202.631 249.968L208.887 263.738H196.341Z" fill="white"/>
<path d="M223.373 272H239.115V270.368H225.141V248.2H223.373V272Z" fill="white"/>
<path d="M256.736 272.34C261.326 272.34 264.624 269.688 264.624 265.846V265.778C264.624 262.31 262.312 260.338 256.804 259.216C251.16 258.06 249.868 256.53 249.868 254.014V253.946C249.868 251.464 252.18 249.458 255.682 249.458C258.3 249.458 260.544 250.206 262.788 252.144L263.91 250.75C261.496 248.812 259.218 247.86 255.75 247.86C251.33 247.86 248.1 250.58 248.1 254.116V254.184C248.1 257.788 250.412 259.726 256.124 260.882C261.53 261.97 262.856 263.432 262.856 265.948V266.016C262.856 268.736 260.408 270.742 256.838 270.742C253.336 270.742 250.922 269.62 248.304 267.206L247.148 268.532C250.004 271.082 252.928 272.34 256.736 272.34Z" fill="white"/>
<path d="M16.276 232H29.263C35.425 232 39.481 229.504 39.481 224.512V224.434C39.481 220.768 37.531 218.935 34.372 217.726C36.322 216.634 37.96 214.918 37.96 211.837V211.759C37.96 209.887 37.336 208.366 36.088 207.118C34.528 205.558 32.071 204.7 28.951 204.7H16.276V232ZM31.993 212.851C31.993 214.879 30.316 215.737 27.664 215.737H22.126V209.965H28.054C30.589 209.965 31.993 210.979 31.993 212.773V212.851ZM33.514 223.693V223.771C33.514 225.799 31.915 226.735 29.263 226.735H22.126V220.729H29.068C32.149 220.729 33.514 221.86 33.514 223.693Z" fill="white"/>
<path d="M49.4915 232H70.2785V226.657H55.4585V220.924H68.3285V215.581H55.4585V210.043H70.0835V204.7H49.4915V232Z" fill="white"/>
<path d="M78.3485 232H84.4715L86.9675 225.877H98.5115L101.007 232H107.286L95.5865 204.505H90.0485L78.3485 232ZM89.1125 220.573L92.7395 211.72L96.3665 220.573H89.1125Z" fill="white"/>
<path d="M127.022 232.468C132.287 232.468 135.407 230.596 138.215 227.593L134.393 223.732C132.248 225.682 130.337 226.93 127.217 226.93C122.537 226.93 119.3 223.03 119.3 218.35V218.272C119.3 213.592 122.615 209.77 127.217 209.77C129.947 209.77 132.092 210.94 134.198 212.851L138.02 208.444C135.485 205.948 132.404 204.232 127.256 204.232C118.871 204.232 113.021 210.589 113.021 218.35V218.428C113.021 226.267 118.988 232.468 127.022 232.468Z" fill="white"/>
<path d="M159.793 232.468C168.217 232.468 174.34 226.111 174.34 218.35V218.272C174.34 210.511 168.295 204.232 159.871 204.232C151.447 204.232 145.324 210.589 145.324 218.35V218.428C145.324 226.189 151.369 232.468 159.793 232.468ZM159.871 226.93C155.035 226.93 151.603 223.03 151.603 218.35V218.272C151.603 213.592 154.957 209.77 159.793 209.77C164.629 209.77 168.061 213.67 168.061 218.35V218.428C168.061 223.108 164.707 226.93 159.871 226.93Z" fill="white"/>
<path d="M183.958 232H189.886V214.645L203.107 232H208.216V204.7H202.288V221.509L189.496 204.7H183.958V232Z" fill="white"/>
<path d="M384.856 207.181C385.792 205.226 385.962 203.696 385.962 201.316V189.075V176.835C385.962 171.139 386.047 165.529 385.962 159.919C385.962 158.984 385.962 158.049 385.877 157.029C385.877 156.009 385.792 154.989 385.537 153.968C385.282 153.118 384.941 152.183 384.516 151.418C383.75 149.973 382.729 148.698 381.453 147.593C379.241 145.808 376.433 144.703 373.455 144.703C370.477 144.703 367.67 145.808 365.457 147.593C362.99 149.633 361.118 152.778 361.118 156.094C361.118 156.774 361.118 157.454 361.118 158.134V161.704V166.549V172.33V178.705V185.42V192.221V198.766V204.801V209.987V213.982V216.617V217.807C361.118 217.977 361.118 218.147 361.033 218.232C360.778 218.997 360.353 219.677 359.757 220.187C359.076 220.782 358.14 221.122 357.119 221.122C355.588 221.122 353.886 220.187 353.376 218.657C353.206 218.147 353.206 217.637 353.206 217.127C353.291 212.877 353.291 208.627 353.291 204.291C353.291 200.126 353.291 196.046 353.291 191.881C353.291 187.97 353.291 183.975 353.291 180.065C353.291 177.175 353.291 174.285 353.291 171.309C353.291 157.114 353.291 124.132 353.291 124.132C352.695 107.811 329.298 107.046 328.702 124.132V124.217C328.447 146.573 328.362 169.269 328.362 190.946C328.362 212.537 328.447 235.148 328.702 257.504V257.589C328.617 258.779 328.107 259.799 327.341 260.564C326.575 261.329 325.469 261.84 324.278 261.84C323.087 261.84 321.981 261.329 321.215 260.564C320.449 259.799 319.854 258.694 319.854 257.504C319.598 235.743 319.513 211.602 319.513 186.44C319.513 161.279 319.598 137.053 319.854 115.291V115.206C319.513 98.2054 295.52 99.3104 295.095 115.121C295.095 130.932 295.095 146.828 295.095 162.639C295.095 167.314 295.095 171.989 295.095 176.665V191.201C295.095 196.216 295.18 201.231 295.18 206.246C295.18 207.011 295.18 207.777 295.18 208.542C295.18 209.307 295.18 210.072 295.01 210.752C295.01 211.007 294.925 211.177 294.84 211.432C294.584 212.282 294.159 213.047 293.478 213.472C293.223 213.642 292.968 213.727 292.712 213.897C292.202 214.152 291.606 214.237 291.011 214.237C289.564 214.152 288.203 213.387 287.437 212.197C286.842 211.177 286.842 210.072 286.842 208.967C286.757 205.566 286.757 202.166 286.757 198.766C286.672 194.006 286.672 189.245 286.672 184.485C286.672 179.555 286.587 174.71 286.587 169.779C286.587 165.699 286.587 161.704 286.587 157.624C286.587 139.263 286.672 121.837 286.927 105.261V105.006C286.161 87.8348 263.104 88.5998 262.423 104.836V105.006C262.168 122.347 262.083 138.838 262.083 154.649C262.083 170.289 262.168 186.695 262.423 203.866C262.423 203.951 262.423 204.036 262.423 204.121C262.253 205.141 261.743 206.076 260.977 206.756C260.126 207.521 259.105 207.947 257.914 207.947C256.723 207.947 255.702 207.436 254.936 206.671C254.17 205.991 253.745 205.056 253.575 204.036C253.575 203.951 253.575 203.866 253.575 203.866V104.241C253.575 102.031 252.979 99.9904 251.958 98.1203C250.937 96.2502 249.406 94.7202 247.534 93.6151C245.662 92.51 243.535 92 241.408 92C239.281 92 237.154 92.51 235.282 93.6151C233.41 94.7202 231.879 96.2502 230.858 98.1203C229.837 99.9054 229.241 102.031 229.241 104.241V141.303V178.365V178.45C229.241 179.215 229.071 179.895 228.731 180.575C228.391 181.17 227.88 181.68 227.285 182.105C226.689 182.445 225.923 182.7 225.243 182.7C224.477 182.7 223.796 182.53 223.201 182.19C222.52 181.85 222.009 181.255 221.669 180.66C221.329 180.065 221.159 179.3 221.159 178.535V178.45V124.812C221.159 122.687 220.648 120.562 219.627 118.777C218.606 116.906 217.075 115.376 215.203 114.271C213.331 113.166 211.204 112.656 209.162 112.656C207.035 112.656 204.993 113.251 203.121 114.271C201.249 115.376 199.548 116.821 198.697 118.777C196.059 122.942 196.145 126.767 196.315 132.292C196.315 134.332 196.4 135.352 196.4 137.478C196.4 139.603 196.4 143.853 196.4 145.978C196.4 148.018 196.485 149.718 196.485 151.928C196.485 153.288 196.485 153.458 196.485 154.819C196.4 158.899 196.4 163.149 196.315 167.229C196.315 167.314 196.315 167.399 196.315 167.484C196.23 169.099 196.4 170.884 194.868 171.819C194.273 172.16 193.592 172.33 192.997 172.33C192.316 172.33 191.635 172.16 191.125 171.819C189.338 170.799 189.253 168.504 189.253 166.634C189.253 164.084 189.338 161.619 189.338 159.069C189.338 154.053 189.338 149.038 189.338 144.108C189.338 142.153 187.126 140.963 185.509 142.153C183.127 143.853 181.425 146.488 181 149.378C181 149.463 181 149.548 181 149.633V168.249C181 170.459 181.51 172.585 182.531 174.37C183.552 176.24 184.914 177.77 186.871 178.96C188.828 180.15 190.955 180.66 193.082 180.66C195.209 180.66 197.336 180.065 199.293 178.96C201.164 177.855 202.611 176.24 203.547 174.37C204.483 172.585 204.993 170.459 205.078 168.249V168.164C205.078 159.154 204.568 133.482 205.163 125.152C205.248 124.472 205.248 123.027 205.504 122.517C205.844 121.922 206.269 121.497 206.865 121.157C207.46 120.817 208.056 120.647 208.737 120.647C209.417 120.647 210.013 120.817 210.608 121.157C211.204 121.497 211.629 122.007 211.97 122.517C212.31 123.112 212.48 123.707 212.48 124.387V124.472V178.195C212.48 180.405 213.076 182.53 214.097 184.4C215.203 186.27 216.734 187.885 218.606 189.075C220.563 190.181 222.69 190.776 224.902 190.776C227.029 190.776 229.241 190.181 231.198 189.075C233.155 187.97 234.687 186.355 235.793 184.485C236.899 182.615 237.409 180.405 237.409 178.195V141.133V104.071C237.409 103.391 237.579 102.711 237.92 102.116C238.26 101.521 238.771 101.096 239.366 100.755C239.962 100.415 240.642 100.245 241.323 100.245C242.004 100.245 242.684 100.415 243.28 100.755C243.875 101.096 244.386 101.606 244.726 102.116C245.067 102.711 245.237 103.391 245.237 104.071V203.781V203.866V204.036C245.407 207.351 246.938 210.412 249.151 212.537C251.448 214.662 254.511 216.022 257.829 216.107C261.232 216.192 264.295 214.917 266.592 212.792C269.145 210.497 270.761 207.096 270.846 203.611C270.846 199.616 270.932 195.621 270.846 191.626C270.846 187.545 270.846 183.38 270.846 179.215C270.846 174.965 270.846 170.799 270.846 166.549C270.846 162.469 270.846 158.474 270.846 154.394C270.846 137.138 270.846 120.562 270.846 104.836C270.846 99.5654 278.419 99.2254 278.419 104.836V157.284V209.732C278.419 213.217 280.035 216.362 282.332 218.657C284.63 220.952 287.778 222.397 291.266 222.397C295.52 222.397 299.774 220.102 301.986 216.447C302.582 215.512 303.007 214.407 303.348 213.387C304.113 211.177 303.943 208.542 303.858 206.246C303.773 201.486 303.858 196.641 303.858 191.881C303.858 187.035 303.858 182.19 303.858 177.26C303.858 172.245 303.858 167.314 303.858 162.299C303.858 145.723 303.603 129.997 303.858 115.121C303.943 110.191 311.26 110.446 311.26 115.121C311.005 139.008 311.175 163.149 311.175 186.27C311.175 209.392 311.26 233.618 311.516 257.504V257.589C311.601 261.074 313.132 264.135 315.429 266.345C317.727 268.555 320.875 270 324.363 270C327.851 270 330.999 268.64 333.297 266.345C335.594 264.135 336.87 260.819 336.955 257.334V190.776C336.955 167.144 336.7 144.448 336.955 124.217C337.125 118.777 344.697 118.862 344.953 124.302C345.038 138.413 344.953 153.968 344.953 171.054V183.805V195.876V207.436V213.047C344.953 214.917 344.868 216.787 344.953 218.572C345.123 221.547 346.995 224.437 349.207 226.308C351.419 228.178 354.227 229.283 357.29 229.283C360.353 229.283 363.16 228.178 365.372 226.308C367.585 224.437 369.116 221.887 369.626 218.912C369.626 218.827 369.626 218.827 369.626 218.742V218.232V218.147V156.179C369.626 156.009 369.626 155.839 369.712 155.669C369.967 154.904 370.392 154.309 370.988 153.798C371.668 153.203 372.604 152.863 373.625 152.863C374.646 152.863 375.582 153.203 376.263 153.798C376.858 154.309 377.284 154.904 377.539 155.584C377.624 155.754 377.624 155.924 377.624 156.094V158.559V165.019V174.03V184.23V194.346V202.761C377.624 204.801 377.539 206.926 377.624 208.967C377.624 210.497 378.645 211.942 380.347 211.687C382.133 211.347 383.58 209.647 384.431 208.117C384.516 207.777 384.686 207.521 384.856 207.181Z" fill="#1FDCB3"/>
</svg>
