<?xml version="1.0" encoding="UTF-8"?>
<!DOCTYPE svg PUBLIC "-//W3C//DTD SVG 1.1//EN" "http://www.w3.org/Graphics/SVG/1.1/DTD/svg11.dtd">
<svg width="1361" height="195" viewBox="0 0 1361 195" fill="none" xmlns="http://www.w3.org/2000/svg">
<path fill-rule="evenodd" clip-rule="evenodd" d="M189.156 19.0603L140.388 67.8283C137.86 70.3563 134.431 71.7763 130.856 71.7758C127.281 71.7753 123.852 70.3544 121.325 67.8257L72.5835 19.0577L91.649 0.00261021L130.86 39.2353L170.095 0L189.156 19.0603Z" fill="#F07F65"/>
<path fill-rule="evenodd" clip-rule="evenodd" d="M121.327 126.647C126.59 121.385 135.121 121.384 140.385 126.645L189.153 175.386L170.098 194.451L130.86 155.235L91.6464 194.449L72.5862 175.389L121.327 126.647Z" fill="#F07F65"/>
<path fill-rule="evenodd" clip-rule="evenodd" d="M3.93969 87.7422L52.7077 38.894L71.7836 57.9387L32.5405 97.2462L71.7654 136.385L52.726 155.466L3.95797 106.805C1.42719 104.28 0.0034337 100.853 6.19925e-06 97.2774C-0.00342035 93.7023 1.41376 90.2723 3.93969 87.7422Z" fill="#F07F65"/>
<path fill-rule="evenodd" clip-rule="evenodd" d="M209.221 39.1343L257.749 87.7421C260.274 90.2721 261.692 93.7021 261.688 97.2773C261.685 100.852 260.261 104.28 257.73 106.805L208.962 155.466L189.923 136.385L229.148 97.246L190.145 58.1788L209.221 39.1343Z" fill="#F07F65"/>
<path d="M410.005 137.94C410.005 142.214 410.165 145.819 410.512 148.704C410.86 151.588 411.447 154.766 412.248 158.238H385.888C384.392 153.725 383.645 147.074 383.645 138.288V132.225C383.645 125.975 381.935 121.328 378.517 118.257C375.098 115.186 370.398 113.663 364.388 113.663H340.619V158.265H314.071V42.8882H374.965C387.33 42.8882 396.785 45.7192 403.328 51.3812C409.871 57.0432 413.13 64.735 413.13 74.4565C413.13 82.3353 410.886 88.932 406.373 94.327C401.859 99.6952 396.064 103.14 389.013 104.663C395.716 106.292 400.898 108.989 404.53 112.809C408.162 116.628 410.005 122.423 410.005 130.169V137.94ZM369.062 94.7276C374.858 94.7276 379.051 93.3655 381.641 90.6413C384.232 87.9172 385.541 83.7775 385.541 78.249C385.541 68.3138 380.039 63.3195 369.062 63.3195H340.619V94.7276H369.062Z" fill="#070F4D"/>
<path d="M485.133 140.291C488.365 138.261 490.635 135.51 491.89 132.038H516.515C515.126 140.264 510.879 147.128 503.775 152.683C496.671 158.238 485.988 161.016 471.753 161.016C455.915 161.016 444.164 156.663 436.525 147.929C428.887 139.196 425.068 128.112 425.068 114.705C425.068 106.025 426.777 98.2264 430.196 91.2824C433.614 84.3384 438.822 78.8367 445.82 74.8038C452.817 70.7443 461.47 68.7412 471.753 68.7412C487.136 68.7412 498.46 73.0144 505.751 81.5875C513.043 90.1607 516.675 101.137 516.675 114.545C516.675 117.91 516.568 120.207 516.328 121.489H450.226C450.921 129.367 453.138 134.976 456.903 138.314C460.669 141.68 465.77 143.335 472.26 143.335C477.602 143.309 481.875 142.321 485.133 140.291ZM457.277 90.588C453.752 93.606 451.455 98.6804 450.413 105.865H492.237C491.783 99.268 489.887 94.3271 486.602 91.042C483.317 87.757 478.483 86.1011 472.127 86.1011C465.744 86.0744 460.803 87.57 457.277 90.588Z" fill="#070F4D"/>
<path d="M556.603 158.238H530.937V36.7988H556.603V158.238Z" fill="#070F4D"/>
<path d="M642.495 71.4919H668.161V158.238H642.495V145.232C636.352 155.754 626.23 161.016 612.128 161.016C598.721 161.016 588.839 156.716 582.536 148.089C576.233 139.463 573.082 128.406 573.082 114.865C573.082 101.111 576.233 89.9736 582.536 81.4539C588.839 72.9609 598.694 68.7144 612.128 68.7144C626.363 68.7144 636.485 73.9223 642.495 84.3383V71.4919ZM637.019 134.816C640.652 130.756 642.495 124.106 642.495 114.865C642.495 105.624 640.705 98.974 637.126 94.9145C633.548 90.8549 627.859 88.8519 620.114 88.8519C612.368 88.8519 606.84 90.8549 603.555 94.8344C600.27 98.8138 598.614 105.517 598.614 114.865C598.614 124.133 600.27 130.783 603.555 134.816C606.84 138.875 612.368 140.878 620.114 140.878C627.752 140.905 633.387 138.875 637.019 134.816Z" fill="#070F4D"/>
<path d="M728.039 158.238C716.127 158.238 707.821 155.728 703.147 150.68C698.473 145.659 696.123 137.754 696.123 126.99V90.9352H680.339V78.623L698.206 71.3319L708.782 50.8472H721.789V71.4921H746.761V90.9352H721.789V137.78H744.357V158.265H728.039V158.238Z" fill="#070F4D"/>
<path d="M788.932 60.0343H760.996V42.8613H788.932V60.0343ZM787.89 158.238H762.224V71.4918H787.89V158.238Z" fill="#070F4D"/>
<path d="M823.786 154.686C816.601 150.466 811.34 144.884 808.001 137.94C804.636 130.996 802.98 123.251 802.98 114.678C802.98 106.238 804.663 98.5466 808.001 91.6026C811.367 84.6586 816.628 79.1035 823.786 74.9371C830.943 70.7707 840.024 68.6875 851.027 68.6875C862.004 68.6875 871.111 70.7974 878.349 75.0172C885.587 79.237 890.848 84.8189 894.133 91.7628C897.418 98.7068 899.074 106.345 899.074 114.678C899.074 123.118 897.418 130.836 894.133 137.833C890.848 144.831 885.56 150.439 878.349 154.659C871.111 158.879 862.004 160.989 851.027 160.989C840.051 161.016 830.97 158.906 823.786 154.686ZM834.041 135.002C837.513 138.928 843.175 140.905 851.054 140.905C859.04 140.905 864.755 138.928 868.227 135.002C871.699 131.076 873.435 124.373 873.435 114.865C873.435 105.384 871.699 98.6801 868.227 94.7274C864.755 90.8014 859.04 88.825 851.054 88.825C843.175 88.825 837.513 90.8014 834.041 94.7274C830.569 98.6534 828.833 105.384 828.833 114.865C828.833 124.346 830.569 131.05 834.041 135.002Z" fill="#070F4D"/>
<path d="M1003.21 104.983V158.238H977.541V108.963C977.541 102.152 976.152 97.1846 973.374 94.14C970.597 91.0686 966.484 89.5463 961.062 89.5463C954.011 89.5463 948.697 91.9232 945.091 96.6505C941.512 101.404 939.723 108.802 939.723 118.871V158.265H914.057V71.4919H939.723V88.5047C945.972 75.3111 956.388 68.7144 970.944 68.7144C992.444 68.7144 1003.21 80.8129 1003.21 104.983Z" fill="#070F4D"/>
<path d="M1087.18 71.4919H1112.84V158.238H1087.18V145.232C1081.03 155.754 1070.91 161.016 1056.81 161.016C1043.4 161.016 1033.52 156.716 1027.22 148.089C1020.91 139.463 1017.76 128.406 1017.76 114.865C1017.76 101.111 1020.91 89.9736 1027.22 81.4539C1033.52 72.9609 1043.38 68.7144 1056.81 68.7144C1071.04 68.7144 1081.17 73.9223 1087.18 84.3383V71.4919ZM1081.7 134.816C1085.33 130.756 1087.18 124.106 1087.18 114.865C1087.18 105.624 1085.39 98.974 1081.81 94.9145C1078.23 90.8549 1072.54 88.8519 1064.79 88.8519C1057.05 88.8519 1051.52 90.8549 1048.24 94.8344C1044.95 98.8138 1043.29 105.517 1043.29 114.865C1043.29 124.133 1044.95 130.783 1048.24 134.816C1051.52 138.875 1057.05 140.878 1064.79 140.878C1072.43 140.905 1078.07 138.875 1081.7 134.816Z" fill="#070F4D"/>
<path d="M1158.83 158.238H1133.17V36.7988H1158.83V158.238Z" fill="#070F4D"/>
<path d="M1284.28 158.238H1269.7L1258.42 128.753H1201.16L1189.89 158.238H1175.5L1219.22 42.8613H1240.56L1284.28 158.238ZM1229.79 53.2773L1205.49 117.135H1254.07L1229.79 53.2773Z" fill="#070F4D"/>
<path d="M1360.95 42.8613V54.4791H1336.49V146.62H1360.95V158.238H1297.79V146.62H1322.26V54.4791H1297.79V42.8613H1360.95Z" fill="#070F4D"/>
</svg>
