<?xml version="1.0" encoding="UTF-8" standalone="no"?>
<svg
   width="567pt"
   height="284pt"
   viewBox="0 0 567 284"
   version="1.1"
   id="svg260"
   xml:space="preserve"
   xmlns="http://www.w3.org/2000/svg"
   xmlns:svg="http://www.w3.org/2000/svg"><defs
     id="defs217"><clipPath
       id="clip1"><path
         d="M 0,0.535156 H 566.92969 V 284 H 0 Z m 0,0"
         id="path214" /></clipPath></defs><g
     id="g2380"><g
       clip-path="url(#clip1)"
       clip-rule="nonzero"
       id="g221"
       transform="matrix(0.87144686,0,0,0.48200644,45.014485,73.157803)"><path
         style="fill:#ffffff;fill-opacity:1;fill-rule:nonzero;stroke:none"
         d="M 566.92969,284 H 0 V 0.535156 H 566.92969 V 284"
         id="path219" /></g><path
       style="fill:#bcd4f0;fill-opacity:1;fill-rule:nonzero;stroke:none"
       d="m 77,111.53516 h 52 c 2.21094,0 4,-1.79297 4,-4 V 95.535156 c 0,-2.210937 -1.78906,-4 -4,-4 H 77 c -2.210938,0 -4,1.789063 -4,4 v 12.000004 c 0,2.20703 1.789062,4 4,4"
       id="path223" /><path
       style="fill:#24ce7b;fill-opacity:1;fill-rule:nonzero;stroke:none"
       d="m 77,151.53516 h 12 c 2.210938,0 4,-1.79297 4,-4 v -12 c 0,-2.21094 -1.789062,-4 -4,-4 H 77 c -2.210938,0 -4,1.78906 -4,4 v 12 c 0,2.20703 1.789062,4 4,4"
       id="path225" /><path
       style="fill:#1947ba;fill-opacity:1;fill-rule:nonzero;stroke:none"
       d="m 117,131.53516 h 12 c 2.21094,0 4,-1.79297 4,-4 V 95.535156 c 0,-2.210937 -1.78906,-4 -4,-4 h -12 c -2.21094,0 -4,1.789063 -4,4 v 32.000004 c 0,2.20703 1.78906,4 4,4"
       id="path227" /><path
       style="fill:#e74a24;fill-opacity:1;fill-rule:nonzero;stroke:none"
       d="m 117,191.53516 h 12 c 2.21094,0 4,-1.79297 4,-4 v -32 c 0,-2.21094 -1.78906,-4 -4,-4 h -12 c -2.21094,0 -4,1.78906 -4,4 v 32 c 0,2.20703 1.78906,4 4,4"
       id="path229" /><path
       style="fill:#383335;fill-opacity:1;fill-rule:nonzero;stroke:none"
       d="m 188.25,124.03516 h -2.84766 c -2,0 -2.60156,1.19922 -2.60156,3.19922 v 3.35156 h 5.89844 v 5.14843 h -5.89844 v 17.65235 H 176.75 v -17.65235 h -3.60156 v -4.64843 l 3.60156,-0.5 v -3.40235 c 0,-5.39843 2.69922,-8.30078 8.30078,-8.30078 H 188.25 v 5.15235"
       id="path231" /><path
       style="fill:#383335;fill-opacity:1;fill-rule:nonzero;stroke:none"
       d="m 206.25,139.63672 c 0.0508,-0.30078 0.10156,-0.60156 0.10156,-0.75 0,-2.70313 -1.90234,-3.95313 -4.05078,-3.95313 -3,0 -4.30078,2.10157 -4.44922,4.70313 z m 2.30078,7.04687 2.85156,3.95313 c -1.75,1.75 -4.80078,3.29687 -8.45312,3.29687 -7.89844,0 -11.25,-5 -11.25,-11.94922 0,-6.44921 3.55078,-11.89843 10.60156,-11.89843 7,0 9.64844,4.94922 9.64844,9.89843 0,1.25 -0.14844,3 -0.39844,3.94922 h -13.75 c 0.14844,3 1.84766,4.85157 5.14844,4.85157 1.85156,0 3.90234,-0.69922 5.60156,-2.10157"
       id="path233" /><path
       style="fill:#383335;fill-opacity:1;fill-rule:nonzero;stroke:none"
       d="m 223.14844,134.18359 c 1.15234,-2.05078 2.90234,-4.09765 6.10156,-4.09765 0.94922,0 1.85156,0.0977 2.60156,0.29687 l -0.45312,6.40235 c -1.04688,-0.25 -2.54688,-0.44922 -3.64844,-0.44922 -2,0 -3.55078,1.09765 -4.40234,2.69922 v 14.35156 h -6.04688 v -22.80078 h 5.79688 v 3.59765 h 0.0508"
       id="path235" /><path
       style="fill:#383335;fill-opacity:1;fill-rule:nonzero;stroke:none"
       d="m 241.94922,134.18359 c 1.14844,-2.05078 2.89844,-4.09765 6.10156,-4.09765 0.94922,0 1.84766,0.0977 2.59766,0.29687 l -0.44922,6.40235 c -1.05078,-0.25 -2.55078,-0.44922 -3.64844,-0.44922 -2,0 -3.55078,1.09765 -4.40234,2.69922 v 14.35156 h -6.05078 v -22.80078 h 5.80078 v 3.59765 h 0.0508"
       id="path237" /><path
       style="fill:#383335;fill-opacity:1;fill-rule:nonzero;stroke:none"
       d="m 268.85156,142.03516 c 0,-4.30079 -1.45312,-6.5 -4.65234,-6.5 -3.10156,0 -4.55078,2.19921 -4.55078,6.39843 0,4.40235 1.5,6.55078 4.60156,6.55078 3.14844,0 4.60156,-2.30078 4.60156,-6.44921 z m 6.19922,-0.10157 c 0,7 -3.40234,12 -10.90234,12 -7.14844,0 -10.64844,-5.09765 -10.64844,-11.89843 0,-6.94922 3.34766,-11.94922 10.84766,-11.94922 7.20312,0 10.70312,5 10.70312,11.84765"
       id="path239" /><path
       style="fill:#383335;fill-opacity:1;fill-rule:nonzero;stroke:none"
       d="M 300.84766,153.38672 H 295 v -2.60156 c -1.19922,1.69921 -3.40234,3.10156 -7.05078,3.10156 -5.15235,0 -7.80078,-3.15235 -7.80078,-9.05078 v -14.25 h 6.09765 v 13.55078 c 0,2.75 1.05078,4.19922 4.10157,4.19922 1.75,0 3.55078,-0.85157 4.45312,-1.69922 v -16.05078 h 6.04688 v 22.80078"
       id="path241" /><path
       style="fill:#383335;fill-opacity:1;fill-rule:nonzero;stroke:none"
       d="m 321.04687,136.98437 c -1.34765,-1.34765 -3.25,-2.34765 -5.5,-2.34765 -2.09765,0 -3.09765,1 -3.09765,2.19922 0,1.05078 0.64844,1.84765 2.09765,2.14843 l 3.80079,0.90235 c 4.55078,1 6.5,3.44922 6.5,6.75 0,3.59765 -2.44922,7.29687 -9.89844,7.29687 -4.90235,0 -7.85156,-2.04687 -9.30078,-3.84765 l 3.44922,-3.60157 c 1.30078,1.40235 3.25,2.94922 6.10156,2.94922 2.04687,0 3.5,-0.75 3.5,-2.25 0,-1 -0.75,-1.79687 -2.30078,-2.14843 l -3.94922,-0.94922 c -4.00391,-1 -6.00391,-3.35157 -6.00391,-6.65235 0,-3.29687 2.45313,-7.34765 9.35156,-7.34765 4.5,0 7.10157,1.69922 8.60157,3.34765 l -3.35157,3.55078"
       id="path243" /><path
       style="fill:#383335;fill-opacity:1;fill-rule:nonzero;stroke:none"
       d="m 354.44531,136.98437 c -1.34765,-1.34765 -3.25,-2.34765 -5.5,-2.34765 -2.09765,0 -3.09765,1 -3.09765,2.19922 0,1.05078 0.64843,1.84765 2.09765,2.14843 l 3.80078,0.90235 c 4.55078,1 6.5,3.44922 6.5,6.75 0,3.59765 -2.44922,7.29687 -9.89843,7.29687 -4.90235,0 -7.85157,-2.04687 -9.30079,-3.84765 l 3.44922,-3.60157 c 1.30078,1.40235 3.25,2.94922 6.10157,2.94922 2.05078,0 3.5,-0.75 3.5,-2.25 0,-1 -0.75,-1.79687 -2.30079,-2.14843 l -3.94921,-0.94922 c -4,-1 -6,-3.35157 -6,-6.65235 0,-3.29687 2.44921,-7.34765 9.34765,-7.34765 4.5,0 7.10156,1.69922 8.60156,3.34765 l -3.35156,3.55078"
       id="path245" /><path
       style="fill:#383335;fill-opacity:1;fill-rule:nonzero;stroke:none"
       d="m 372.94531,145.43359 5.10156,-14.84765 h 6.5 l -13.35156,33.60156 h -6.14844 l 4.89844,-11.80078 -9.34765,-21.80078 h 6.79687 l 5.55078,14.84765"
       id="path247" /><path
       style="fill:#383335;fill-opacity:1;fill-rule:nonzero;stroke:none"
       d="m 401.84766,136.98437 c -1.35157,-1.34765 -3.25,-2.34765 -5.5,-2.34765 -2.10157,0 -3.10157,1 -3.10157,2.19922 0,1.05078 0.64844,1.84765 2.10157,2.14843 l 3.80078,0.90235 c 4.54687,1 6.5,3.44922 6.5,6.75 0,3.59765 -2.45313,7.29687 -9.90235,7.29687 -4.89843,0 -7.85156,-2.04687 -9.30078,-3.84765 l 3.44922,-3.60157 c 1.30078,1.40235 3.25,2.94922 6.10156,2.94922 2.05078,0 3.5,-0.75 3.5,-2.25 0,-1 -0.75,-1.79687 -2.30078,-2.14843 l -3.94922,-0.94922 c -4,-1 -6,-3.35157 -6,-6.65235 0,-3.29687 2.44922,-7.34765 9.35157,-7.34765 4.5,0 7.09765,1.69922 8.59765,3.34765 l -3.34765,3.55078"
       id="path249" /><path
       style="fill:#383335;fill-opacity:1;fill-rule:nonzero;stroke:none"
       d="m 419.09766,145.88672 c 0,1.69922 0.89843,2.44922 2.5,2.44922 0.79687,0 1.84765,-0.15235 2.69921,-0.40235 l 0.0977,5.25 c -1.14844,0.45313 -3.14844,0.75 -4.84766,0.75 -4.69921,0 -6.5,-3.04687 -6.5,-7.19922 v -11.05078 h -4.15234 v -4.59765 l 4.15234,-0.5 v -5.55078 l 6.05079,-0.94922 v 6.5 h 5.09765 v 5.09765 h -5.09765 v 10.20313"
       id="path251" /><path
       style="fill:#383335;fill-opacity:1;fill-rule:nonzero;stroke:none"
       d="m 442.94531,139.63672 c 0.0508,-0.30078 0.10156,-0.60156 0.10156,-0.75 0,-2.70313 -1.90234,-3.95313 -4.05078,-3.95313 -3,0 -4.30078,2.10157 -4.44922,4.70313 z m 2.30078,7.04687 2.85157,3.95313 c -1.75,1.75 -4.80079,3.29687 -8.45313,3.29687 -7.89844,0 -11.25,-5 -11.25,-11.94922 0,-6.44921 3.55078,-11.89843 10.60156,-11.89843 7,0 9.64844,4.94922 9.64844,9.89843 0,1.25 -0.14844,3 -0.39844,3.94922 h -13.75 c 0.14844,3 1.85157,4.85157 5.14844,4.85157 1.85156,0 3.90234,-0.69922 5.60156,-2.10157"
       id="path253" /><path
       style="fill:#383335;fill-opacity:1;fill-rule:nonzero;stroke:none"
       d="m 453.99219,130.58594 h 5.85156 v 2.59765 c 1.25,-1.5 3.20312,-3.09765 6.40234,-3.09765 3.64844,0 5.55078,1.39843 6.94922,3.34765 1.25,-1.59765 3.90235,-3.34765 7.90235,-3.34765 5.75,0 8.14843,3 8.14843,8.55078 v 14.75 h -6.10156 v -14.25 c 0,-2.20313 -1,-3.5 -3.79687,-3.5 -2.05079,0 -3.65235,0.79687 -4.60157,1.69922 v 16.05078 h -6.05078 v -15.55078 c -0.75,-1.25 -2.05078,-2.19922 -4.19922,-2.19922 -1.90234,0 -3.30078,0.79687 -4.44922,1.69922 v 16.05078 h -6.05468 v -22.80078"
       id="path255" /><path
       style="fill:#383335;fill-opacity:1;fill-rule:nonzero;stroke:none"
       d="m 509.29687,136.98437 c -1.35156,-1.34765 -3.25,-2.34765 -5.5,-2.34765 -2.10156,0 -3.10156,1 -3.10156,2.19922 0,1.05078 0.64844,1.84765 2.10156,2.14843 l 3.79688,0.90235 c 4.55078,1 6.5,3.44922 6.5,6.75 0,3.59765 -2.44922,7.29687 -9.89844,7.29687 -4.90234,0 -7.85156,-2.04687 -9.30078,-3.84765 l 3.44922,-3.60157 c 1.30078,1.40235 3.25,2.94922 6.10156,2.94922 2.05078,0 3.5,-0.75 3.5,-2.25 0,-1 -0.75,-1.79687 -2.30078,-2.14843 l -3.94922,-0.94922 c -4,-1 -6,-3.35157 -6,-6.65235 0,-3.29687 2.44922,-7.34765 9.35156,-7.34765 4.5,0 7.09766,1.69922 8.59766,3.34765 l -3.34766,3.55078"
       id="path257" /><path
       id="path1957"
       style="fill:#ffef3d;fill-opacity:1;fill-rule:nonzero;stroke:none"
       d="m 117.00119,151.53516 c -2.21094,0 -4.00049,1.78955 -4.00049,4.00049 v 16.57031 h 19.99951 v -16.57031 c 0,-2.21094 -1.78808,-4.00049 -3.99902,-4.00049 z" /></g></svg>
