<?xml version="1.0" encoding="utf-8"?>
<!-- Generator: Adobe Illustrator 15.1.0, SVG Export Plug-In  -->
<!DOCTYPE svg PUBLIC "-//W3C//DTD SVG 1.1//EN" "http://www.w3.org/Graphics/SVG/1.1/DTD/svg11.dtd" [
	<!ENTITY ns_flows "http://ns.adobe.com/Flows/1.0/">
]>
<svg version="1.1"
	 xmlns="http://www.w3.org/2000/svg" xmlns:xlink="http://www.w3.org/1999/xlink" xmlns:a="http://ns.adobe.com/AdobeSVGViewerExtensions/3.0/"
	 x="0px" y="0px" width="477px" height="126px" viewBox="-7.216 -7.571 477 126" enable-background="new -7.216 -7.571 477 126"
	 xml:space="preserve">
<defs>
</defs>
<path fill="#FFFFFF" d="M110.099,55.531L81.603,84.027"/>
<path d="M162.962,35.146c-0.58,2.9-1.102,5.858-1.102,8.816h-1.798c0-1.334,0-3.306,0-4.06c0-1.74-1.856-2.494-5.046-3.712
	c-1.392-0.522-3.886-0.986-6.554-0.986c-10.208,0-16.53,7.366-16.53,17.922c0,11.368,7.714,18.792,18.85,18.792
	c3.828,0,8.642-1.102,12.006-3.48l0.522,0.58c-0.464,0.812-1.508,2.668-1.682,2.958c-3.654,1.914-8.41,3.074-12.876,3.074
	c-12.992,0-23.026-7.54-23.026-20.996c0-14.21,11.658-21.286,23.722-21.286C153.856,32.768,159.134,33.753,162.962,35.146z"/>
<path d="M193.528,35.204c11.426,0,15.95,8.642,15.95,19.14c0,9.512-3.828,18.27-14.326,18.27c-11.658,0-16.298-10.846-16.298-20.59
	C178.854,42.569,183.146,35.204,193.528,35.204z M194.283,32.768c-12.412,0-21.634,8.41-21.634,21.286
	c0,12.006,8.12,20.996,20.474,20.996c13.166,0,22.562-10.092,22.562-22.678C215.685,39.959,207.158,32.768,194.283,32.768z"/>
<path d="M229.256,40.365c0-1.972-0.174-3.422-0.638-4.002c-0.638-0.754-2.552-0.638-4.872-0.87v-1.74l5.684,0.174
	c1.218,0,3.19-0.058,4.408-0.174l27.724,34.22h0.174V40.018c0-2.03-0.232-3.074-0.638-3.654c-0.522-0.696-2.088-0.638-4.872-0.87
	v-1.74l6.554,0.174c1.276,0,5.626-0.174,7.134-0.174v1.74c-2.03,0.174-4.292,0-4.93,0.986c-0.58,0.87-0.58,2.958-0.58,3.538v32.886
	c0,0.638,0.116,1.45,0.174,2.146l-5.22-0.928c0,0-24.708-30.682-27.317-33.93c-0.232-0.29-0.116-0.058-0.116-0.058v27.84
	c0,1.798,0.232,2.958,0.696,3.538c0.638,0.754,2.726,0.58,4.814,0.812v1.74l-7.25-0.174c-1.624-0.058-4.814,0.174-6.438,0.174v-1.74
	c2.204-0.232,4.118-0.058,4.814-0.812c0.464-0.522,0.696-1.682,0.696-3.538V40.365z"/>
<path d="M283.254,40.365c0-1.972-0.174-3.422-0.638-4.002c-0.638-0.754-2.552-0.638-4.872-0.87v-1.74l5.684,0.174
	c1.218,0,3.19-0.058,4.408-0.174l27.724,34.22h0.174V40.018c0-2.03-0.232-3.074-0.638-3.654c-0.522-0.696-2.089-0.638-4.872-0.87
	v-1.74l6.554,0.174c1.276,0,5.626-0.174,7.134-0.174v1.74c-2.03,0.174-4.292,0-4.93,0.986c-0.58,0.87-0.58,2.958-0.58,3.538v32.886
	c0,0.638,0.116,1.45,0.174,2.146l-5.22-0.928c0,0-24.708-30.682-27.318-33.93c-0.232-0.29-0.116-0.058-0.116-0.058v27.84
	c0,1.798,0.232,2.958,0.696,3.538c0.638,0.754,2.726,0.58,4.814,0.812v1.74l-7.25-0.174c-1.624-0.058-4.814,0.174-6.438,0.174v-1.74
	c2.204-0.232,4.118-0.058,4.814-0.812c0.464-0.522,0.696-1.682,0.696-3.538V40.365z"/>
<path d="M343.284,66.755c0,2.552,0.116,3.886,0.521,4.524c0.349,0.58,1.044,0.812,2.437,0.87l2.784,0.174v1.74
	c-2.958-0.116-4.698-0.116-9.223-0.116c-3.422,0-5.451,0-7.771,0.116v-1.74l2.726-0.174c0.87,0,1.856-0.174,2.263-0.58
	c0.58-0.58,0.754-1.74,0.754-4.872V40.713c0-2.03-0.116-3.538-0.522-4.176c-0.174-0.29-0.58-0.812-2.436-0.87l-2.784-0.174v-1.74
	c0,0,3.828,0.174,7.83,0.174c3.943,0,6.438-0.058,9.164-0.174v1.74l-2.727,0.174c-1.972,0.058-2.319,0.58-2.494,0.87
	c-0.405,0.638-0.521,2.204-0.521,4.408V66.755z"/>
<path d="M362.597,40.365c0-1.972-0.174-3.422-0.638-4.002c-0.639-0.754-2.553-0.638-4.872-0.87v-1.74l5.684,0.174
	c1.218,0,3.19-0.058,4.408-0.174l27.724,34.22h0.174V40.018c0-2.03-0.231-3.074-0.638-3.654c-0.522-0.696-2.088-0.638-4.872-0.87
	v-1.74l6.554,0.174c1.276,0,5.626-0.174,7.134-0.174v1.74c-2.029,0.174-4.292,0-4.93,0.986c-0.58,0.87-0.58,2.958-0.58,3.538v32.886
	c0,0.638,0.116,1.45,0.174,2.146l-5.22-0.928c0,0-24.708-30.682-27.317-33.93c-0.232-0.29-0.116-0.058-0.116-0.058v27.84
	c0,1.798,0.231,2.958,0.696,3.538c0.638,0.754,2.726,0.58,4.813,0.812v1.74l-7.25-0.174c-1.624-0.058-4.813,0.174-6.438,0.174v-1.74
	c2.204-0.232,4.117-0.058,4.813-0.812c0.464-0.522,0.696-1.682,0.696-3.538V40.365z"/>
<path d="M450.235,35.146c-0.813,3.074-1.16,5.916-1.16,8.816h-1.798c0-1.16,0-3.016,0-3.016c0-2.61-1.683-3.538-4.524-4.582
	c-2.494-0.928-5.336-1.16-8.235-1.16c-11.194,0-16.937,7.134-16.937,17.632c0,11.426,6.67,19.778,18.676,19.778
	c2.03,0,6.554-0.406,7.772-1.566c0.638-0.58,0.638-1.624,0.638-2.726v-5.8c0-1.276-0.174-2.03-2.03-2.204
	c0,0-3.596-0.29-4.756-0.406v-1.74c0,0,3.422,0.116,7.019,0.116c3.189,0,6.495-0.116,7.191-0.116l0.232,1.45
	c-2.204,0.754-2.32,0.58-2.32,2.03v10.44c0,0-9.396,2.958-15.544,2.958c-12.992,0-23.084-7.192-23.084-21.112
	c0-13.688,11.311-21.17,24.534-21.17C440.781,32.768,445.363,33.58,450.235,35.146z"/>
<polygon fill="#004990" points="54.938,0 75.623,20.685 40.902,55.405 75.833,90.335 55.615,110.554 0,54.938 "/>
<rect x="61.86" y="35.383" transform="matrix(0.7071 0.7071 -0.7071 0.7071 63.2619 -41.714)" fill="#4D90CD" width="40.25" height="40.25"/>
<path d="M458.129,27.851v1.014h-1.958v5.108h-1.215v-5.108h-1.936v-1.014H458.129z M464.747,33.973l-0.226-3.601
	c-0.021-0.473-0.021-1.059-0.045-1.711h-0.067c-0.157,0.54-0.36,1.261-0.518,1.823l-1.103,3.398h-1.261l-1.103-3.488
	c-0.113-0.45-0.293-1.193-0.428-1.733h-0.067c0,0.563-0.022,1.147-0.045,1.711l-0.226,3.601h-1.17l0.45-6.122h1.823l1.058,2.994
	c0.157,0.473,0.247,0.923,0.405,1.553h0.021c0.158-0.54,0.293-1.08,0.428-1.508l1.059-3.039h1.756l0.473,6.122H464.747z"/>
</svg>
