<svg width="70px" height="40px" viewBox="0 0 150 86" version="1.1" xmlns="http://www.w3.org/2000/svg" xmlns:xlink="http://www.w3.org/1999/xlink">
  <g id="Page-1" stroke="none" stroke-width="1" fill="none" fill-rule="evenodd">
    <g id="CSAIL_Primary_Regular_RGB" transform="translate(-2.000000, -4.000000)">
      <g id="Group" transform="translate(2.813800, 4.812400)">
        <path d="M117.1642,2.233 L117.1642,34.729 L128.2572,34.729 L128.2572,54.917 L139.6382,54.917 L149.1102,12.778 L117.1642,2.233 Z M117.1642,85.099 L133.9002,80.434 L137.7002,63.54 L117.1642,63.54 L117.1642,85.099 Z M27.8702,0 L19.0112,0 L16.3062,10.112 L15.7572,13.366 L15.4432,13.366 L14.8942,10.19 L11.9942,0 L3.1742,0 L3.1742,18.265 L8.6222,18.265 L8.6222,8.739 L8.4272,5.407 L8.7802,5.407 L12.3862,18.265 L18.6192,18.265 L22.1462,5.368 L22.4992,5.368 L22.3022,9.015 L22.3022,18.265 L27.8702,18.265 L27.8702,0 Z M33.7102,18.266 L40.0212,18.266 L40.0212,0 L33.7102,0 L33.7102,18.266 Z M44.1772,0 L60.5612,0 L60.5612,5.133 L55.5432,5.133 L55.5432,18.265 L49.2322,18.265 L49.2322,5.133 L44.1772,5.133 L44.1772,0 Z" id="Fill-1" fill="#898D8D"></path>
        <g id="Group-6" transform="translate(0.000000, 14.698700)">
          <path d="M74.5275,30.379 L76.5265,37.787 L70.9615,37.787 L72.9995,30.379 L73.6255,27.321 L73.9005,27.321 L74.5275,30.379 Z M111.7655,27.085 L107.8455,27.085 L107.8455,41.785 L111.7655,41.785 L111.7655,48.842 L92.9115,48.842 L92.9115,41.785 L96.8315,41.785 L96.8315,27.085 L92.9115,27.085 L92.9115,20.03 L111.7655,20.03 L111.7655,27.085 Z M93.5655,0 C84.6295,0 76.9855,1.843 73.6145,4.39 L67.8245,20.03 L80.2125,20.03 L90.7165,48.842 L79.1135,48.842 L77.8595,44.529 L69.7455,44.529 L68.4895,48.842 L57.1575,48.842 L52.6435,61.032 C55.7395,64.246 65.7755,66.755 78.0445,66.755 C89.5685,66.755 108.5015,64.167 117.1645,60.954 L117.1645,4.822 C113.9105,2.743 104.1105,0 93.5655,0 L93.5655,0 Z" id="Fill-2" fill="#F0B323"></path>
          <path d="M31.671,48.3302 L31.671,40.1782 C33.828,41.0002 37.121,41.5502 40.373,41.5502 C43.156,41.5502 44.254,41.1972 44.254,39.8252 C44.254,38.6862 43.354,38.4522 40.373,37.9432 C36.219,37.2382 31.515,36.1792 31.515,29.4762 C31.515,23.2052 35.71,19.2842 44.921,19.2842 C49.155,19.2842 53.348,20.0702 54.838,20.5392 L54.838,28.0262 C51.78,27.3592 49.075,26.9692 46.293,26.9692 C44.921,26.9692 43.156,27.0862 43.156,28.4172 C43.156,29.5942 44.177,29.8302 47.861,30.5742 C52.448,31.5152 55.975,33.0042 55.975,38.7672 C55.975,43.8222 52.879,49.5462 42.06,49.5462 C38.023,49.5462 33.318,48.8802 31.671,48.3302 L31.671,48.3302 Z M70.496,12.8122 L-7.10542736e-15,8.1912 L2.893,28.6612 C4.74,23.0992 9.731,19.2842 19.088,19.2842 C22.186,19.2842 25.401,19.8322 27.007,20.2652 L27.007,28.6142 C25.988,28.3002 23.205,27.9092 20.814,27.9092 C16.66,27.9092 13.562,29.3982 13.562,34.2972 C13.562,39.7862 17.482,41.0002 21.323,41.0002 C23.363,41.0002 24.577,40.8832 27.007,40.2972 L27.007,48.4502 C24.224,49.2702 22.147,49.5462 18.815,49.5462 C12.001,49.5462 7.678,47.5812 5.123,44.4512 L8.192,66.1672 L54.252,56.6872 L70.496,12.8122 Z" id="Fill-4" fill="#B94700"></path>
        </g>
      </g>
    </g>
  </g>
</svg>
