<?xml version="1.0" encoding="utf-8"?><!DOCTYPE svg PUBLIC "-//W3C//DTD SVG 1.1//EN" "http://www.w3.org/Graphics/SVG/1.1/DTD/svg11.dtd"><svg version="1.1" id="Layer_1" xmlns="http://www.w3.org/2000/svg" xmlns:xlink="http://www.w3.org/1999/xlink" x="0px" y="0px" width="85px" height="25px" viewBox="0 0 85 25" enable-background="new 0 0 82 23" xml:space="preserve"><defs><style type="text/css"><![CDATA[ path { fill: #010101 } ]]></style></defs><polygon points="0,22.683 10,1.22 13.693,1.22 3.692,22.683"/><path d="M25.326,4.288c-0.338-0.093-0.83-0.155-1.199-0.155c-0.984,0-1.755,0.277-2.247,0.859 c-0.338,0.43-0.554,0.981-0.554,2.361v0.46h4.616v3.374l-4.616-0.002v11.499h-4v-11.5H13.48V7.812l3.846,0.001V7.199 c0-2.392,0.554-3.832,1.599-4.845c1.048-1.012,2.616-1.746,4.647-1.746c0.8,0,1.539,0.061,2.369,0.277L25.326,4.288z"/><path d="M35.501,7.509c4.522,0,7.937,3.466,7.937,7.759c0,4.295-3.415,7.728-7.937,7.726 c-4.524,0-7.938-3.434-7.938-7.728C27.564,10.973,30.978,7.508,35.501,7.509 M35.501,19.315c2.338,0,3.938-1.808,3.938-4.047 s-1.6-4.079-3.938-4.079c-2.339,0-3.938,1.84-3.938,4.078C31.563,17.504,33.162,19.315,35.501,19.315"/><path d="M55.613,11.346c-0.277-0.092-0.862-0.156-1.447-0.156c-1.753,0-3.139,1.258-3.631,2.148v9.352l-3.999-0.002 V7.817h3.846V9.32c0.891-1.104,2.522-1.807,4.337-1.807c0.585,0,0.924,0.061,1.354,0.121L55.613,11.346z"/><path d="M61.117,0c1.448,0,2.616,1.103,2.616,2.545c0,1.441-1.168,2.545-2.616,2.545 c-1.446,0-2.614-1.104-2.614-2.545C58.503,1.103,59.672,0,61.117,0 M63.118,22.691h-3.999V7.819h3.999V22.691z"/><path d="M74.062,7.514c4.523,0,7.938,3.467,7.938,7.76c0,4.293-3.415,7.727-7.938,7.726 c-4.523-0.001-7.939-3.436-7.939-7.729C66.123,10.979,69.539,7.514,74.062,7.514 M74.062,19.32c2.338,0,3.938-1.807,3.938-4.046 c0-2.24-1.6-4.08-3.938-4.081c-2.339,0-3.939,1.841-3.939,4.079C70.122,17.511,71.723,19.32,74.062,19.32"/></svg>