<?xml version="1.0" encoding="UTF-8" standalone="no"?>
<svg
   id="Group_221"
   data-name="Group 221"
   width="300"
   height="45.652252"
   viewBox="0 0 300.00001 45.652251"
   version="1.1"
   sodipodi:docname="juliahub-logo.svg"
   inkscape:version="1.1.2 (0a00cf5339, 2022-02-04)"
   xmlns:inkscape="http://www.inkscape.org/namespaces/inkscape"
   xmlns:sodipodi="http://sodipodi.sourceforge.net/DTD/sodipodi-0.dtd"
   xmlns="http://www.w3.org/2000/svg"
   xmlns:svg="http://www.w3.org/2000/svg">
  <defs
     id="defs24" />
  <sodipodi:namedview
     id="namedview22"
     pagecolor="#ffffff"
     bordercolor="#999999"
     borderopacity="1"
     inkscape:pageshadow="0"
     inkscape:pageopacity="0"
     inkscape:pagecheckerboard="0"
     showgrid="false"
     inkscape:zoom="5.6285751"
     inkscape:cx="98.337499"
     inkscape:cy="14.923848"
     inkscape:window-width="1920"
     inkscape:window-height="1011"
     inkscape:window-x="0"
     inkscape:window-y="359"
     inkscape:window-maximized="1"
     inkscape:current-layer="Group_221"
     fit-margin-top="0"
     fit-margin-left="0"
     fit-margin-right="0"
     fit-margin-bottom="0" />
  <g
     id="g858"
     transform="matrix(1.5212365,0,0,1.5212365,0,0.01210943)">
    <g
       id="Group_218"
       data-name="Group 218"
       transform="translate(0,0.054)">
      <g
         id="Group_217"
         data-name="Group 217">
        <path
           id="Path_63"
           data-name="Path 63"
           d="m -294.329,297.3 a 7.374,7.374 0 0 0 -7.932,6.77 7.373,7.373 0 0 0 6.769,7.93 7.374,7.374 0 0 0 7.933,-6.769 7.375,7.375 0 0 0 -6.77,-7.931 z m -0.81,10.239 a 2.9,2.9 0 0 1 -2.659,-3.116 2.9,2.9 0 0 1 3.116,-2.66 2.9,2.9 0 0 1 2.66,3.117 2.9,2.9 0 0 1 -3.117,2.654 z"
           transform="translate(309.205,-282.075)"
           fill="#9558b2" />
        <circle
           id="Ellipse_33"
           data-name="Ellipse 33"
           cx="2.8970001"
           cy="2.8970001"
           r="2.8970001"
           transform="translate(0,11.226)"
           fill="#cb3c33" />
        <circle
           id="Ellipse_34"
           data-name="Ellipse 34"
           cx="2.8970001"
           cy="2.8970001"
           r="2.8970001"
           transform="translate(44.611,11.226)"
           fill="#cb3c33" />
        <g
           id="Group_216"
           data-name="Group 216"
           transform="translate(20.926)">
          <g
             id="Group_215"
             data-name="Group 215">
            <path
               id="Path_64"
               data-name="Path 64"
               d="m -277.07,282.1 a 10.534,10.534 0 0 0 -11.187,9.838 10.533,10.533 0 0 0 9.838,11.187 10.535,10.535 0 0 0 11.187,-9.838 10.535,10.535 0 0 0 -9.838,-11.187 z m 4.844,10.867 a 5.53,5.53 0 0 1 -5.873,5.165 5.53,5.53 0 0 1 -5.165,-5.873 5.53,5.53 0 0 1 5.873,-5.165 5.529,5.529 0 0 1 5.165,5.87 z"
               transform="translate(288.279,-282.075)"
               fill="#4063d8" />
          </g>
        </g>
        <circle
           id="Ellipse_35"
           data-name="Ellipse 35"
           cx="5.5300002"
           cy="5.5300002"
           r="5.5300002"
           transform="translate(6.713,1.574)"
           fill="#3f982e" />
      </g>
    </g>
    <g
       id="Group_220"
       data-name="Group 220"
       transform="translate(52.856)"
       style="fill:#000000">
      <g
         id="Group_219"
         data-name="Group 219"
         style="fill:#000000">
        <path
           id="Path_65"
           data-name="Path 65"
           d="m -244.11,283.463 a 4.957,4.957 0 0 1 1.988,-0.273 5.708,5.708 0 0 1 1.988,0.273 v 20.343 c 0,5.3 -3.04,7.834 -7.522,7.834 a 15.3,15.3 0 0 1 -5.69,-1.169 4.005,4.005 0 0 1 1.052,-3 11.716,11.716 0 0 0 3.781,0.7 c 2.494,0 4.4,-1.052 4.4,-4.248 z"
           transform="translate(253.349,-282.021)"
           fill="#fff"
           style="fill:#000000" />
        <path
           id="Path_66"
           data-name="Path 66"
           d="m -234.445,291.023 a 5.6,5.6 0 0 1 1.949,-0.272 5.333,5.333 0 0 1 1.948,0.272 v 14.03 c 0,2.183 1.13,3.43 3.624,3.43 a 5.293,5.293 0 0 0 4.4,-2.494 v -14.966 a 5.87,5.87 0 0 1 1.948,-0.272 5.093,5.093 0 0 1 1.949,0.272 v 19.954 a 5.076,5.076 0 0 1 -1.949,0.273 5.851,5.851 0 0 1 -1.948,-0.273 v -1.792 a 7.608,7.608 0 0 1 -5.885,2.455 c -3.9,0 -6.041,-2.377 -6.041,-5.885 z"
           transform="translate(253.349,-282.021)"
           fill="#fff"
           style="fill:#000000" />
        <path
           id="Path_67"
           data-name="Path 67"
           d="m -208.919,310.977 a 5.579,5.579 0 0 1 -1.949,0.273 5.066,5.066 0 0 1 -1.948,-0.273 v -28.684 a 5.083,5.083 0 0 1 1.948,-0.272 5.6,5.6 0 0 1 1.949,0.272 z"
           transform="translate(253.349,-282.021)"
           fill="#fff"
           style="fill:#000000" />
        <path
           id="Path_68"
           data-name="Path 68"
           d="m -199.059,286.814 a 6.109,6.109 0 0 1 -2.027,0.273 5.56,5.56 0 0 1 -2.026,-0.273 v -3.663 a 5.56,5.56 0 0 1 2.026,-0.273 6.109,6.109 0 0 1 2.027,0.273 z m -0.078,24.163 a 5.586,5.586 0 0 1 -1.949,0.273 5.076,5.076 0 0 1 -1.949,-0.273 v -19.954 a 5.093,5.093 0 0 1 1.949,-0.272 5.6,5.6 0 0 1 1.949,0.272 z"
           transform="translate(253.349,-282.021)"
           fill="#fff"
           style="fill:#000000" />
        <path
           id="Path_69"
           data-name="Path 69"
           d="m -186.277,290.361 c 5.651,0 7.444,2.533 7.444,7.561 v 13.055 a 3.064,3.064 0 0 1 -1.52,0.273 3.991,3.991 0 0 1 -1.559,-0.273 l -0.585,-2.494 c -1.013,2.066 -3.156,3.157 -6.118,3.157 -3.663,0 -6.041,-2.143 -6.041,-6.508 0,-4.249 2.611,-6.119 7.483,-6.119 a 41.745,41.745 0 0 1 4.443,0.234 V 297.8 c 0,-2.65 -1.014,-4.17 -4.014,-4.17 a 16.234,16.234 0 0 0 -5.222,0.974 3.065,3.065 0 0 1 -0.9,-1.169 3.369,3.369 0 0 1 -0.234,-1.637 16.923,16.923 0 0 1 6.823,-1.437 z m -0.389,11.3 c -2.612,0 -3.976,1.013 -3.976,3.469 0,2.533 1.286,3.507 3.391,3.507 3.079,0 4.521,-2.611 4.521,-5.378 V 301.9 c -0.897,-0.081 -2.456,-0.237 -3.936,-0.237 z"
           transform="translate(253.349,-282.021)"
           fill="#fff"
           style="fill:#000000" />
        <path
           id="Path_70"
           data-name="Path 70"
           d="m -157.243,283.463 a 5.984,5.984 0 0 1 1.988,-0.273 5.984,5.984 0 0 1 1.988,0.273 v 27.514 a 5.586,5.586 0 0 1 -1.949,0.273 5.077,5.077 0 0 1 -2.027,-0.273 v -12.393 h -11.692 v 12.393 a 5.977,5.977 0 0 1 -1.988,0.273 5.187,5.187 0 0 1 -1.987,-0.273 v -27.514 a 5.586,5.586 0 0 1 1.949,-0.273 6.1,6.1 0 0 1 2.026,0.273 v 11.692 h 11.692 z"
           transform="translate(253.349,-282.021)"
           fill="#fff"
           style="fill:#000000" />
        <path
           id="Path_71"
           data-name="Path 71"
           d="m -147.345,291.023 a 5.6,5.6 0 0 1 1.948,-0.272 5.345,5.345 0 0 1 1.95,0.272 v 14.03 c 0,2.183 1.13,3.43 3.624,3.43 a 5.291,5.291 0 0 0 4.4,-2.494 v -14.966 a 5.873,5.873 0 0 1 1.949,-0.272 5.089,5.089 0 0 1 1.948,0.272 v 19.954 a 5.073,5.073 0 0 1 -1.948,0.273 5.854,5.854 0 0 1 -1.949,-0.273 v -1.792 a 7.609,7.609 0 0 1 -5.886,2.455 c -3.9,0 -6.04,-2.377 -6.04,-5.885 z"
           transform="translate(253.349,-282.021)"
           fill="#fff"
           style="fill:#000000" />
        <path
           id="Path_72"
           data-name="Path 72"
           d="m -121.936,292.894 c 1.091,-1.6 2.845,-2.533 5.612,-2.533 4.443,0 7.327,2.689 7.327,10.639 0,7.95 -2.884,10.64 -7.327,10.64 -2.767,0 -4.521,-0.935 -5.612,-2.533 v 1.87 a 5.709,5.709 0 0 1 -1.988,0.273 5.2,5.2 0 0 1 -1.909,-0.273 v -28.684 a 5.213,5.213 0 0 1 1.909,-0.272 5.728,5.728 0 0 1 1.988,0.272 z m 4.248,0.663 c -2.728,0 -4.248,2.26 -4.248,4.91 v 4.989 c 0,2.689 1.52,4.988 4.248,4.988 3.118,0 4.677,-1.637 4.677,-7.444 0,-5.807 -1.559,-7.443 -4.677,-7.443 z"
           transform="translate(253.349,-282.021)"
           fill="#fff"
           style="fill:#000000" />
      </g>
    </g>
  </g>
</svg>
