<?xml version="1.0" encoding="UTF-8" standalone="no"?>
<svg
   width="400"
   height="82.422974"
   viewBox="0 0 400 82.422974"
   fill="none"
   version="1.1"
   id="svg7"
   sodipodi:docname="BLACK.svg"
   xmlns:inkscape="http://www.inkscape.org/namespaces/inkscape"
   xmlns:sodipodi="http://sodipodi.sourceforge.net/DTD/sodipodi-0.dtd"
   xmlns="http://www.w3.org/2000/svg"
   xmlns:svg="http://www.w3.org/2000/svg">
  <defs
     id="defs7" />
  <sodipodi:namedview
     id="namedview7"
     pagecolor="#ffffff"
     bordercolor="#000000"
     borderopacity="0.25"
     inkscape:showpageshadow="2"
     inkscape:pageopacity="0.0"
     inkscape:pagecheckerboard="0"
     inkscape:deskcolor="#d1d1d1" />
  <rect
     width="1000"
     height="1000"
     fill="#ffffff"
     id="rect1"
     x="-300"
     y="-459" />
  <path
     fill-rule="evenodd"
     clip-rule="evenodd"
     d="m 61.457,0.42 c 4.488,0 8.634,2.394 10.878,6.28 l 16.299,28.231 c 2.244,3.886 2.244,8.674 0,12.56 L 72.335,75.723 c -2.244,3.886 -6.391,6.28 -10.878,6.28 H 28.86 c -4.488,0 -8.635,-2.394 -10.878,-6.28 L 1.683,47.491 c -2.244,-3.886 -2.244,-8.674 0,-12.56 L 17.982,6.7 C 20.225,2.814 24.372,0.42 28.86,0.42 Z m 5.887,14.29 c -0.63,-0.946 -1.813,-1.382 -2.918,-1.049 l -0.144,0.048 c -1.408,0.514 -2.091,2.12 -1.486,3.491 l 0.064,0.136 9.537,18.678 c 1.311,2.569 1.314,5.611 0.007,8.183 l -3.872,7.619 -0.138,0.252 c -1.5,2.534 -5.101,2.862 -7.024,0.555 l -0.802,-0.964 -0.193,-0.248 c -0.85,-1.185 -1.042,-2.722 -0.513,-4.081 l 0.124,-0.288 2.352,-4.94 c 0.521,-1.094 0.071,-2.404 -1.013,-2.946 l -0.208,-0.091 c -1.05,-0.399 -2.253,0.052 -2.771,1.076 l -4.363,8.621 -0.15,0.318 c -0.653,1.503 -0.666,3.209 -0.034,4.721 l 0.144,0.321 8.43,17.26 c 0.46,0.941 1.767,0.99 2.307,0.123 l 0.051,-0.087 14.986,-28.446 c 0.939,-1.783 0.923,-3.919 -0.042,-5.689 L 67.463,14.906 Z M 26.541,13.496 c -1.105,-0.333 -2.288,0.103 -2.918,1.049 l -0.119,0.196 -12.211,22.377 c -0.965,1.77 -0.981,3.905 -0.042,5.689 l 14.985,28.446 0.05,0.087 c 0.54,0.868 1.848,0.818 2.308,-0.123 l 8.43,-17.26 0.144,-0.321 C 37.8,52.124 37.787,50.418 37.134,48.915 L 36.985,48.597 32.621,39.976 C 32.103,38.952 30.9,38.501 29.85,38.9 l -0.208,0.091 c -1.084,0.542 -1.534,1.852 -1.014,2.946 l 2.353,4.94 0.124,0.288 c 0.529,1.359 0.336,2.896 -0.514,4.081 l -0.191,0.248 -0.803,0.964 c -1.923,2.307 -5.524,1.979 -7.024,-0.555 l -0.138,-0.252 -3.872,-7.62 c -1.307,-2.572 -1.304,-5.613 0.007,-8.182 l 9.537,-18.678 0.064,-0.136 c 0.605,-1.371 -0.079,-2.977 -1.487,-3.491 z m 13.25,18.563 c -1.477,0 -2.675,1.198 -2.675,2.675 0,1.477 1.198,2.673 2.675,2.673 1.477,0 2.674,-1.197 2.674,-2.673 0,-1.477 -1.197,-2.675 -2.674,-2.675 z m 11.496,0 c -1.477,0 -2.675,1.198 -2.675,2.675 10e-4,1.477 1.198,2.673 2.675,2.673 1.477,0 2.674,-1.197 2.674,-2.673 0,-1.477 -1.197,-2.675 -2.674,-2.675 z M 45.604,20.867 c -2.111,0 -3.821,1.711 -3.822,3.821 0,2.11 1.711,3.821 3.822,3.821 2.11,0 3.82,-1.711 3.82,-3.821 0,-2.11 -1.71,-3.82 -3.82,-3.821 z m -11.577,1.146 c -1.477,0 -2.674,1.198 -2.674,2.675 0,1.477 1.198,2.674 2.674,2.674 1.477,-10e-4 2.674,-1.197 2.674,-2.674 0,-1.477 -1.197,-2.675 -2.674,-2.675 z m 22.913,0 c -1.477,0 -2.675,1.198 -2.675,2.675 0,1.477 1.198,2.674 2.675,2.674 1.476,0 2.674,-1.197 2.674,-2.674 0,-1.477 -1.197,-2.675 -2.674,-2.675 z M 39.791,12.196 c -1.477,0 -2.675,1.197 -2.675,2.674 10e-4,1.477 1.198,2.674 2.675,2.674 1.477,0 2.674,-1.197 2.674,-2.674 0,-1.477 -1.197,-2.674 -2.674,-2.674 z m 11.496,0 c -1.477,0 -2.675,1.197 -2.675,2.674 10e-4,1.477 1.198,2.674 2.675,2.674 1.477,0 2.674,-1.197 2.674,-2.674 0,-1.477 -1.197,-2.674 -2.674,-2.674 z"
     fill="#000000"
     id="path1" />
  <path
     d="M 101.25,79.88 129.564,0 h 6.674 l 28.421,79.88 h -7.428 l -6.136,-17.655 c -1.184,-3.122 -3.122,-4.522 -6.352,-4.522 h -23.899 c -3.23,0 -5.275,1.4 -6.352,4.522 l -6.136,17.655 z m 40.909,-28.421 c 3.015,0 4.522,-2.153 3.553,-4.952 l -10.873,-31.22 c -0.861,-2.584 -3.445,-2.584 -4.306,0 l -10.766,31.22 c -0.969,2.799 0.646,4.952 3.553,4.952 z"
     fill="#000000"
     id="path2" />
  <path
     d="m 254.691,81.579 -0.517,0.004 c 0.325,0 0.647,-0.006 0.967,-0.015 -0.149,0.004 -0.3,0.009 -0.45,0.011 z m 2.376,-0.123 c -0.621,0.054 -1.249,0.092 -1.885,0.111 0.636,-0.019 1.264,-0.057 1.885,-0.111 z m -2.893,-57.738 c 5.364,0.001 10.153,1.242 14.391,3.707 4.25,2.473 7.608,5.869 10.084,10.203 l 0.006,0.008 0.006,0.01 c 2.543,4.239 3.821,8.985 3.821,14.26 0,5.271 -1.201,10.003 -3.59,14.22 l -0.235,0.407 -0.003,0.005 c -2.4,4.124 -5.631,7.445 -9.704,9.972 l -0.397,0.243 c -4.236,2.541 -9.021,3.82 -14.379,3.82 -5.272,0 -10.058,-1.276 -14.38,-3.82 -4.125,-2.476 -7.45,-5.784 -9.98,-9.936 l -0.242,-0.405 c -2.466,-4.32 -3.705,-9.147 -3.705,-14.506 0,-5.276 1.237,-10.022 3.7,-14.26 h 0.001 c 2.556,-4.26 5.958,-7.623 10.215,-10.099 l 0.005,-0.004 c 4.323,-2.548 9.111,-3.825 14.386,-3.825 z m 26.37,41.433 c -0.314,0.642 -0.653,1.274 -1.018,1.894 -2.563,4.405 -6.048,7.93 -10.453,10.573 -0.78,0.468 -1.579,0.893 -2.394,1.278 0.671,-0.317 1.332,-0.661 1.979,-1.034 l 0.415,-0.244 c 4.405,-2.643 7.89,-6.168 10.453,-10.573 0.365,-0.621 0.704,-1.252 1.018,-1.894 z M 254.174,29.75 c -4.089,0 -7.795,0.962 -11.087,2.903 -3.075,1.814 -5.527,4.262 -7.344,7.33 l -0.357,0.623 c -1.855,3.293 -2.767,7.07 -2.767,11.3 0,4.311 0.913,8.203 2.762,11.65 l 0.005,0.01 c 1.849,3.361 4.42,6.018 7.701,7.953 l 0.624,0.352 c 3.134,1.705 6.629,2.552 10.463,2.552 4.161,-0.001 7.867,-0.96 11.085,-2.905 l 10e-4,0.001 c 3.287,-1.938 5.858,-4.64 7.705,-8.082 v -10e-4 c 1.928,-3.443 2.884,-7.294 2.884,-11.53 0,-4.109 -0.899,-7.791 -2.723,-11.016 l -0.18,-0.31 c -1.848,-3.349 -4.414,-5.997 -7.687,-7.927 -3.218,-1.945 -6.924,-2.903 -11.085,-2.903 z m -1.689,43.601 c -0.155,-0.011 -0.309,-0.021 -0.462,-0.035 0.153,0.014 0.307,0.024 0.462,0.035 z m -0.59,-0.049 c -0.176,-0.017 -0.351,-0.034 -0.525,-0.055 0.174,0.021 0.349,0.038 0.525,0.055 z m -0.767,-0.087 c -0.158,-0.021 -0.316,-0.043 -0.472,-0.067 0.156,0.024 0.314,0.046 0.472,0.067 z m -0.667,-0.099 c -0.142,-0.023 -0.284,-0.047 -0.424,-0.073 0.14,0.026 0.282,0.05 0.424,0.073 z m -0.719,-0.131 c -0.132,-0.026 -0.263,-0.053 -0.394,-0.082 0.131,0.029 0.262,0.056 0.394,0.082 z m -0.617,-0.133 c -0.148,-0.034 -0.294,-0.07 -0.44,-0.107 0.146,0.037 0.292,0.073 0.44,0.107 z m -0.656,-0.164 c -0.136,-0.036 -0.272,-0.075 -0.407,-0.114 0.135,0.039 0.271,0.078 0.407,0.114 z M 247.811,72.5 c -0.13,-0.04 -0.259,-0.081 -0.388,-0.123 0.129,0.042 0.258,0.083 0.388,0.123 z m -0.612,-0.199 c -0.136,-0.046 -0.27,-0.094 -0.405,-0.143 0.135,0.049 0.269,0.097 0.405,0.143 z m -0.641,-0.23 c -0.12,-0.046 -0.238,-0.094 -0.357,-0.142 0.119,0.048 0.237,0.096 0.357,0.142 z m -0.607,-0.243 c -0.106,-0.045 -0.211,-0.091 -0.317,-0.138 0.106,0.047 0.211,0.093 0.317,0.138 z m -0.632,-0.279 c -0.093,-0.042 -0.184,-0.088 -0.275,-0.132 0.091,0.044 0.182,0.09 0.275,0.132 z m -0.561,-0.27 c -0.121,-0.061 -0.24,-0.124 -0.36,-0.188 0.12,0.064 0.239,0.127 0.36,0.188 z m 20.539,-0.967 c -0.181,0.115 -0.364,0.228 -0.549,0.337 0.185,-0.109 0.368,-0.222 0.549,-0.337 z m 0.53,-0.348 c -0.043,0.028 -0.086,0.056 -0.128,0.085 0.042,-0.029 0.085,-0.057 0.128,-0.085 z m 0.554,-0.391 c -0.085,0.062 -0.172,0.122 -0.258,0.184 0.086,-0.062 0.173,-0.122 0.258,-0.184 z m 0.513,-0.389 c -0.092,0.073 -0.186,0.143 -0.28,0.214 0.094,-0.071 0.188,-0.141 0.28,-0.214 z m 0.485,-0.394 c -0.076,0.064 -0.153,0.126 -0.23,0.189 0.077,-0.063 0.154,-0.125 0.23,-0.189 z m 0.483,-0.419 c -0.063,0.056 -0.126,0.112 -0.19,0.168 0.064,-0.056 0.127,-0.112 0.19,-0.168 z m -27.971,-0.53 h 0.001 z m 28.454,0.081 c -0.075,0.072 -0.15,0.143 -0.226,0.213 0.076,-0.07 0.151,-0.141 0.226,-0.213 z m 0.449,-0.449 c -0.069,0.072 -0.14,0.143 -0.21,0.214 0.07,-0.071 0.141,-0.142 0.21,-0.214 z m 0.42,-0.447 c -0.059,0.065 -0.118,0.13 -0.178,0.194 0.06,-0.064 0.119,-0.129 0.178,-0.194 z M 235.38,61.2 c 0.267,0.642 0.564,1.269 0.892,1.88 0.661,1.201 1.417,2.307 2.27,3.317 -0.853,-1.01 -1.61,-2.116 -2.271,-3.317 -0.328,-0.611 -0.624,-1.239 -0.891,-1.88 z m 34.27,5.333 c -0.055,0.065 -0.111,0.13 -0.167,0.194 0.056,-0.064 0.112,-0.129 0.167,-0.194 z m 0.409,-0.5 c -0.057,0.071 -0.112,0.143 -0.17,0.214 0.058,-0.071 0.113,-0.143 0.17,-0.214 z m 0.371,-0.484 c -0.044,0.06 -0.087,0.121 -0.132,0.18 0.045,-0.059 0.088,-0.12 0.132,-0.18 z m 2.268,-3.788 c -0.032,0.067 -0.066,0.133 -0.099,0.2 0.033,-0.067 0.067,-0.133 0.099,-0.2 z m -37.383,-0.722 c -0.061,-0.151 -0.122,-0.302 -0.18,-0.454 0.058,0.152 0.119,0.303 0.18,0.454 z m 37.923,-0.505 c -0.025,0.062 -0.052,0.124 -0.077,0.186 0.025,-0.062 0.052,-0.124 0.077,-0.186 z m -38.183,-0.167 c -0.052,-0.142 -0.104,-0.284 -0.153,-0.427 0.049,0.143 0.101,0.285 0.153,0.427 z m 38.438,-0.495 c -0.032,0.087 -0.065,0.173 -0.098,0.26 0.033,-0.087 0.066,-0.173 0.098,-0.26 z m -38.657,-0.129 c -0.051,-0.153 -0.101,-0.307 -0.149,-0.461 0.048,0.154 0.098,0.308 0.149,0.461 z m 38.866,-0.475 c -0.025,0.075 -0.05,0.15 -0.075,0.224 0.025,-0.074 0.05,-0.149 0.075,-0.224 z m -39.081,-0.207 c -0.042,-0.141 -0.083,-0.282 -0.122,-0.425 0.039,0.143 0.08,0.284 0.122,0.425 z M 273.9,58.636 c -0.018,0.059 -0.036,0.118 -0.054,0.177 0.018,-0.059 0.036,-0.118 0.054,-0.177 z m -39.47,-0.253 c -0.042,-0.158 -0.081,-0.318 -0.12,-0.479 0.039,0.161 0.078,0.321 0.12,0.479 z m 39.673,-0.479 c -0.023,0.089 -0.046,0.178 -0.07,0.267 0.024,-0.089 0.047,-0.178 0.07,-0.267 z m 9.213,-2.539 c -0.099,0.953 -0.239,1.888 -0.421,2.806 0.182,-0.918 0.322,-1.853 0.421,-2.806 z m -49.047,2.367 c -0.038,-0.162 -0.073,-0.325 -0.107,-0.489 0.034,0.164 0.069,0.327 0.107,0.489 z m 39.994,-0.489 c -0.024,0.107 -0.049,0.213 -0.075,0.319 0.026,-0.106 0.051,-0.212 0.075,-0.319 z m -40.144,-0.206 c -0.037,-0.181 -0.071,-0.363 -0.103,-0.546 0.032,0.183 0.066,0.365 0.103,0.546 z m 40.284,-0.459 c -0.02,0.104 -0.041,0.207 -0.063,0.31 0.022,-0.103 0.043,-0.206 0.063,-0.31 z m -40.414,-0.245 c -0.029,-0.169 -0.055,-0.339 -0.08,-0.509 0.025,0.17 0.051,0.34 0.08,0.509 z m 40.547,-0.507 c -0.019,0.118 -0.038,0.237 -0.059,0.354 0.021,-0.117 0.04,-0.236 0.059,-0.354 z m -40.659,-0.219 c -0.026,-0.181 -0.048,-0.364 -0.069,-0.547 0.021,0.183 0.043,0.366 0.069,0.547 z m 40.749,-0.403 c -0.013,0.098 -0.025,0.195 -0.04,0.293 0.015,-0.098 0.027,-0.195 0.04,-0.293 z m 8.21,-9.679 c 0.437,2.041 0.655,4.167 0.655,6.38 0,1.171 -0.059,2.319 -0.174,3.441 0.098,-0.954 0.155,-1.926 0.17,-2.916 l 0.004,-0.524 c 0,-2.043 -0.186,-4.012 -0.558,-5.908 z m -49.165,7.951 c 0.027,0.479 0.067,0.952 0.118,1.418 -0.051,-0.466 -0.091,-0.939 -0.118,-1.418 z m 41.047,0.919 c -0.014,0.143 -0.027,0.285 -0.044,0.426 0.017,-0.141 0.03,-0.283 0.044,-0.426 z m 0.052,-0.613 c -0.008,0.109 -0.014,0.218 -0.023,0.326 0.009,-0.108 0.015,-0.217 0.023,-0.326 z m -41.142,-1.877 c 0,0.518 0.013,1.03 0.041,1.534 -0.014,-0.251 -0.024,-0.503 -0.031,-0.758 l -0.01,-0.775 c 0,-0.244 0.003,-0.487 0.009,-0.728 -0.006,0.241 -0.009,0.483 -0.009,0.727 z m -8.767,0.521 c -0.003,-0.173 -0.004,-0.347 -0.004,-0.521 v 10e-4 l 0.004,0.517 c 0,10e-4 0,0.002 0,0.003 z m 8.79,-1.593 c 0.005,-0.129 0.009,-0.258 0.016,-0.386 -0.007,0.128 -0.011,0.257 -0.016,0.386 z m 41.148,-0.376 c 0.007,0.113 0.01,0.227 0.015,0.342 -0.005,-0.115 -0.008,-0.229 -0.015,-0.342 z m -41.114,-0.285 c 0.01,-0.155 0.02,-0.31 0.032,-0.463 -0.012,0.153 -0.022,0.308 -0.032,0.463 z m 41.063,-0.439 c 0.009,0.116 0.018,0.232 0.026,0.349 -0.008,-0.117 -0.017,-0.233 -0.026,-0.349 z m -41,-0.343 c 0.012,-0.134 0.025,-0.268 0.04,-0.401 -0.015,0.133 -0.028,0.267 -0.04,0.401 z m 40.93,-0.353 c 0.013,0.114 0.024,0.229 0.035,0.345 -0.011,-0.116 -0.022,-0.231 -0.035,-0.345 z m -40.859,-0.306 c 0.017,-0.137 0.034,-0.273 0.053,-0.409 -0.019,0.136 -0.036,0.272 -0.053,0.409 z m 40.768,-0.388 c 0.016,0.109 0.03,0.218 0.044,0.327 -0.014,-0.109 -0.028,-0.218 -0.044,-0.327 z M 233.915,48.04 c 0.023,-0.154 0.048,-0.308 0.075,-0.46 -0.027,0.152 -0.052,0.306 -0.075,0.46 z m 40.559,-0.392 c 0.02,0.11 0.038,0.22 0.056,0.331 -0.018,-0.111 -0.036,-0.221 -0.056,-0.331 z m -40.44,-0.308 c 0.025,-0.135 0.05,-0.268 0.077,-0.401 -0.027,0.133 -0.052,0.266 -0.077,0.401 z m 40.303,-0.39 c 0.028,0.128 0.054,0.256 0.079,0.386 -0.025,-0.13 -0.051,-0.258 -0.079,-0.386 z m -40.174,-0.257 c 0.033,-0.152 0.067,-0.303 0.103,-0.453 -0.036,0.15 -0.07,0.301 -0.103,0.453 z m 40.019,-0.413 c 0.032,0.13 0.064,0.26 0.094,0.392 -0.03,-0.132 -0.062,-0.262 -0.094,-0.392 z m -39.87,-0.231 c 0.037,-0.15 0.077,-0.299 0.117,-0.448 -0.04,0.149 -0.08,0.298 -0.117,0.448 z m 39.707,-0.387 c 0.032,0.111 0.062,0.223 0.092,0.336 -0.03,-0.113 -0.06,-0.225 -0.092,-0.336 z M 234.49,45.38 c 0.045,-0.158 0.092,-0.315 0.14,-0.471 -0.048,0.156 -0.095,0.313 -0.14,0.471 z m 39.347,-0.325 c 0.028,0.086 0.056,0.172 0.082,0.258 -0.026,-0.086 -0.054,-0.172 -0.082,-0.258 z M 234.676,44.76 c 0.051,-0.158 0.104,-0.316 0.159,-0.472 -0.055,0.156 -0.108,0.314 -0.159,0.472 z m 38.933,-0.385 c 0.037,0.104 0.075,0.209 0.11,0.315 -0.035,-0.106 -0.073,-0.211 -0.11,-0.315 z m 7.652,-3.846 c 0.434,1.021 0.804,2.066 1.112,3.137 l 0.127,0.46 c -0.331,-1.232 -0.744,-2.431 -1.24,-3.598 z m -46.363,3.575 c 0.056,-0.156 0.114,-0.311 0.174,-0.465 -0.06,0.154 -0.118,0.309 -0.174,0.465 z m 38.442,-0.438 c 0.057,0.14 0.111,0.28 0.164,0.422 -0.053,-0.142 -0.107,-0.282 -0.164,-0.422 z m -36.732,-3.165 c -0.115,0.194 -0.226,0.391 -0.336,0.59 -0.436,0.773 -0.818,1.575 -1.146,2.407 0.245,-0.621 0.519,-1.226 0.825,-1.815 l 0.32,-0.591 c 0.11,-0.199 0.222,-0.397 0.337,-0.591 z m 36.461,2.522 c 0.065,0.147 0.13,0.294 0.191,0.443 -0.061,-0.149 -0.126,-0.296 -0.191,-0.443 z m -0.327,-0.7 c 0.09,0.182 0.177,0.366 0.261,0.551 -0.084,-0.185 -0.171,-0.369 -0.261,-0.551 z m 7.028,-4.781 c 0.4,0.693 0.768,1.399 1.104,2.118 l 0.197,0.432 c -0.129,-0.289 -0.264,-0.576 -0.403,-0.862 -0.21,-0.428 -0.43,-0.852 -0.663,-1.271 -0.077,-0.14 -0.156,-0.279 -0.236,-0.418 z m -42.745,2.287 c 0.093,-0.144 0.186,-0.286 0.281,-0.427 -0.095,0.141 -0.188,0.283 -0.281,0.427 z m 0.44,-0.653 c 0.074,-0.105 0.147,-0.211 0.223,-0.315 -0.076,0.104 -0.149,0.21 -0.223,0.315 z m 0.338,-0.468 c 0.097,-0.13 0.195,-0.258 0.294,-0.385 -0.099,0.127 -0.197,0.255 -0.294,0.385 z m 32.523,-0.287 c 0.025,0.032 0.05,0.065 0.075,0.097 -0.025,-0.032 -0.05,-0.065 -0.075,-0.097 z M 238.195,38.2 c 0.096,-0.121 0.193,-0.241 0.292,-0.359 -0.099,0.118 -0.196,0.238 -0.292,0.359 z m 31.731,-0.279 c 0.034,0.041 0.068,0.082 0.102,0.124 -0.034,-0.042 -0.068,-0.083 -0.102,-0.124 z m -31.273,-0.275 c 0.079,-0.092 0.158,-0.185 0.239,-0.275 -0.081,0.09 -0.16,0.183 -0.239,0.275 z m 30.833,-0.239 c 0.054,0.061 0.108,0.123 0.162,0.185 -0.054,-0.062 -0.108,-0.124 -0.162,-0.185 z m -30.414,-0.234 c 0.087,-0.095 0.175,-0.188 0.264,-0.281 -0.089,0.093 -0.177,0.186 -0.264,0.281 z m 29.971,-0.249 c 0.063,0.067 0.126,0.135 0.189,0.203 -0.063,-0.068 -0.126,-0.136 -0.189,-0.203 z m 8.944,-2.219 c 0.363,0.515 0.713,1.046 1.048,1.592 l 0.248,0.412 c -0.328,-0.553 -0.67,-1.091 -1.027,-1.615 z m -38.474,2.004 c 0.101,-0.104 0.203,-0.206 0.307,-0.307 -0.104,0.101 -0.206,0.203 -0.307,0.307 z m 29.08,-0.241 c 0.074,0.073 0.147,0.145 0.219,0.218 -0.072,-0.073 -0.145,-0.145 -0.219,-0.218 z m -28.656,-0.179 c 0.117,-0.112 0.235,-0.222 0.355,-0.33 -0.12,0.108 -0.238,0.218 -0.355,0.33 z m 28.197,-0.258 c 0.076,0.07 0.152,0.141 0.227,0.212 -0.075,-0.071 -0.151,-0.142 -0.227,-0.212 z m -27.714,-0.19 c 0.113,-0.1 0.227,-0.199 0.342,-0.297 -0.115,0.098 -0.229,0.197 -0.342,0.297 z m 27.258,-0.216 c 0.069,0.059 0.137,0.118 0.204,0.177 -0.067,-0.059 -0.135,-0.118 -0.204,-0.177 z M 240.919,35.41 c 0.128,-0.107 0.258,-0.212 0.389,-0.316 -0.131,0.104 -0.261,0.209 -0.389,0.316 z m 26.238,-0.221 c 0.078,0.063 0.157,0.126 0.234,0.191 -0.077,-0.065 -0.156,-0.128 -0.234,-0.191 z m -25.748,-0.176 c 0.138,-0.107 0.278,-0.213 0.419,-0.317 -0.141,0.104 -0.281,0.21 -0.419,0.317 z m 25.235,-0.222 c 0.092,0.069 0.184,0.137 0.275,0.208 -0.091,-0.071 -0.183,-0.139 -0.275,-0.208 z m -24.709,-0.175 c 0.138,-0.101 0.279,-0.199 0.42,-0.297 -0.141,0.098 -0.282,0.196 -0.42,0.297 z m 24.326,-0.107 c 0.039,0.028 0.078,0.054 0.117,0.082 -0.039,-0.028 -0.078,-0.054 -0.117,-0.082 z m 9.251,-2.846 c 0.676,0.722 1.316,1.482 1.919,2.28 -0.603,-0.798 -1.243,-1.558 -1.919,-2.28 z m -32.489,2.213 c -0.185,0.117 -0.367,0.237 -0.547,0.359 0.007,-0.004 0.013,-0.009 0.02,-0.014 z m 21.173,-0.675 c 0.121,0.067 0.239,0.139 0.358,0.209 -0.119,-0.07 -0.237,-0.142 -0.358,-0.209 z m -0.576,-0.307 c 0.107,0.055 0.213,0.112 0.319,0.169 -0.106,-0.057 -0.212,-0.114 -0.319,-0.169 z m -0.579,-0.284 c 0.116,0.055 0.232,0.112 0.347,0.169 -0.115,-0.057 -0.231,-0.114 -0.347,-0.169 z m -0.587,-0.263 c 0.105,0.045 0.209,0.092 0.313,0.139 -0.104,-0.047 -0.208,-0.094 -0.313,-0.139 z m -0.599,-0.242 c 0.102,0.04 0.203,0.081 0.305,0.122 -0.102,-0.041 -0.203,-0.082 -0.305,-0.122 z m -0.633,-0.23 c 0.119,0.041 0.236,0.083 0.354,0.126 -0.118,-0.043 -0.235,-0.085 -0.354,-0.126 z M 260.6,31.673 c 0.122,0.037 0.242,0.075 0.362,0.115 -0.12,-0.04 -0.24,-0.078 -0.362,-0.115 z m -0.637,-0.184 c 0.124,0.033 0.247,0.068 0.37,0.103 -0.123,-0.035 -0.246,-0.07 -0.37,-0.103 z m -0.669,-0.168 c 0.137,0.032 0.273,0.065 0.408,0.1 -0.135,-0.035 -0.271,-0.068 -0.408,-0.1 z m -0.656,-0.141 c 0.14,0.028 0.278,0.056 0.416,0.086 -0.138,-0.03 -0.276,-0.058 -0.416,-0.086 z m 13.933,-2.236 c 0.85,0.679 1.657,1.404 2.419,2.175 -0.762,-0.771 -1.569,-1.496 -2.419,-2.175 z m -20.563,1.911 c -0.471,0.043 -0.937,0.102 -1.396,0.174 l -0.685,0.118 c 0.68,-0.129 1.374,-0.227 2.081,-0.292 z m 5.902,0.194 c 0.162,0.027 0.324,0.054 0.485,0.084 -0.161,-0.03 -0.323,-0.057 -0.485,-0.084 z m -0.633,-0.091 c 0.156,0.02 0.311,0.041 0.465,0.064 -0.154,-0.023 -0.309,-0.044 -0.465,-0.064 z m -0.782,-0.09 c 0.175,0.017 0.35,0.035 0.523,0.056 -0.173,-0.021 -0.348,-0.039 -0.523,-0.056 z m -0.742,-0.06 c 0.204,0.013 0.407,0.028 0.608,0.046 -0.201,-0.018 -0.404,-0.033 -0.608,-0.046 z m 13.73,-4.011 c 0.544,0.328 1.073,0.67 1.588,1.028 h -0.001 c -0.129,-0.09 -0.258,-0.178 -0.389,-0.266 -0.261,-0.175 -0.526,-0.346 -0.794,-0.513 z m -1.61,-0.903 c 0.264,0.137 0.526,0.278 0.786,0.423 l 0.414,0.236 c -0.396,-0.23 -0.796,-0.449 -1.2,-0.659 z m -11.185,-3.095 c 0.62,0.046 1.231,0.11 1.836,0.19 -0.605,-0.08 -1.216,-0.144 -1.836,-0.19 z m 24.286,41.437 c -0.043,0.098 -0.087,0.196 -0.132,0.293 0.045,-0.097 0.089,-0.195 0.132,-0.293 z m -0.192,0.422 c -0.047,0.099 -0.093,0.198 -0.141,0.297 0.048,-0.099 0.094,-0.198 0.141,-0.297 z m 0.597,-1.374 c -0.052,0.131 -0.107,0.261 -0.162,0.391 0.055,-0.13 0.11,-0.26 0.162,-0.391 z m 0.473,-1.263 c -0.04,0.117 -0.082,0.233 -0.124,0.349 0.042,-0.116 0.084,-0.232 0.124,-0.349 z m 0.437,-1.367 c -0.034,0.117 -0.069,0.233 -0.105,0.349 0.036,-0.116 0.071,-0.232 0.105,-0.349 z m -0.147,0.484 c -0.036,0.116 -0.072,0.231 -0.109,0.346 0.037,-0.115 0.073,-0.23 0.109,-0.346 z m 0.399,-1.407 c -0.033,0.128 -0.067,0.256 -0.101,0.384 0.034,-0.128 0.068,-0.256 0.101,-0.384 z m -57.656,-6.422 c -0.011,-0.292 -0.02,-0.587 -0.024,-0.883 0.004,0.296 0.013,0.59 0.024,0.883 z m 11.777,-12.895 c 0.096,-0.16 0.192,-0.319 0.292,-0.476 -0.1,0.157 -0.196,0.316 -0.292,0.476 z m 0,0 c -0.018,0.029 -0.037,0.057 -0.054,0.087 0.017,-0.03 0.036,-0.058 0.054,-0.087 z m 35.75,1.269 c 0.106,0.197 0.209,0.395 0.308,0.595 -0.099,-0.2 -0.202,-0.398 -0.308,-0.595 z m -4.868,-15.957 c 0.104,0.053 0.208,0.106 0.312,0.159 -0.104,-0.053 -0.208,-0.106 -0.312,-0.159 z"
     fill="#000000"
     id="path3" />
  <path
     d="m 290.804,10.873 c 0,-2.584 -1.938,-4.521 -4.522,-4.521 h -6.998 V 0 h 18.409 v 79.665 h -6.889 z"
     fill="#000000"
     id="path4" />
  <path
     d="m 382.766,81.583 c -8.305,0 -16.922,-3.945 -19.517,-12.977 h 6.956 c 1.868,4.256 6.644,7.163 12.354,7.163 6.436,0 11.004,-4.049 11.004,-9.551 0,-5.606 -3.426,-8.098 -8.928,-9.863 l -7.267,-2.284 c -7.683,-2.387 -12.873,-7.163 -12.873,-15.261 0,-8.72 7.89,-15.26 17.025,-15.26 6.852,0 14.846,3.114 17.338,12.977 h -6.541 c -1.557,-4.361 -5.606,-7.164 -10.797,-7.164 -6.125,0 -10.589,4.049 -10.589,9.136 0,4.36 2.492,7.475 8.513,9.447 l 7.267,2.284 C 394.29,52.618 400,56.978 400,65.803 c 0,9.239 -7.683,15.78 -17.234,15.78 z"
     fill="#000000"
     id="path5" />
  <path
     d="m 333.622,82.387 c -0.466,0.022 -0.938,0.036 -1.416,0.036 -0.47,0 -0.936,-0.014 -1.396,-0.036 0.46,0.022 0.926,0.036 1.396,0.036 0.478,0 0.95,-0.014 1.416,-0.036 z m -17.8,-57.828 v 32.107 c 0,3.631 0.626,6.848 1.91,9.623 l 0.005,0.011 0.005,0.012 c 1.369,2.774 3.308,4.964 5.815,6.541 2.519,1.584 5.414,2.361 8.649,2.361 5.013,0 9.061,-1.691 12.024,-5.133 3.019,-3.415 4.481,-7.922 4.481,-13.415 V 24.559 h 6.455 v 32.476 c 0,4.697 -0.919,8.832 -2.732,12.43 l -0.178,0.347 c -1.872,3.566 -4.46,6.346 -7.768,8.359 l -0.323,0.193 c -3.46,2.025 -7.436,3.05 -11.959,3.05 -4.434,0 -8.367,-1.021 -11.828,-3.044 -3.476,-2.115 -6.217,-4.967 -8.23,-8.573 -1.923,-3.588 -2.903,-7.831 -2.903,-12.762 V 24.559 Z m 15.273,49.613 c 0.365,0.022 0.735,0.034 1.111,0.034 v 0 c -0.191,0 -0.382,-0.004 -0.571,-0.009 -0.181,-0.006 -0.361,-0.014 -0.54,-0.025 z m 2.401,-0.008 c -0.241,0.016 -0.484,0.027 -0.731,0.034 0.247,-0.007 0.49,-0.018 0.731,-0.034 z m -2.71,-0.015 c -0.072,-0.006 -0.144,-0.01 -0.216,-0.017 0.072,0.007 0.144,0.011 0.216,0.017 z m 3.528,-0.055 c -0.063,0.007 -0.126,0.012 -0.19,0.019 0.064,-0.007 0.127,-0.012 0.19,-0.019 z m -4.017,0.009 c -0.092,-0.01 -0.185,-0.019 -0.276,-0.03 0.091,0.011 0.184,0.02 0.276,0.03 z m 4.464,-0.064 c -0.08,0.011 -0.161,0.021 -0.241,0.031 0.08,-0.01 0.161,-0.02 0.241,-0.031 z m -4.998,-0.001 c -0.082,-0.012 -0.163,-0.023 -0.244,-0.036 0.081,0.013 0.162,0.024 0.244,0.036 z m 5.402,-0.058 c -0.109,0.017 -0.22,0.033 -0.331,0.049 0.111,-0.016 0.222,-0.032 0.331,-0.049 z m 0.386,-0.067 c -0.094,0.017 -0.189,0.033 -0.284,0.049 0.095,-0.016 0.19,-0.032 0.284,-0.049 z m -6.282,0.046 c -0.104,-0.017 -0.206,-0.035 -0.309,-0.055 0.103,0.02 0.205,0.038 0.309,0.055 z m 6.669,-0.123 c -0.083,0.018 -0.167,0.034 -0.25,0.05 0.083,-0.016 0.167,-0.032 0.25,-0.05 z m -7.133,0.036 c -0.106,-0.021 -0.212,-0.044 -0.317,-0.068 0.105,0.024 0.211,0.047 0.317,0.068 z m 7.532,-0.125 c -0.086,0.02 -0.173,0.04 -0.26,0.059 0.087,-0.019 0.174,-0.039 0.26,-0.059 z m -8.109,-0.004 c -0.077,-0.019 -0.153,-0.039 -0.23,-0.059 0.077,0.02 0.153,0.04 0.23,0.059 z m 8.437,-0.079 c -0.054,0.015 -0.108,0.028 -0.163,0.042 0.055,-0.014 0.109,-0.027 0.163,-0.042 z m -8.921,-0.049 c -0.079,-0.023 -0.158,-0.046 -0.237,-0.07 0.079,0.024 0.158,0.047 0.237,0.07 z m 9.379,-0.078 c -0.08,0.024 -0.161,0.046 -0.243,0.069 0.082,-0.023 0.163,-0.045 0.243,-0.069 z m 0.34,-0.107 c -0.097,0.032 -0.195,0.062 -0.294,0.092 0.099,-0.03 0.197,-0.06 0.294,-0.092 z m -10.19,0.043 c -0.094,-0.03 -0.186,-0.061 -0.279,-0.093 0.093,0.032 0.185,0.063 0.279,0.093 z m 10.538,-0.161 c -0.078,0.027 -0.156,0.055 -0.235,0.081 0.079,-0.026 0.157,-0.054 0.235,-0.081 z m -11.007,0.002 c -0.09,-0.032 -0.179,-0.066 -0.269,-0.1 0.09,0.034 0.179,0.068 0.269,0.1 z m 11.326,-0.119 c -0.048,0.018 -0.097,0.036 -0.145,0.054 0.048,-0.018 0.097,-0.036 0.145,-0.054 z m -11.816,-0.067 c -0.07,-0.028 -0.14,-0.057 -0.209,-0.087 0.069,0.03 0.139,0.059 0.209,0.087 z m 12.173,-0.076 c -0.049,0.02 -0.097,0.04 -0.145,0.06 0.048,-0.02 0.096,-0.04 0.145,-0.06 z m 0.364,-0.157 c -0.056,0.025 -0.111,0.049 -0.167,0.073 0.056,-0.024 0.111,-0.048 0.167,-0.073 z m -13.018,0.03 c -0.064,-0.028 -0.127,-0.058 -0.19,-0.088 0.063,0.03 0.126,0.06 0.19,0.088 z m 13.411,-0.216 c -0.082,0.041 -0.165,0.081 -0.249,0.12 0.084,-0.039 0.167,-0.079 0.249,-0.12 z m -13.839,0.017 c -0.137,-0.067 -0.273,-0.136 -0.408,-0.207 0.135,0.071 0.271,0.14 0.408,0.207 z m 14.165,-0.182 c -0.086,0.045 -0.172,0.09 -0.259,0.133 0.087,-0.043 0.173,-0.088 0.259,-0.133 z m -15.475,-0.546 c 0.29,0.183 0.586,0.353 0.888,0.513 -0.159,-0.084 -0.317,-0.171 -0.473,-0.262 z m 15.814,0.363 c -0.085,0.048 -0.171,0.094 -0.257,0.14 0.086,-0.046 0.172,-0.092 0.257,-0.14 z m 0.286,-0.167 c -0.066,0.039 -0.132,0.079 -0.199,0.117 0.067,-0.038 0.133,-0.078 0.199,-0.117 z m 0.349,-0.216 c -0.076,0.049 -0.153,0.097 -0.23,0.144 0.077,-0.047 0.154,-0.095 0.23,-0.144 z m 0.287,-0.19 c -0.07,0.048 -0.141,0.095 -0.213,0.141 0.072,-0.046 0.143,-0.093 0.213,-0.141 z m 0.303,-0.214 c -0.064,0.046 -0.128,0.093 -0.193,0.138 0.065,-0.045 0.129,-0.092 0.193,-0.138 z m 0.611,-0.471 c -0.071,0.059 -0.143,0.117 -0.215,0.174 0.072,-0.057 0.144,-0.115 0.215,-0.174 z m 0.374,-0.317 c 0.271,-0.239 0.534,-0.49 0.789,-0.754 -0.255,0.264 -0.518,0.515 -0.789,0.754 z m -30.857,-0.505 h 10e-4 z m 32.704,-1.456 c -0.162,0.203 -0.328,0.402 -0.501,0.597 0.173,-0.195 0.339,-0.394 0.501,-0.597 z m 0.925,-1.289 c -0.04,0.061 -0.08,0.123 -0.12,0.184 0.04,-0.061 0.08,-0.123 0.12,-0.184 z m 0.607,-1.033 c -0.043,0.08 -0.086,0.16 -0.131,0.239 0.045,-0.079 0.088,-0.159 0.131,-0.239 z m 0.173,-0.328 c -0.036,0.072 -0.074,0.142 -0.111,0.213 0.037,-0.071 0.075,-0.141 0.111,-0.213 z m 0.169,-0.344 c -0.016,0.035 -0.032,0.069 -0.049,0.103 0.017,-0.034 0.033,-0.068 0.049,-0.103 z m 0.179,-0.383 c -0.03,0.066 -0.061,0.131 -0.091,0.197 0.03,-0.066 0.061,-0.131 0.091,-0.197 z m 0.162,-0.377 c -0.031,0.073 -0.061,0.146 -0.093,0.218 0.032,-0.072 0.062,-0.145 0.093,-0.218 z m -27.957,-0.202 c -0.06,-0.155 -0.118,-0.31 -0.174,-0.467 0.056,0.157 0.114,0.312 0.174,0.467 z m 28.104,-0.161 c -0.026,0.067 -0.052,0.134 -0.079,0.2 0.027,-0.066 0.053,-0.133 0.079,-0.2 z m 0.137,-0.362 c -0.016,0.045 -0.033,0.089 -0.05,0.134 0.017,-0.045 0.034,-0.089 0.05,-0.134 z m 0.15,-0.427 c -0.025,0.076 -0.051,0.15 -0.078,0.225 0.027,-0.075 0.053,-0.149 0.078,-0.225 z m -28.66,0.206 c -0.027,-0.079 -0.054,-0.159 -0.08,-0.239 0.026,0.08 0.053,0.16 0.08,0.239 z m 28.778,-0.566 c -0.017,0.053 -0.034,0.106 -0.051,0.159 0.017,-0.053 0.034,-0.106 0.051,-0.159 z m -28.959,0 c -0.018,-0.06 -0.037,-0.119 -0.055,-0.18 0.018,0.061 0.037,0.12 0.055,0.18 z m 29.092,-0.444 c -0.023,0.08 -0.047,0.161 -0.071,0.241 0.024,-0.08 0.048,-0.161 0.071,-0.241 z m -29.227,-0.021 c -0.023,-0.081 -0.045,-0.162 -0.066,-0.244 0.021,0.082 0.043,0.163 0.066,0.244 z m 29.33,-0.354 c -0.017,0.066 -0.036,0.131 -0.054,0.197 0.018,-0.066 0.037,-0.131 0.054,-0.197 z m -29.473,-0.19 c -0.021,-0.085 -0.041,-0.171 -0.061,-0.257 0.02,0.086 0.04,0.172 0.061,0.257 z m 29.586,-0.257 c -0.02,0.086 -0.042,0.171 -0.063,0.256 0.021,-0.085 0.043,-0.17 0.063,-0.256 z m 0.093,-0.404 c -0.018,0.085 -0.038,0.17 -0.058,0.254 0.02,-0.084 0.04,-0.169 0.058,-0.254 z m -29.804,0.125 c -0.018,-0.085 -0.036,-0.171 -0.053,-0.257 0.017,0.086 0.035,0.172 0.053,0.257 z m -0.114,-0.561 c -0.016,-0.087 -0.031,-0.174 -0.047,-0.261 0.016,0.087 0.031,0.174 0.047,0.261 z m 30.087,-0.43 c -0.014,0.078 -0.028,0.156 -0.042,0.234 0.014,-0.078 0.028,-0.156 0.042,-0.234 z m -30.186,-0.128 c -0.016,-0.098 -0.031,-0.197 -0.045,-0.296 0.014,0.099 0.029,0.198 0.045,0.296 z m 30.26,-0.33 c -0.012,0.079 -0.023,0.158 -0.036,0.237 0.013,-0.079 0.024,-0.158 0.036,-0.237 z m 0.064,-0.437 c -0.013,0.098 -0.027,0.196 -0.041,0.293 0.014,-0.097 0.028,-0.195 0.041,-0.293 z m -30.41,0.194 c -0.015,-0.109 -0.029,-0.219 -0.042,-0.328 0.013,0.109 0.027,0.219 0.042,0.328 z m 30.459,-0.586 c -0.009,0.076 -0.018,0.152 -0.028,0.227 0.01,-0.075 0.019,-0.151 0.028,-0.227 z m -30.529,0.038 c -0.012,-0.107 -0.022,-0.215 -0.033,-0.322 0.011,0.107 0.021,0.215 0.033,0.322 z m -0.111,-1.234 c -0.009,-0.135 -0.015,-0.27 -0.022,-0.407 0.007,0.137 0.013,0.272 0.022,0.407 z m 30.793,-0.856 c -0.005,0.151 -0.012,0.3 -0.02,0.449 0.008,-0.149 0.015,-0.298 0.02,-0.449 z m -13.753,16.448 c -0.136,0.012 -0.273,0.022 -0.411,0.031 0.138,-0.009 0.275,-0.019 0.411,-0.031 z m 7.584,-2.843 c -0.098,0.077 -0.197,0.151 -0.297,0.224 0.1,-0.073 0.199,-0.147 0.297,-0.224 z m 0.567,-0.471 c -0.083,0.073 -0.166,0.145 -0.251,0.216 0.085,-0.071 0.168,-0.143 0.251,-0.216 z m 2.587,-2.945 c -0.051,0.076 -0.104,0.15 -0.157,0.224 0.053,-0.074 0.106,-0.148 0.157,-0.224 z m -0.227,0.324 c -0.07,0.097 -0.141,0.194 -0.213,0.29 0.072,-0.096 0.143,-0.193 0.213,-0.29 z m -0.231,0.313 c -0.065,0.086 -0.131,0.171 -0.198,0.255 0.067,-0.084 0.133,-0.169 0.198,-0.255 z m 1.085,-1.641 c -0.052,0.091 -0.106,0.182 -0.16,0.272 0.054,-0.09 0.108,-0.181 0.16,-0.272 z m -0.194,0.329 c -0.064,0.105 -0.129,0.209 -0.195,0.312 0.066,-0.103 0.131,-0.207 0.195,-0.312 z m -26.736,-1.979 c -0.048,-0.116 -0.096,-0.232 -0.142,-0.35 0.046,0.118 0.094,0.234 0.142,0.35 z"
     fill="#000000"
     id="path6" />
  <path
     d="m 194.988,81.707 v 0.001 c -0.177,0 -0.354,-0.002 -0.53,-0.004 v -10e-4 c 0.176,0.002 0.353,0.004 0.53,0.004 z M 194.27,23.91 c 4.974,0 9.33,1.126 13.094,3.354 l 0.006,0.002 c 3.852,2.234 6.854,5.351 9.016,9.366 l 0.005,0.008 0.005,0.008 c 2.231,3.925 3.36,8.486 3.36,13.706 0,0.604 -0.037,1.333 -0.115,2.19 -0.06,0.599 -0.17,1.303 -0.329,2.115 h -46.371 l 0.114,0.941 c 0.363,2.998 1.201,5.733 2.522,8.195 l 0.005,0.008 0.003,0.006 c 1.908,3.401 4.529,6.065 7.854,7.977 l 0.009,0.004 c 3.411,1.914 7.305,2.86 11.659,2.86 3.53,0 6.793,-0.616 9.778,-1.859 l 0.019,-0.009 c 2.708,-1.204 5.043,-2.922 7.002,-5.144 l 4.196,4.289 c -2.456,2.735 -5.455,4.901 -9.006,6.497 -3.716,1.625 -7.749,2.442 -12.108,2.442 -5.361,0 -10.145,-1.169 -14.373,-3.49 l -0.408,-0.228 c -4.339,-2.479 -7.785,-5.886 -10.344,-10.228 -2.471,-4.328 -3.712,-9.205 -3.712,-14.652 0,-5.369 1.244,-10.167 3.715,-14.416 l 0.002,-0.005 0.237,-0.405 c 2.456,-4.148 5.743,-7.416 9.868,-9.816 4.25,-2.473 9.01,-3.716 14.297,-3.716 z m -17.95,39.487 c 0.443,0.791 0.928,1.54 1.451,2.247 -0.253,-0.341 -0.498,-0.692 -0.733,-1.053 -0.25,-0.387 -0.49,-0.785 -0.719,-1.194 z m 18.288,-33.54 c -10.947,0 -18.445,7.101 -20.678,17.426 -0.217,1.004 0.574,1.919 1.601,1.919 h 36.739 c 0.929,0 1.689,-0.757 1.627,-1.684 -0.714,-10.67 -8.247,-17.661 -19.289,-17.661 z m 22.089,5.609 c 0.146,0.252 0.291,0.507 0.43,0.766 h -0.001 c -0.139,-0.259 -0.283,-0.514 -0.429,-0.766 z"
     fill="#000000"
     id="path7" />
</svg>
