<?xml version="1.0" encoding="UTF-8"?>
<svg id="Laag_1" data-name="Laag 1" xmlns="http://www.w3.org/2000/svg" viewBox="0 0 1100.4 326.4">
  <defs>
    <style>
      .cls-1 {
        fill: none;
      }

      .cls-2 {
        fill: #1d1d1b;
      }

      .cls-3 {
        fill: #00c2e8;
      }
    </style>
  </defs>
  <rect class="cls-1" x="-.12" width="1100.4" height="326.4"/>
  <path class="cls-2" d="M274.61,216.25c-31.49,0-54.13-25.17-54.13-54.13s22.64-54,54.13-54,54,25.17,54,54-22.64,54.13-54,54.13ZM274.61,198.93c20.87,0,36.67-16.57,36.67-36.8s-15.81-36.67-36.67-36.67-36.8,16.44-36.8,36.67,15.81,36.8,36.8,36.8Z"/>
  <path class="cls-2" d="M341.25,110.02h19.73c39.46,0,56.78,23.65,56.78,51.98s-17.33,52.36-56.78,52.36h-19.73v-104.33ZM362.88,196.9c25.42,0,37.43-15.18,37.43-34.9s-12.01-34.65-37.43-34.65h-4.3v69.56h4.3Z"/>
  <path class="cls-2" d="M671.53,110.09h17.33v87.64h34.78v16.57h-52.1v-104.21Z"/>
  <path class="cls-2" d="M736.27,214.23l40.22-104.08h18.21l39.2,104.08h-17.83l-5.56-15.3h-50.33l-5.69,15.3h-18.21ZM805.06,184.13l-19.48-53.49-19.85,53.49h39.33Z"/>
  <path class="cls-2" d="M849.15,215.29v-17.65h38.15c8.54,0,11.39-6.18,11.39-14.03,0-7.39-3.19-13.43-9.91-13.43h-16.4c-18.56,0-25.85-12.22-25.85-31.08s8.31-30.02,23.92-30.02h38.27v17.8h-35.88c-6.38,0-9.91,5.13-9.91,13.12s3.07,12.67,10.25,12.67h16.97c18.45,0,24.15,13.73,24.15,30.17,0,17.95-7.63,32.43-26.99,32.43h-38.15Z"/>
  <path class="cls-2" d="M929.55,215.29v-17.65h38.15c8.54,0,11.39-6.18,11.39-14.03,0-7.39-3.19-13.43-9.91-13.43h-16.4c-18.56,0-25.85-12.22-25.85-31.08s8.31-30.02,23.92-30.02h38.27v17.8h-35.88c-6.38,0-9.91,5.13-9.91,13.12s3.08,12.67,10.25,12.67h16.97c18.45,0,24.15,13.73,24.15,30.17,0,17.95-7.63,32.43-26.99,32.43h-38.15Z"/>
  <path class="cls-2" d="M598.35,159.72v15.3h40.09c-4.17,14.16-17.7,24.28-33.39,24.28-21.63,0-36.93-16.57-36.93-36.93s15.43-36.93,37.05-36.93c10.9,0,20.54,4.91,26.66,12.57l15.88-9.17c-9.57-12.44-24.67-20.72-42.53-20.72-31.49,0-54.13,25.17-54.13,54s22.64,54.13,54.13,54.13,55.39-26.56,53.62-56.53h-60.45Z"/>
  <path class="cls-2" d="M512.44,186.32c-6.38,8.04-16.49,13.49-28.04,13.49-20.11,0-35.41-14.8-36.93-33.01h90.67c3.16-31.11-21.88-58.68-53.62-58.68s-54.13,25.17-54.13,54.13,23.02,54,54.13,54c17.82,0,33.32-8.45,43.04-21.2l-15.12-8.73ZM484.4,124.31c17.45,0,31.87,12.14,35.41,27.32h-70.82c3.79-15.18,17.83-27.32,35.41-27.32Z"/>
  <circle class="cls-3" cx="158.21" cy="162.85" r="21.29"/>
  <g>
    <path class="cls-2" d="M122.3,162.13c0-20.23,15.81-36.67,36.8-36.67,14.45,0,26.48,7.89,32.5,19.47h18.71c-6.95-20.95-26.33-36.79-51.21-36.79-31.49,0-54.13,25.17-54.13,54,0,5.5.82,10.87,2.36,15.95l15.61-9.01c-.42-2.25-.64-4.57-.64-6.94Z"/>
    <path class="cls-2" d="M191.56,179.46c-6.04,11.56-18.04,19.47-32.45,19.47-9.88,0-18.61-3.67-25.08-9.66l-15.49,8.94c9.66,10.97,23.87,18.05,40.57,18.05,24.86,0,44.22-15.81,51.19-36.79h-18.73Z"/>
  </g>
</svg>