<?xml version="1.0" encoding="UTF-8" standalone="no"?>
<!-- Created with Inkscape (http://www.inkscape.org/) -->
<svg xmlns:dc="http://purl.org/dc/elements/1.1/" xmlns:cc="http://creativecommons.org/ns#" xmlns:rdf="http://www.w3.org/1999/02/22-rdf-syntax-ns#" xmlns:svg="http://www.w3.org/2000/svg" xmlns="http://www.w3.org/2000/svg" xmlns:sodipodi="http://sodipodi.sourceforge.net/DTD/sodipodi-0.dtd" xmlns:inkscape="http://www.inkscape.org/namespaces/inkscape" width="287.642" height="55.957851" viewBox="0 0 76.105277 14.805514" version="1.1" id="svg8302" inkscape:version="0.92.0 r15299" sodipodi:docname="postmates.svg">
  <defs id="defs8296"/>
  <sodipodi:namedview id="base" pagecolor="#ffffff" bordercolor="#666666" borderopacity="1.0" inkscape:pageopacity="0.0" inkscape:pageshadow="2" inkscape:zoom="1.5316577" inkscape:cx="292.82" inkscape:cy="55.313794" inkscape:document-units="mm" inkscape:current-layer="layer1" showgrid="false" fit-margin-top="0" fit-margin-left="0" fit-margin-right="0" fit-margin-bottom="0" units="px" inkscape:window-width="1280" inkscape:window-height="744" inkscape:window-x="-4" inkscape:window-y="-4" inkscape:window-maximized="1"/>
  <metadata id="metadata8299">
    <rdf:RDF>
      <cc:Work rdf:about="">
        <dc:format>image/svg+xml</dc:format>
        <dc:type rdf:resource="http://purl.org/dc/dcmitype/StillImage"/>
        <dc:title/>
      </cc:Work>
    </rdf:RDF>
  </metadata>
  <g inkscape:label="Layer 1" inkscape:groupmode="layer" id="layer1" transform="translate(65.002078,-148.66294)">
    <g id="g8350" transform="matrix(0.48774333,0,0,0.48774333,-33.033166,83.473232)">
      <path style="stroke-width:0.26458332" id="path8208" d="m -24.989133,145.64346 a 5.2916667,5.2916667 0 0 0 -8.466672,-0.58208 l -1.883828,-1.42611 c 0.473599,-0.19314 1.457849,-0.62706 1.524,-0.89429 0.0397,-0.15875 -0.465672,-0.26458 -1.235602,-0.3175 l 3.537471,-3.23056 a 0.07672917,0.07672917 0 0 0 0.0159,-0.09 l -0.902229,-1.69863 a 0.06879167,0.06879167 0 0 0 -0.105831,-0.0185 l -3.677708,3.35757 c -1.100672,0 -3.058581,0.14552 -3.622151,-0.20902 -0.89693,-0.56621 -1.00277,-1.39965 -1.32291,-1.69863 -0.32015,-0.29898 -0.706441,-0.33337 -0.79375,-0.58737 a 0.02645833,0.02645833 0 0 1 0.0185,-0.0344 c 0.17462,-0.0423 1.14035,-0.31485 1.35996,-0.98954 0.2196,-0.67469 -0.22755,-1.5875 -0.30428,-1.73038 a 0.02910417,0.02910417 0 0 1 0,-0.0344 l 1.01071,-0.89694 a 0.02910417,0.02910417 0 0 0 -0.0212,-0.0503 l -1.50813,0.18521 a 0.03439583,0.03439583 0 0 1 -0.0265,0 c -0.0794,-0.10584 -0.679981,-0.8255 -1.907641,-0.32279 -1.43934,0.59266 -1.1774,1.82033 -1.1774,1.82033 0.1905,1.28323 0.635,1.53723 1.36261,1.95527 0.0185,0 0.0264,0.0344 0,0.0476 -0.46832,0.39159 -5.16732,4.24921 -9.51178,5.75469 a 0.08466667,0.08466667 0 0 0 0,0.15875 c 1.25942,0.54504 5.02709,0.26459 6.14098,-0.39423 a 0.02910417,0.02910417 0 0 1 0.0423,0.0317 c -0.12171,0.46302 -0.77788,3.175 0.26458,4.0349 l 0.0582,0.045 -1.38906,0.98954 a 0.35454167,0.35454167 0 0 0 0.24341,0.64294 l 0.71702,-0.0767 a 2.06375,2.06375 0 0 0 1.23561,-0.58209 l 0.23812,-0.23547 2.032,1.51341 -0.26458,2.14842 a 5.2784375,5.2784375 0 1 0 4.36033,2.76225 l 0.529171,-0.33073 a 1.2752917,1.2752917 0 0 0 2.074328,-1.28852 l 2.145771,-0.62971 a 0.35189583,0.35189583 0 0 0 0.24607,-0.4101 l -0.0159,-0.0714 a 0.34660417,0.34660417 0 0 0 -0.343958,-0.26458 h -1.82562 a 0.0238125,0.0238125 0 0 1 -0.02381,-0.0159 l -0.550338,-1.2409 1.076859,-6.41879 1.75418,1.30704 a 5.2757917,5.2757917 0 1 0 8.892651,0 z m -14.623521,-3.79413 2.487081,-0.0423 0.32544,0.61383 c -0.574151,0.0212 -1.177401,0.0661 -1.756831,0.14023 -0.42334,0.0503 -0.92869,-0.48683 -1.0795,-0.65881 a 0.03515077,0.03515077 0 0 1 0.0238,-0.0661 z m -3.75973,3.72269 c 0.20902,-0.3466 1.41287,-2.35744 1.56369,-3.04271 a 0.02910417,0.02910417 0 0 1 0.0503,-0.0132 c 0.79375,0.93663 2.50031,1.47638 2.62996,1.51607 h 0.0159 l 2.180171,-0.67204 0.486831,0.36247 -2.278062,2.09286 a 1.5583958,1.5583958 0 0 0 -0.88636,-0.38629 c -1.32291,-0.16934 -3.36285,0.127 -3.73591,0.18521 a 0.03079621,0.03079621 0 0 1 -0.0265,-0.0556 z m 5.63298,6.86329 a 1.2938125,1.2938125 0 0 0 -0.423331,0.12436 l -1.558399,-1.18798 a 0.02910417,0.02910417 0 0 1 0,-0.0344 l 0.79375,-1.6166 a 0.02910417,0.02910417 0 0 1 0.0503,0 l 1.28323,2.00025 z m -3.30465,-1.76477 -1.05833,-0.79375 2.04258,-1.87589 z m 0,-2.75166 -1.65629,1.52135 -1.66423,-1.23825 a 19.282833,19.282833 0 0 0 3.33111,-0.27781 z m -1.35731,2.6326 1.09273,0.81492 -0.11642,0.36248 a 0.492125,0.492125 0 0 0 0.29104,0.6297 l 2.28071,0.8308 0.0688,0.0503 a 1.2938125,1.2938125 0 0 0 -0.0317,0.80698 l -0.51593,0.32808 a 5.2652083,5.2652083 0 0 0 -3.27554,-2.07433 z m -0.3466,2.83633 a 4.1830625,4.1830625 0 0 1 2.49237,1.57427 l -2.91042,1.85209 z m 1.39964,7.63059 a 4.1883542,4.1883542 0 1 1 -2.11666,-7.7179 l -0.52917,4.18571 a 0.35454167,0.35454167 0 0 0 0.52917,0.34396 l 3.556,-2.26484 a 4.191,4.191 0 0 1 -1.43669,5.45307 z m 3.111501,-13.70542 c 0,0 0,0 0,-0.0159 a 2.2489583,2.2489583 0 0 0 -0.105831,-0.88371 l 1.926169,-1.77007 -0.83344,4.90009 z m 11.046359,4.68048 a 4.1857083,4.1857083 0 0 1 -5.820841,-5.72558 l 3.31788,2.47385 a 0.35454167,0.35454167 0 0 0 0.402161,0.0132 0.29897917,0.29897917 0 0 0 0.0953,-0.0873 0.35454167,0.35454167 0 0 0 -0.0714,-0.49477 l -3.323169,-2.4765 a 4.1142708,4.1142708 0 0 1 0.894289,-0.7673 4.1883542,4.1883542 0 1 1 4.497919,7.06438 z" inkscape:connector-curvature="0"/>
      <path style="stroke-width:0.26458332" id="path8210" d="m -37.845235,139.87819 1.227662,0.0714 a 0.20372916,0.20372916 0 0 0 0.153458,-0.0556 l 3.03213,-2.84427 a 0.0555625,0.0555625 0 0 0 -0.0344,-0.0953 l -1.190631,-0.0714 a 0.32279167,0.32279167 0 0 0 -0.235471,0.0873 l -2.989799,2.80458 a 0.05820833,0.05820833 0 0 0 0.0371,0.10319 z" inkscape:connector-curvature="0"/>
      <polygon transform="matrix(0.26458333,0,0,0.26458333,-89.314638,109.92471)" id="polygon8212" points="129.08,194.24 137.78,194.8 131.05,188.86 133.88,180.59 126.56,185.04 119.6,179.37 121.81,188.07 114.67,192.83 123.36,193.75 125.91,202.37 "/>
      <polygon transform="matrix(0.26458333,0,0,0.26458333,-89.314638,109.92471)" id="polygon8214" points="137.62,162.92 146.32,163.48 139.59,157.54 142.43,149.27 135.1,153.72 128.15,148.05 130.35,156.75 123.22,161.51 131.91,162.43 134.45,171.04 "/>
      <polygon transform="matrix(0.26458333,0,0,0.26458333,-89.314638,109.92471)" id="polygon8216" points="103.13,179.59 106.3,171.46 115,172.02 108.27,166.08 111.11,157.81 103.78,162.26 96.83,156.59 99.03,165.29 91.89,170.05 100.58,170.97 "/>
      <path style="stroke-width:0.26458332" id="path8218" d="M -12.056303,156.49138 V 140.2539 h 6.7521702 c 2.910419,0 4.79688999,2.14312 4.79688999,4.93448 0,2.83368 -1.89177099,4.93183 -4.79688999,4.93183 h -4.169831 v 6.37117 z m 2.5796882,-14.0388 v 5.50863 h 4.061351 c 1.29117,0 2.328339,-1.32292 2.328339,-2.7649 0,-1.44198 -1.037169,-2.74373 -2.328339,-2.74373 z" inkscape:connector-curvature="0"/>
      <path style="stroke-width:0.26458332" id="path8220" d="m 12.523486,153.05179 c 0.8308,-0.16139 1.637771,-0.32279 2.44475,-0.46302 0.161402,0.9234 0.714381,2.02936 2.579691,2.02936 0.415401,0 2.468559,-0.1614 2.468559,-1.63513 0,-2.79135 -7.14375,0.09 -7.14375,-4.91067 0,-1.98437 1.98173,-3.48191 4.471461,-3.48191 2.48973,0 4.611691,1.03716 4.955649,3.64331 -0.828149,0.13758 -1.63513,0.29898 -2.44211,0.46038 -0.16139,-1.45257 -1.05833,-1.98173 -2.44475,-1.98173 -1.222369,0 -2.05052,0.64558 -2.05052,1.35995 0,0.94457 0.87577,1.19857 2.259541,1.33615 2.627321,0.27781 4.86305,0.85196 4.86305,3.57452 0,2.44211 -2.14313,3.73327 -4.934479,3.73327 -2.995092,0 -4.701651,-1.56633 -5.027092,-3.66448" inkscape:connector-curvature="0"/>
      <path style="stroke-width:0.26458332" id="path8222" d="m 23.133286,146.70179 v -1.89177 h 2.005542 v -3.35756 h 2.492369 v 3.3655 h 2.420941 v 1.88383 h -2.420941 v 6.61459 c 0,0.92339 0.27781,1.19856 1.084789,1.19856 0.343961,0 1.105961,-0.045 1.105961,-0.045 v 2.02142 c 0,0 -0.89164,0.0926 -1.775351,0.0926 -2.19075,0 -2.910419,-1.1774 -2.910419,-3.41312 v -6.46907 z" inkscape:connector-curvature="0"/>
      <path style="stroke-width:0.26458332" id="path8224" d="m 38.719884,149.98263 c 0,-1.77536 -0.39158,-3.2729 -2.25954,-3.2729 -1.775358,0 -2.259537,1.49754 -2.259537,3.2729 v 6.50875 h -2.489729 v -11.67342 h 2.270119 l 0.230191,1.26735 c 0.346598,-0.64558 1.730366,-1.49754 3.090326,-1.49754 1.93411,0 2.8575,1.05834 3.24909,1.75154 0.62177,-1.03716 2.14312,-1.75154 3.50308,-1.75154 3.175,0 4.15131,1.93675 4.15131,5.39486 v 6.50875 h -2.4765 v -6.50875 c 0,-1.75155 -0.48419,-3.29671 -2.25954,-3.29671 -1.86796,0 -2.25954,1.49754 -2.25954,3.29671 v 6.50875 h -2.48973 z" inkscape:connector-curvature="0"/>
      <path style="stroke-width:0.26458332" id="path8226" d="m 52.713694,148.81846 c -0.79375,-0.13758 -1.63512,-0.32279 -2.46592,-0.46038 0.26459,-2.58233 2.38125,-3.78089 4.81807,-3.78089 3.29671,0 5.00327,1.61396 5.00327,4.79425 v 4.05871 c 0,0.69056 0.13758,1.08214 0.62177,1.08214 a 2.1166666,2.1166666 0 0 0 0.59796,-0.0926 v 2.02935 a 5.3313542,5.3313542 0 0 1 -1.47373,0.18521 1.9235208,1.9235208 0 0 1 -2.02936,-1.65894 4.8498125,4.8498125 0 0 1 -3.64331,1.72773 c -2.6961,0 -4.31006,-1.49754 -4.31006,-3.70416 0,-1.82034 1.68275,-3.47927 4.7625,-3.47927 h 2.99773 v -0.70115 c 0,-0.89958 -0.37042,-2.11667 -2.51354,-2.11667 -1.42875,0 -2.30452,0.71438 -2.35215,2.11667 m 4.86569,3.13531 v -0.57679 h -2.75696 c -2.05317,0 -2.46592,1.03717 -2.46592,1.61396 0,0.79375 0.52917,1.61396 2.05052,1.61396 2.02936,0 3.15913,-1.38377 3.15913,-2.64584" inkscape:connector-curvature="0"/>
      <path style="stroke-width:0.26458332" id="path8228" d="m 5.5596562,156.73479 a 6.0668958,6.0668958 0 1 1 6.0669008,-6.06425 6.0695417,6.0695417 0 0 1 -6.0669008,6.06425 m 0,-9.82133 a 3.7570833,3.7570833 0 1 0 3.75708,3.75708 3.7597292,3.7597292 0 0 0 -3.75708,-3.75708" inkscape:connector-curvature="0"/>
      <path style="stroke-width:0.26458332" id="path8230" d="m 76.782844,152.42738 c 0.75935,0.20637 1.52135,0.43656 2.28071,0.66939 -0.52917,1.68275 -2.11667,3.6195 -5.29167,3.6195 -3.175,0 -5.48481,-2.46856 -5.48481,-6.06425 0,-3.59569 2.11666,-6.06425 5.37104,-6.06425 3.25437,0 5.25462,2.16694 5.25462,5.69648 a 9.49325,9.49325 0 0 1 -0.045,1.10596 h -8.00893 c 0.045,1.70656 1.21973,3.22792 2.91041,3.22792 1.22238,0 2.42094,-0.5768 3.02154,-2.19075 m -0.52916,-2.91042 c -0.0688,-1.72773 -0.89694,-2.83633 -2.6035,-2.83633 -1.66159,0 -2.60615,1.38377 -2.67494,2.83633 z" inkscape:connector-curvature="0"/>
      <path style="stroke-width:0.26458332" id="path8232" d="m 79.986944,153.05179 c 0.83079,-0.16139 1.63513,-0.32279 2.44211,-0.46037 0.16139,0.92075 0.71702,2.02935 2.58233,2.02935 0.41539,0 2.46856,-0.16139 2.46856,-1.63777 0,-2.78871 -7.14375,0.0926 -7.14375,-4.91067 0,-1.98172 1.98173,-3.48191 4.47146,-3.48191 2.48973,0 4.60904,1.03981 4.95565,3.64331 -0.8308,0.13758 -1.63778,0.29898 -2.44211,0.46038 -0.16139,-1.45257 -1.05833,-1.98173 -2.44475,-1.98173 -1.22237,0 -2.05052,0.64558 -2.05052,1.35995 0,0.94457 0.87577,1.19857 2.2569,1.33615 2.62995,0.27781 4.86568,0.8546 4.86568,3.57452 0,2.44475 -2.14577,3.73327 -4.93448,3.73327 -2.99508,0 -4.70164,-1.56633 -5.02708,-3.66448" inkscape:connector-curvature="0"/>
      <path style="stroke-width:0.26458332" id="path8234" d="m 60.921074,146.70179 v -1.89177 h 2.00554 v -3.35756 h 2.48973 v 3.3655 h 2.43152 v 1.88383 h -2.42094 v 6.61459 c 0,0.92339 0.27781,1.19856 1.08479,1.19856 0.34396,0 1.10596,-0.045 1.10596,-0.045 v 2.02142 c 0,0 -0.89165,0.0926 -1.77535,0.0926 -2.19075,0 -2.91042,-1.1774 -2.91042,-3.41312 v -6.46907 z" inkscape:connector-curvature="0"/>
    </g>
  </g>
</svg>