<svg width="392" height="133" viewBox="0 0 392 133" fill="none" xmlns="http://www.w3.org/2000/svg">
<g clip-path="url(#clip0_628_599)">
<path d="M270.089 84.5452H0.472656V132.597H270.089V84.5452Z" fill="#FFFF00"/>
<path d="M391.984 0.0100708H0.233398V85.3193H391.984V0.0100708Z" fill="#FFFF00"/>
<path fill-rule="evenodd" clip-rule="evenodd" d="M0.125529 132.608V102.656V72.5305L59.6925 72.6022V78.551V84.2165L36.004 84.2742L12.1009 84.5884L11.8529 90.6495L11.9131 96.4541L35.5752 96.5674L59.6925 96.9227V102.815V108.465L36.0038 108.523L12.1065 108.832L11.7456 120.899L11.6871 132.608H6.02214H0.125529ZM73.15 132.608L73.1007 108.578L73.1588 84.8264H78.9218H84.8918V102.724V120.74L108.824 120.814V103.037V84.8264H114.835H120.686L120.724 132.608H96.8738H73.1502H73.15ZM133.04 132.608L132.99 108.578L133.048 84.8264H156.641H180.54L180.576 132.608H174.821H169.103L168.869 114.399V96.8593H168.361H145.62H144.914V114.401L144.68 132.608H138.797H133.04H133.04ZM193.286 132.608L193.322 84.8264H211.131H229.211V76.738V68.9649L241.246 68.8803V100.887V132.608H217.411H193.285H193.286ZM228.91 120.822V120.601V108.805V96.8593H205.283V108.826V120.604V120.809L228.91 120.821V120.822ZM333.085 83.3483V79.4602V75.7615L338.938 69.9196L344.852 63.439H329.648H314.566V39.7099V15.6155H326.319V33.8148V51.5176H338.282H350.5V33.3185V15.6155H355.996H362.069V39.478V63.439L352.076 73.7482L342.249 83.3483H337.879H333.085ZM0.0496519 63.439L0 33.1134L0.058172 3.34821H6.15045H12.3238V27.1992V51.5168H30.4176H48.3012V27.6291V3.34821H54.3937H59.6925V33.34V63.439H30.1562H0.049975H0.0496519ZM73.1515 63.439L73.1007 39.232L73.1588 15.5501L96.7513 15.4924L120.651 15.6901L120.954 39.4298L120.769 63.439H114.84H108.824V45.4642V27.5611L97.0872 27.5024L84.8918 27.7505V45.7123V63.439H78.9724H73.1512H73.1515ZM133.312 63.439V39.6853V16.4566H139.037H144.749V39.9119V63.439H139.088H133.312ZM157.433 63.439V31.4136V0H163.091H169.287V7.79933V15.4368H181.299H193.164V21.4423V27.4477H181.299H169.287V39.572V51.6963H181.299H193.164V57.5884V63.439H175.36H157.433ZM205.634 63.439V48.7928V34.5442H223.808H241.499V31.0736V26.8036H223.678H205.634V20.9183V15.5912H229.913H253.732L253.789 39.3313L253.563 63.439H229.615H205.634ZM241.499 48.9768V44.6962H229.714H218.024L217.961 48.2882L218.012 52.4304H229.826H241.499V48.9768ZM265.976 63.439V39.3546V15.5909H284.944H303.313V27.3641V39.1674H291.944H291.368L291.307 33.2903L291.247 27.561H284.806H278.252V45.4641V63.439H272.119H265.976ZM133.312 9.38674V4.52982V0H139.037H144.749V4.65594V9.38674H139.009H133.312Z" fill="#060600"/>
</g>
<defs>
<clipPath id="clip0_628_599">
<rect width="392" height="132.608" fill="white"/>
</clipPath>
</defs>
</svg>
