<?xml version="1.0" encoding="UTF-8" standalone="no"?>
<!-- Created with Inkscape (http://www.inkscape.org/) -->

<svg
   version="1.1"
   id="svg132"
   width="1763.7733"
   height="368.77332"
   viewBox="0 0 1763.7733 368.77332"
   xmlns="http://www.w3.org/2000/svg"
   xmlns:svg="http://www.w3.org/2000/svg">
  <defs
     id="defs136" />
  <g
     id="g140"
     transform="matrix(1.3333333,0,0,-1.3333333,0,368.77333)">
    <g
       id="g142"
       transform="scale(0.1)">
      <path
         d="m 6074.6,2123.23 c 112.44,0 194.5,80.53 194.5,189.17 0,108.64 -82.06,189.17 -194.5,189.17 h -49.38 v -378.34 z m -130.67,455.08 h 132.2 c 158.01,0 277.29,-113.96 277.29,-265.91 0,-151.95 -119.28,-265.91 -277.29,-265.91 h -132.2 v 531.82"
         style="fill:#434347;fill-opacity:1;fill-rule:nonzero;stroke:none"
         id="path144" />
      <path
         d="m 6453.71,2380.02 76.74,12.15 v -345.68 h -76.74 z m -12.14,131.43 c 0,27.35 22.03,48.62 50.13,48.62 28.12,0 50.15,-21.27 50.15,-48.62 0,-27.35 -22.03,-48.63 -50.15,-48.63 -28.1,0 -50.13,21.28 -50.13,48.63"
         style="fill:#434347;fill-opacity:1;fill-rule:nonzero;stroke:none"
         id="path146" />
      <path
         d="M 6954.38,2386.09 6776.6,2027.5 6598.82,2386.09 h 82.81 l 94.97,-205.88 94.97,205.88 h 82.81"
         style="fill:#434347;fill-opacity:1;fill-rule:nonzero;stroke:none"
         id="path148" />
      <path
         d="m 7023.51,2380.02 76.74,12.15 v -345.68 h -76.74 z m -12.15,131.43 c 0,27.35 22.03,48.62 50.14,48.62 28.11,0 50.14,-21.27 50.14,-48.62 0,-27.35 -22.03,-48.63 -50.14,-48.63 -28.11,0 -50.14,21.28 -50.14,48.63"
         style="fill:#434347;fill-opacity:1;fill-rule:nonzero;stroke:none"
         id="path150" />
      <path
         d="m 7191.41,2070.8 10.63,62.31 c 33.43,-21.28 63.82,-33.43 94.98,-33.43 30.39,0 50.13,15.95 50.13,42.54 0,19.75 -10.63,33.43 -52.42,47.1 l -13.67,4.56 c -52.42,17.48 -82.05,53.19 -82.05,101.81 0,56.97 44.82,99.52 111.68,99.52 31.15,0 65.34,-9.87 96.48,-25.07 l -11.4,-62.3 c -30.38,17.48 -62.29,26.59 -83.56,26.59 -28.11,0 -42.55,-15.95 -42.55,-36.46 0,-17.48 9.12,-30.39 45.59,-43.31 l 15.19,-5.32 c 58.5,-18.99 89.65,-54.7 89.65,-106.36 0,-62.3 -47.1,-105.6 -118.51,-105.6 -37.99,0 -77.5,13.67 -110.17,33.42"
         style="fill:#434347;fill-opacity:1;fill-rule:nonzero;stroke:none"
         id="path152" />
      <path
         d="m 7513.54,2380.02 76.74,12.15 v -345.68 h -76.74 z m -12.15,131.43 c 0,27.35 22.03,48.62 50.14,48.62 28.11,0 50.14,-21.27 50.14,-48.62 0,-27.35 -22.03,-48.63 -50.14,-48.63 -28.11,0 -50.14,21.28 -50.14,48.63"
         style="fill:#434347;fill-opacity:1;fill-rule:nonzero;stroke:none"
         id="path154" />
      <path
         d="m 7970.9,2216.68 c 0,62.29 -47.11,110.16 -108.64,110.16 -62.31,0 -108.64,-47.87 -108.64,-110.16 0,-63.06 46.33,-110.93 108.64,-110.93 61.53,0 108.64,47.87 108.64,110.93 z m -292.5,-0.77 c 0,101.05 80.53,178.54 183.86,178.54 102.56,0 183.09,-77.49 183.09,-178.54 0,-100.28 -80.53,-177.78 -183.09,-177.78 -103.33,0 -183.86,77.5 -183.86,177.78"
         style="fill:#434347;fill-opacity:1;fill-rule:nonzero;stroke:none"
         id="path156" />
      <path
         d="m 8441.94,2253.14 v -206.65 h -76.73 v 197.53 c 0,53.95 -30.39,82.82 -74.45,82.82 -47.88,0 -82.07,-34.2 -82.07,-88.13 v -192.22 h -76.72 v 334.29 l 73.69,11.39 v -44.06 c 25.08,29.63 62.3,46.34 105.6,46.34 79.02,0 130.68,-53.18 130.68,-141.31"
         style="fill:#434347;fill-opacity:1;fill-rule:nonzero;stroke:none"
         id="path158" />
      <path
         d="m 8979.83,2216.68 c 0,62.29 -47.11,110.16 -108.64,110.16 -62.31,0 -108.65,-47.87 -108.65,-110.16 0,-63.06 46.34,-110.93 108.65,-110.93 61.53,0 108.64,47.87 108.64,110.93 z m -292.5,-0.77 c 0,101.05 80.52,178.54 183.86,178.54 102.55,0 183.09,-77.49 183.09,-178.54 0,-100.28 -80.54,-177.78 -183.09,-177.78 -103.34,0 -183.86,77.5 -183.86,177.78"
         style="fill:#434347;fill-opacity:1;fill-rule:nonzero;stroke:none"
         id="path160" />
      <path
         d="m 9232.06,2453.71 v -67.62 h 73.7 v -65.33 h -73.7 v -274.27 h -77.5 v 274.27 h -50.13 l 11.39,65.33 h 38.74 v 71.42 c 0,89.65 53.19,139.79 144.36,139.79 h 9.87 v -69.14 h -9.11 c -43.31,0 -67.62,-25.07 -67.62,-74.45"
         style="fill:#434347;fill-opacity:1;fill-rule:nonzero;stroke:none"
         id="path162" />
      <path
         d="m 5921.14,1590.64 c 0,154.23 123.83,275.79 283.38,275.79 49.38,0 94.97,-11.4 135.23,-31.91 l -13.67,-81.29 c -34.19,22.03 -78.25,35.7 -121.56,35.7 -110.92,0 -198.3,-86.61 -198.3,-198.29 0,-110.92 86.62,-197.53 198.3,-197.53 46.34,0 88.13,13.68 128.39,39.51 l 14.44,-81.29 c -44.83,-23.56 -94.21,-36.47 -145.11,-36.47 -158.03,0 -281.1,121.56 -281.1,275.78"
         style="fill:#434347;fill-opacity:1;fill-rule:nonzero;stroke:none"
         id="path164" />
      <path
         d="m 6699.88,1494.92 c 0,62.3 -47.11,110.16 -108.65,110.16 -62.3,0 -108.64,-47.86 -108.64,-110.16 0,-63.06 46.34,-110.93 108.64,-110.93 61.54,0 108.65,47.87 108.65,110.93 z m -292.5,-0.77 c 0,101.05 80.52,178.54 183.85,178.54 102.56,0 183.1,-77.49 183.1,-178.54 0,-100.28 -80.54,-177.77 -183.1,-177.77 -103.33,0 -183.85,77.49 -183.85,177.77"
         style="fill:#434347;fill-opacity:1;fill-rule:nonzero;stroke:none"
         id="path166" />
      <path
         d="m 7363.89,1536.7 v -211.96 h -76.74 v 203.6 c 0,50.15 -26.59,76.74 -64.58,76.74 -41.79,0 -71.41,-31.91 -71.41,-82.82 v -197.52 h -77.49 v 203.6 c 0,50.15 -26.6,76.74 -64.58,76.74 -41.03,0 -71.42,-31.91 -71.42,-82.82 v -197.52 h -76.73 v 334.28 l 73.69,11.39 v -44.06 c 22.8,29.63 56.22,46.34 95.73,46.34 43.31,0 78.26,-19.75 98.76,-56.22 24.32,35.71 63.82,56.22 110.93,56.22 75.22,0 123.84,-50.9 123.84,-135.99"
         style="fill:#434347;fill-opacity:1;fill-rule:nonzero;stroke:none"
         id="path168" />
      <path
         d="m 7758.19,1494.92 c 0,61.53 -47.1,110.16 -108.65,110.16 -60.02,0 -107.88,-48.63 -107.88,-110.16 0,-62.3 47.86,-110.93 107.88,-110.93 61.55,0 108.65,48.63 108.65,110.93 z m 75.21,0 c 0,-100.29 -78.25,-178.54 -171.7,-178.54 -46.35,0 -85.85,18.99 -113.96,50.14 v -212.73 h -76.73 v 505.99 l 70.65,10.63 v -55.45 c 28.12,35.7 69.9,57.73 120.04,57.73 93.45,0 171.7,-78.25 171.7,-177.77"
         style="fill:#434347;fill-opacity:1;fill-rule:nonzero;stroke:none"
         id="path170" />
      <path
         d="m 8220.86,1670.41 v -346.44 h -73.69 v 38.75 c -25.07,-29.63 -61.53,-46.34 -104.08,-46.34 -78.25,0 -129.91,53.18 -129.91,141.31 v 201.33 l 76.73,11.39 v -203.6 c 0,-53.19 30.39,-82.06 73.69,-82.06 47.11,0 80.53,34.19 80.53,87.37 v 186.9 l 76.73,11.39"
         style="fill:#434347;fill-opacity:1;fill-rule:nonzero;stroke:none"
         id="path172" />
      <path
         d="m 8423.71,1599 v -161.82 c 0,-31.91 17.48,-50.14 47.1,-50.14 15.96,0 34.96,5.31 46.35,9.87 v -66.86 c -13.68,-6.08 -36.46,-11.39 -60.78,-11.39 -69.13,0 -109.4,41.78 -109.4,110.92 V 1599 h -51.66 l 11.39,65.34 h 40.27 v 69.13 l 76.73,41.79 v -110.92 h 93.45 V 1599 h -93.45"
         style="fill:#434347;fill-opacity:1;fill-rule:nonzero;stroke:none"
         id="path174" />
      <path
         d="m 8787.62,1439.46 c 0,37.22 -31.14,66.09 -69.89,66.09 -38.75,0 -69.14,-28.87 -69.14,-66.09 0,-37.23 30.39,-65.34 69.14,-65.34 39.5,0 69.89,28.87 69.89,65.34 z m 3.04,-114.72 -2.28,22.79 c -22.79,-19.76 -52.42,-31.15 -85.85,-31.15 -71.41,0 -126.87,53.18 -126.87,122.32 0,69.13 54.69,122.31 128.4,122.31 31.9,0 58.49,-11.39 79.76,-28.11 v 17.48 c 0,41.02 -18.99,62.29 -73.69,62.29 -28.87,0 -55.46,-6.07 -82.05,-15.19 l 10.63,61.54 c 28.12,8.36 54.7,12.16 82.06,12.16 88.88,0 135.99,-40.27 135.99,-115.48 v -167.15 l 3.04,-63.81 h -69.14"
         style="fill:#434347;fill-opacity:1;fill-rule:nonzero;stroke:none"
         id="path176" />
      <path
         d="m 9052.78,1599 v -161.82 c 0,-31.91 17.47,-50.14 47.1,-50.14 15.95,0 34.95,5.31 46.34,9.87 v -66.86 c -13.68,-6.08 -36.46,-11.39 -60.78,-11.39 -69.13,0 -109.4,41.78 -109.4,110.92 V 1599 h -51.66 l 11.39,65.34 h 40.27 v 69.13 l 76.74,41.79 v -110.92 h 93.44 V 1599 h -93.44"
         style="fill:#434347;fill-opacity:1;fill-rule:nonzero;stroke:none"
         id="path178" />
      <path
         d="m 9232.83,1658.26 76.73,12.15 v -345.67 h -76.73 z m -12.15,131.43 c 0,27.36 22.03,48.63 50.13,48.63 28.12,0 50.15,-21.27 50.15,-48.63 0,-27.35 -22.03,-48.62 -50.15,-48.62 -28.1,0 -50.13,21.27 -50.13,48.62"
         style="fill:#434347;fill-opacity:1;fill-rule:nonzero;stroke:none"
         id="path180" />
      <path
         d="m 9690.19,1494.92 c 0,62.3 -47.11,110.16 -108.64,110.16 -62.31,0 -108.65,-47.86 -108.65,-110.16 0,-63.06 46.34,-110.93 108.65,-110.93 61.53,0 108.64,47.87 108.64,110.93 z m -292.5,-0.77 c 0,101.05 80.53,178.54 183.86,178.54 102.55,0 183.09,-77.49 183.09,-178.54 0,-100.28 -80.54,-177.77 -183.09,-177.77 -103.33,0 -183.86,77.49 -183.86,177.77"
         style="fill:#434347;fill-opacity:1;fill-rule:nonzero;stroke:none"
         id="path182" />
      <path
         d="m 10161.2,1531.38 v -206.64 h -76.7 v 197.52 c 0,53.95 -30.4,82.82 -74.5,82.82 -47.83,0 -82.02,-34.19 -82.02,-88.13 v -192.21 h -76.73 v 334.28 l 73.69,11.39 v -44.06 c 25.08,29.63 62.31,46.34 105.66,46.34 79,0 130.6,-53.18 130.6,-141.31"
         style="fill:#434347;fill-opacity:1;fill-rule:nonzero;stroke:none"
         id="path184" />
      <path
         d="m 10454.5,1439.46 c 0,37.22 -31.2,66.09 -69.9,66.09 -38.8,0 -69.2,-28.87 -69.2,-66.09 0,-37.23 30.4,-65.34 69.2,-65.34 39.5,0 69.9,28.87 69.9,65.34 z m 3,-114.72 -2.3,22.79 c -22.8,-19.76 -52.4,-31.15 -85.8,-31.15 -71.4,0 -126.9,53.18 -126.9,122.32 0,69.13 54.7,122.31 128.4,122.31 31.9,0 58.5,-11.39 79.8,-28.11 v 17.48 c 0,41.02 -19,62.29 -73.7,62.29 -28.9,0 -55.5,-6.07 -82.1,-15.19 l 10.7,61.54 c 28.1,8.36 54.7,12.16 82,12.16 88.9,0 136,-40.27 136,-115.48 v -167.15 l 3.1,-63.81 h -69.2"
         style="fill:#434347;fill-opacity:1;fill-rule:nonzero;stroke:none"
         id="path186" />
      <path
         d="m 10631.5,1864.15 76.7,11.39 v -550.8 h -76.7 v 539.41"
         style="fill:#434347;fill-opacity:1;fill-rule:nonzero;stroke:none"
         id="path188" />
      <path
         d="m 11246.9,1672.69 c 0,64.58 -50.9,110.93 -123.1,110.93 h -48.6 v -221.09 h 48.6 c 72.2,0 123.1,46.35 123.1,110.16 z m 83.6,0 c 0,-106.36 -85.1,-183.09 -202.1,-183.09 h -53.2 v -164.86 h -81.3 v 531.81 h 134.5 c 117,0 202.1,-77.49 202.1,-183.86"
         style="fill:#434347;fill-opacity:1;fill-rule:nonzero;stroke:none"
         id="path190" />
      <path
         d="m 11727.8,1531.38 v -206.64 h -76.7 v 197.52 c 0,53.19 -30.4,82.06 -74.5,82.06 -47.9,0 -82,-34.19 -82,-87.37 v -192.21 h -76.8 v 539.41 l 76.8,11.39 v -249.95 c 24.3,30.39 60,47.1 103.3,47.1 77.5,0 129.9,-53.18 129.9,-141.31"
         style="fill:#434347;fill-opacity:1;fill-rule:nonzero;stroke:none"
         id="path192" />
      <path
         d="m 12136.5,1664.34 -237,-510.55 h -82.8 l 102.5,205.13 -139.7,305.42 h 82.8 l 95.7,-224.88 95.7,224.88 h 82.8"
         style="fill:#434347;fill-opacity:1;fill-rule:nonzero;stroke:none"
         id="path194" />
      <path
         d="m 12175.3,1349.05 10.6,62.3 c 33.4,-21.28 63.8,-33.43 95,-33.43 30.4,0 50.1,15.95 50.1,42.54 0,19.75 -10.6,33.43 -52.4,47.11 l -13.7,4.55 c -52.4,17.48 -82,53.19 -82,101.81 0,56.98 44.8,99.53 111.7,99.53 31.1,0 65.3,-9.88 96.4,-25.08 l -11.4,-62.3 c -30.3,17.48 -62.3,26.59 -83.5,26.59 -28.1,0 -42.6,-15.95 -42.6,-36.46 0,-17.48 9.1,-30.39 45.6,-43.31 l 15.2,-5.31 c 58.5,-19 89.7,-54.71 89.7,-106.37 0,-62.3 -47.1,-105.6 -118.6,-105.6 -37.9,0 -77.5,13.68 -110.1,33.43"
         style="fill:#434347;fill-opacity:1;fill-rule:nonzero;stroke:none"
         id="path196" />
      <path
         d="m 12497.4,1658.26 76.7,12.15 v -345.67 h -76.7 z m -12.1,131.43 c 0,27.36 22,48.63 50.1,48.63 28.1,0 50.1,-21.27 50.1,-48.63 0,-27.35 -22,-48.62 -50.1,-48.62 -28.1,0 -50.1,21.27 -50.1,48.62"
         style="fill:#434347;fill-opacity:1;fill-rule:nonzero;stroke:none"
         id="path198" />
      <path
         d="m 12662.3,1494.92 c 0,99.52 80.5,177.77 183.1,177.77 29.6,0 60,-6.83 88.8,-19.75 l -11.4,-69.14 c -24.3,13.68 -49.3,21.28 -75.2,21.28 -63.8,0 -109.4,-48.63 -109.4,-110.16 0,-61.54 45.6,-110.93 110.2,-110.93 28.1,0 53.9,9.12 78.2,22.8 l 11.4,-69.14 c -28.8,-13.68 -60,-21.27 -92.6,-21.27 -101.9,0 -183.1,79.01 -183.1,178.54"
         style="fill:#434347;fill-opacity:1;fill-rule:nonzero;stroke:none"
         id="path200" />
      <path
         d="m 12999.6,1349.05 10.6,62.3 c 33.4,-21.28 63.8,-33.43 95,-33.43 30.4,0 50.1,15.95 50.1,42.54 0,19.75 -10.6,33.43 -52.4,47.11 l -13.7,4.55 c -52.4,17.48 -82,53.19 -82,101.81 0,56.98 44.8,99.53 111.7,99.53 31.1,0 65.3,-9.88 96.4,-25.08 l -11.4,-62.3 c -30.3,17.48 -62.3,26.59 -83.5,26.59 -28.1,0 -42.6,-15.95 -42.6,-36.46 0,-17.48 9.1,-30.39 45.6,-43.31 l 15.2,-5.31 c 58.5,-19 89.7,-54.71 89.7,-106.37 0,-62.3 -47.1,-105.6 -118.6,-105.6 -37.9,0 -77.5,13.68 -110.1,33.43"
         style="fill:#434347;fill-opacity:1;fill-rule:nonzero;stroke:none"
         id="path202" />
      <path
         d="m 6005.64,551.262 c 82.67,0 145.06,60.859 145.06,141 0,80.136 -62.39,141.008 -145.06,141.008 H 5967.6 V 551.262 Z m -76.59,318.519 h 76.59 c 106,0 185.63,-76.07 185.63,-177.519 0,-101.442 -79.63,-177.524 -185.63,-177.524 h -76.59 v 355.043"
         style="fill:#434347;fill-opacity:1;fill-rule:nonzero;stroke:none"
         id="path204" />
      <path
         d="m 6256.19,692.262 c 0,102.957 81.66,183.609 187.15,183.609 33.48,0 63.91,-8.121 91.81,-22.832 l -7.61,-39.051 c -23.84,15.723 -54.27,25.364 -85.21,25.364 -80.65,0 -145.57,-64.922 -145.57,-147.09 0,-82.172 64.42,-147.09 145.57,-147.09 33.98,0 62.9,10.648 89.77,28.41 l 7.61,-39.051 c -29.41,-16.742 -62.38,-25.871 -97.38,-25.871 -104.48,0 -186.14,80.641 -186.14,183.602"
         style="fill:#434347;fill-opacity:1;fill-rule:nonzero;stroke:none"
         id="path206" />
      <path
         d="m 6919.61,692.262 c 0,82.168 -64.41,147.09 -146.07,147.09 -81.66,0 -146.08,-64.922 -146.08,-147.09 0,-82.172 64.42,-147.09 146.08,-147.09 81.66,0 146.07,64.918 146.07,147.09 z m -332.72,0 c 0,102.957 82.17,183.609 186.65,183.609 104.48,0 186.65,-80.652 186.65,-183.609 0,-102.961 -82.17,-183.602 -186.65,-183.602 -104.48,0 -186.65,80.641 -186.65,183.602"
         style="fill:#434347;fill-opacity:1;fill-rule:nonzero;stroke:none"
         id="path208" />
      <path
         d="m 7368.48,514.738 -22.31,246 -132.39,-252.078 -132.38,252.078 -22.31,-246 h -38.55 l 34.49,374.321 158.75,-304.329 158.76,304.329 34.48,-374.321 h -38.54"
         style="fill:#434347;fill-opacity:1;fill-rule:nonzero;stroke:none"
         id="path210" />
      <path
         d="m 7659.63,749.57 c 0,48.7 -39.06,83.7 -93.33,83.7 h -37.53 V 666.391 h 37.53 c 54.27,0 93.33,35 93.33,83.179 z m 40.58,0 c 0,-69.48 -56.31,-119.691 -133.91,-119.691 h -37.53 V 514.738 h -38.55 v 355.043 h 76.08 c 77.6,0 133.91,-50.722 133.91,-120.211"
         style="fill:#434347;fill-opacity:1;fill-rule:nonzero;stroke:none"
         id="path212" />
      <path
         d="m 495.285,1675.93 c 5.192,7.16 9.899,14.53 14.297,22 70.727,120.18 39.797,276.67 -75.445,360.12 -67.793,49.08 -150.485,62.44 -225.864,43.92 -31.195,-7.66 -61.003,-20.95 -88.105,-39.33 -25.6485,-17.4 -48.918,-39.19 -68.1446,-65.74 -88.6328,-122.41 -61.25778,-293.49 61.1486,-382.12 93.523,-67.72 215.359,-67.51 307.23,-9.14 28.364,18.03 53.973,41.41 74.883,70.29"
         style="fill:#36b987;fill-opacity:1;fill-rule:nonzero;stroke:none"
         id="path214" />
      <path
         d="m 5159.48,1929.44 c -152.75,106.54 -281.14,136.16 -432.62,192.26 -130.93,48.48 -126.11,127.23 -83.79,168.57 73.51,71.84 212.69,43.21 271.15,14.09 58.47,-29.12 99.02,-74.97 108.16,-86.64 23.19,-29.59 58.69,-23.63 77.05,-2.34 16.79,19.46 215.74,237.64 237.83,261.87 22.08,24.23 18.25,53.96 -2.35,74.52 -20.61,20.55 -101.98,98.33 -257.18,158.61 -155.21,60.28 -286.32,63.12 -401.33,46.94 -115.01,-16.18 -345.1,-60.78 -475.84,-296.89 -130.73,-236.11 -33.52,-516.42 79.21,-612.74 133.19,-113.8 231.51,-139.49 379.61,-185.96 148.1,-46.46 238.7,-113.97 187.16,-215.35 -47.49,-93.42 -214.23,-73.69 -311.93,-19.37 -55.2,30.68 -102.01,66.47 -134.56,108.15 -19.59,25.09 -54.3,26.55 -76.86,2.54 -22.56,-24 -223.89,-237.51 -245.25,-259.53 -17.66,-18.19 -22.49,-49.71 1.35,-73.59 34.15,-34.21 105.35,-118.08 275,-186.14 137.86,-55.299 290.39,-72.702 460.38,-55.151 203.5,21.012 407.37,165.561 472.13,319.581 120.8,287.3 25.43,540.03 -127.32,646.57"
         style="fill:#1658a0;fill-opacity:1;fill-rule:nonzero;stroke:none"
         id="path216" />
      <path
         d="m 1294.42,2477.32 31.06,80.23 c -888.351,254.04 -1423.0933,45.9 -1205.312,-494.91 27.102,18.38 56.91,31.67 88.105,39.33 -222.2496,468.62 253.45,670.35 1086.147,375.35"
         style="fill:#1658a0;fill-opacity:1;fill-rule:nonzero;stroke:none"
         id="path218" />
      <path
         d="m 3290.28,1998.56 c -48.89,0 -120.28,0 -120.28,0 v 353.21 c 0,0 67.32,0 124.98,0 84.55,0 242.71,0 242.71,-170.73 0,-170.74 -169.41,-182.48 -247.41,-182.48 z m 38.34,747.3 c -106.27,0 -584,0 -584,0 -17.6,0 -26.4,-9.58 -26.4,-28.75 V 1010.7 c 0,-17.598 8.8,-26.399 26.4,-26.399 h 398.98 c 17.6,0 26.4,8.801 26.4,26.399 v 600.82 c 0,0 51.92,0 149.03,0 97.12,0 656.16,4.75 656.16,572.06 0,567.31 -540.3,562.28 -646.57,562.28"
         style="fill:#1658a0;fill-opacity:1;fill-rule:nonzero;stroke:none"
         id="path220" />
      <path
         d="m 1681.18,2174.92 158.64,-466.35 h -319.63 z m 1567.68,-946.97 v -99.78 C 3373.38,1008.59 3479,887.551 3563.11,773.988 4017.22,160.922 3768.01,-55.1992 2832.43,254.691 2330.63,420.898 1773.99,713.262 1295.53,1043.18 l 94.77,275.91 h 574.52 l 117.77,-314.94 c 3.13,-12.72 11.14,-19.17 24.06,-19.17 h 425.46 c 19.17,0 28.76,9.59 28.76,28.76 0,3.32 -1.57,8.02 -4.69,14.47 l -656.3,1699.52 c -4.7,12.72 -12.91,19.17 -24.06,19.17 h -372.45 c -12.92,0 -21.72,-6.45 -26.61,-19.17 L 927.07,1317.44 h -0.004 c -156.816,126.46 -298.179,254.75 -417.484,380.49 -4.398,-7.47 -9.105,-14.84 -14.297,-22 -20.91,-28.88 -46.519,-52.26 -74.883,-70.29 126.051,-145.88 278.532,-292.82 449.282,-435.43 h -0.004 c 75.148,-62.75 153.82,-124.62 235.4,-185.23 v 0 c 511.56,-380.011 1135.9,-708.621 1704.79,-871.308 989.33,-282.934 1259.59,-27.9806 820.77,656.668 -96.05,149.859 -226.18,304.5 -381.78,457.61"
         style="fill:#1658a0;fill-opacity:1;fill-rule:nonzero;stroke:none"
         id="path222" />
    </g>
  </g>
</svg>
