<?xml version="1.0" encoding="UTF-8"?>
<svg width="161mm" height="50.8mm" version="1.1" viewBox="0 0 161 50.8" xmlns="http://www.w3.org/2000/svg" xmlns:cc="http://creativecommons.org/ns#" xmlns:dc="http://purl.org/dc/elements/1.1/" xmlns:rdf="http://www.w3.org/1999/02/22-rdf-syntax-ns#">
<title>Ansys logo</title>
<desc>A software company based in Canonsburg, Pennsylvania, United States that specialised in engineering simulation</desc>
 <metadata>
  <rdf:RDF>
   <cc:Work rdf:about="">
    <dc:format>image/svg+xml</dc:format>
    <dc:type rdf:resource="http://purl.org/dc/dcmitype/StillImage"/>
    <dc:title/>
   </cc:Work>
  </rdf:RDF>
 </metadata>
 <g transform="translate(10.6 -174)">
  <g transform="translate(.5 -.5)">
   <polygon class="st0" transform="matrix(.265 0 0 .265 -35.2 164)" points="154 44.1 92.9 194 134 194 195 44.1" style="fill:#ffb71b"/>
   <polygon class="st1" transform="matrix(.265 0 0 .265 -35.2 164)" points="184 99.3 223 194 267 194 205 48.9"/>
   <path class="st1" d="m55 187c-1.95 0-3.7 0.394-5.25 1.18-1.56 0.786-2.82 1.93-3.79 3.43v-3.93h-8.26v27.6h8.49v-15.5c0-1.87 0.534-3.37 1.6-4.5 1.07-1.12 2.48-1.69 4.24-1.69 1.46 0 2.54 0.431 3.23 1.29 0.693 0.863 1.04 2.23 1.04 4.1v16.2h8.49v-16.6c0-3.9-0.807-6.81-2.42-8.74-1.61-1.93-4.07-2.89-7.37-2.89z" style="stroke-width:.265"/>
   <path class="st1" d="m85.1 199-4.66-1.07c-1.12-0.299-1.91-0.616-2.36-0.955-0.447-0.339-0.672-0.807-0.672-1.4 0-0.823 0.373-1.46 1.12-1.91s1.78-0.675 3.09-0.675c2.85 0 5.73 1.01 8.66 3.03l2.25-5.62c-1.5-1.09-3.19-1.93-5.06-2.53-1.87-0.598-3.8-0.9-5.79-0.9-2.33 0-4.39 0.376-6.21 1.12-1.82 0.749-3.22 1.78-4.21 3.09-0.995 1.31-1.49 2.83-1.49 4.55 0 2.17 0.63 3.89 1.88 5.14 1.25 1.26 3.21 2.18 5.88 2.78l4.5 1.01c1.39 0.299 2.33 0.638 2.84 1.01 0.505 0.376 0.759 0.9 0.759 1.57 0 0.751-0.365 1.34-1.1 1.77-0.73 0.431-1.75 0.646-3.06 0.646-1.84 0-3.65-0.28-5.45-0.841-1.8-0.564-3.45-1.35-4.95-2.36l-2.25 5.84c1.53 1.09 3.36 1.92 5.48 2.5 2.12 0.579 4.45 0.87 7 0.87 3.71 0 6.62-0.759 8.74-2.28 2.12-1.52 3.18-3.61 3.18-6.27 0-2.21-0.646-3.96-1.94-5.25-1.3-1.3-3.35-2.26-6.16-2.9z" style="stroke-width:.265"/>
   <path class="st1" d="m148 202c-1.29-1.29-3.34-2.26-6.15-2.89l-4.67-1.07c-1.12-0.299-1.91-0.616-2.36-0.955-0.45-0.339-0.675-0.807-0.675-1.4 0-0.823 0.376-1.46 1.12-1.91s1.78-0.675 3.09-0.675c2.85 0 5.73 1.01 8.66 3.03l2.25-5.62c-1.5-1.09-3.19-1.93-5.06-2.53-1.87-0.598-3.8-0.9-5.79-0.9-2.32 0-4.39 0.376-6.21 1.12-1.82 0.749-3.23 1.78-4.22 3.09-0.992 1.31-1.49 2.83-1.49 4.55 0 2.17 0.627 3.89 1.88 5.14 1.25 1.26 3.21 2.18 5.87 2.78l4.5 1.01c1.39 0.299 2.33 0.638 2.84 1.01 0.508 0.376 0.759 0.9 0.759 1.57 0 0.751-0.365 1.34-1.1 1.77-0.73 0.431-1.75 0.646-3.06 0.646-1.84 0-3.65-0.28-5.45-0.841-1.8-0.564-3.45-1.35-4.95-2.36l-2.25 5.84c1.54 1.09 3.36 1.92 5.48 2.5 2.12 0.579 4.45 0.87 7 0.87 3.71 0 6.62-0.759 8.74-2.28 2.12-1.52 3.18-3.61 3.18-6.27-5e-3 -2.21-0.651-3.96-1.94-5.26z" style="stroke-width:.265"/>
   <polygon class="st1" transform="matrix(.265 0 0 .265 -35.2 164)" points="516 232 547 232 605 90 574 90 549 151 524 90 493 90 533 189"/>
  </g>
 </g>
</svg>
