<?xml version="1.0" encoding="UTF-8" standalone="no"?>
<!-- Created with Inkscape (http://www.inkscape.org/) -->

<svg
   version="1.1"
   id="svg2"
   width="689.53333"
   height="75.599998"
   viewBox="0 0 689.53333 75.599998"
   sodipodi:docname="Evovest_CMYK.eps"
   xmlns:inkscape="http://www.inkscape.org/namespaces/inkscape"
   xmlns:sodipodi="http://sodipodi.sourceforge.net/DTD/sodipodi-0.dtd"
   xmlns="http://www.w3.org/2000/svg"
   xmlns:svg="http://www.w3.org/2000/svg">
  <defs
     id="defs6" />
  <sodipodi:namedview
     id="namedview4"
     pagecolor="#ffffff"
     bordercolor="#000000"
     borderopacity="0.25"
     inkscape:showpageshadow="2"
     inkscape:pageopacity="0.0"
     inkscape:pagecheckerboard="0"
     inkscape:deskcolor="#d1d1d1" />
  <g
     id="g8"
     inkscape:groupmode="layer"
     inkscape:label="ink_ext_XXXXXX"
     transform="matrix(1.3333333,0,0,-1.3333333,0,75.6)">
    <g
       id="g10"
       transform="scale(0.1)">
      <path
         d="m 0,544.172 c 0,7.871 6.30078,14.961 14.9609,14.961 H 335.469 c 8.664,0 14.969,-7.09 14.969,-14.961 V 479.59 c 0,-7.871 -6.305,-14.961 -14.969,-14.961 H 102.371 V 335.48 h 194.516 c 7.871,0 14.961,-7.089 14.961,-14.96 v -65.368 c 0,-8.664 -7.09,-14.961 -14.961,-14.961 H 102.371 V 102.379 h 233.098 c 8.664,0 14.969,-7.0899 14.969,-14.9688 V 22.8359 c 0,-7.8711 -6.305,-14.9609 -14.969,-14.9609 H 14.9609 C 6.30078,7.875 0,14.9648 0,22.8359 V 544.172"
         style="fill:#163572;fill-opacity:1;fill-rule:nonzero;stroke:none"
         id="path12" />
      <path
         d="m 509.504,538.656 c -4.731,10.235 1.582,20.477 13.387,20.477 h 80.324 c 7.09,0 11.812,-4.727 13.387,-8.664 L 767.805,211.84 h 5.515 l 151.2,338.629 c 1.574,3.937 6.3,8.664 13.39,8.664 h 80.32 c 11.82,0 18.12,-10.242 13.39,-20.477 L 787.488,8.66016 C 785.129,3.94141 781.191,0 774.102,0 h -7.872 c -7.089,0 -11.027,3.94141 -13.386,8.66016 L 509.504,538.656"
         style="fill:#163572;fill-opacity:1;fill-rule:nonzero;stroke:none"
         id="path14" />
      <path
         d="m 1460.81,102.379 c 99.23,0 181.12,81.113 181.12,180.336 0,99.23 -81.89,181.914 -181.12,181.914 -99.23,0 -180.34,-82.684 -180.34,-181.914 0,-99.223 81.11,-180.336 180.34,-180.336 z m 0,464.629 c 157.5,0 283.51,-126.793 283.51,-284.293 C 1744.32,125.215 1618.31,0 1460.81,0 1303.31,0 1178.1,125.215 1178.1,282.715 c 0,157.5 125.21,284.293 282.71,284.293"
         style="fill:#163572;fill-opacity:1;fill-rule:nonzero;stroke:none"
         id="path16" />
      <path
         d="m 1890,538.656 c -4.73,10.235 1.57,20.477 13.39,20.477 h 80.32 c 7.09,0 11.82,-4.727 13.39,-8.664 L 2148.3,211.84 h 5.51 l 151.2,338.629 c 1.58,3.937 6.3,8.664 13.39,8.664 h 80.33 c 11.81,0 18.11,-10.242 13.38,-20.477 L 2167.99,8.66016 C 2165.63,3.94141 2161.69,0 2154.6,0 h -7.87 c -7.09,0 -11.03,3.94141 -13.39,8.66016 L 1890,538.656"
         style="fill:#163572;fill-opacity:1;fill-rule:nonzero;stroke:none"
         id="path18" />
      <path
         d="m 2601.89,544.172 c 0,7.871 6.3,14.961 14.97,14.961 h 320.51 c 8.67,0 14.96,-7.09 14.96,-14.961 V 479.59 c 0,-7.871 -6.29,-14.961 -14.96,-14.961 h -233.1 V 335.48 h 194.52 c 7.87,0 14.96,-7.089 14.96,-14.96 v -65.368 c 0,-8.664 -7.09,-14.961 -14.96,-14.961 H 2704.27 V 102.379 h 233.1 c 8.67,0 14.96,-7.0899 14.96,-14.9688 V 22.8359 c 0,-7.8711 -6.29,-14.9609 -14.96,-14.9609 h -320.51 c -8.67,0 -14.97,7.0898 -14.97,14.9609 V 544.172"
         style="fill:#163572;fill-opacity:1;fill-rule:nonzero;stroke:none"
         id="path20" />
      <path
         d="m 3150.78,85.0547 28.35,48.8243 c 6.3,11.023 19.69,11.023 26.78,5.512 3.93,-2.364 67.71,-48.8246 118.9,-48.8246 40.95,0 71.66,26.7736 71.66,60.6326 0,40.168 -33.85,67.727 -100.01,94.504 -74.02,29.926 -148.04,77.172 -148.04,170.102 0,70.09 51.97,151.203 177.19,151.203 80.32,0 141.74,-40.953 157.5,-52.766 7.87,-4.726 10.23,-18.113 4.72,-25.984 l -29.93,-44.891 c -6.3,-9.453 -18.11,-15.75 -27.56,-9.453 -6.3,3.941 -66.15,43.316 -109.46,43.316 -44.89,0 -69.3,-29.925 -69.3,-55.125 0,-37.011 29.13,-62.21 92.92,-88.203 76.39,-30.714 164.59,-76.386 164.59,-177.972 C 3509.09,74.8164 3439,0 3327.97,0 c -99.23,0 -157.5,46.4648 -173.25,61.4258 -7.09,7.0898 -11.03,11.0234 -3.94,23.6289"
         style="fill:#163572;fill-opacity:1;fill-rule:nonzero;stroke:none"
         id="path22" />
      <path
         d="m 3802.03,464.629 h -120.5 c -8.66,0 -14.96,7.09 -14.96,14.961 v 64.582 c 0,7.871 6.3,14.961 14.96,14.961 h 344.14 c 8.68,0 14.97,-7.09 14.97,-14.961 V 479.59 c 0,-7.871 -6.29,-14.961 -14.97,-14.961 H 3905.19 V 22.8359 c 0,-7.8711 -7.08,-14.9609 -14.97,-14.9609 h -73.23 c -7.88,0 -14.96,7.0898 -14.96,14.9609 V 464.629"
         style="fill:#163572;fill-opacity:1;fill-rule:nonzero;stroke:none"
         id="path24" />
      <path
         d="m 4412.77,16.5898 c -8.27,-4.8906 -16.53,1.6133 -16.53,13.8516 v 32.6094 c 0,7.3242 3.82,12.2344 6.99,13.875 l 355.83,202.9412 v 3.278 l -355.83,202.968 c -3.17,1.614 -6.99,7.344 -6.99,13.848 v 32.613 c 0,12.235 8.26,18.739 16.53,13.871 l 427.62,-247.812 c 3.81,-2.434 7,-7.348 7,-13.852 v -8.164 c 0,-5.707 -3.19,-11.418 -7,-13.847 L 4412.77,16.5898"
         style="fill:#163572;fill-opacity:1;fill-rule:nonzero;stroke:none"
         id="path26" />
      <path
         d="m 4736.84,11.293 c -8.26,-4.89066 -16.52,1.625 -16.52,13.8593 v 83.1447 c 0,7.332 3.81,12.223 6.98,13.859 l 273.23,156.508 v 5.695 L 4727.3,440.867 c -3.17,1.641 -6.98,6.528 -6.98,13.863 v 83.141 c 0,12.227 8.26,18.75 16.52,13.863 l 427.62,-252.695 c 3.82,-2.441 7,-6.523 7,-13.859 v -8.153 c 0,-7.336 -3.18,-11.418 -7,-13.863 L 4736.84,11.293"
         style="fill:#163572;fill-opacity:1;fill-rule:nonzero;stroke:none"
         id="path28" />
    </g>
  </g>
</svg>
