<?xml version="1.0" encoding="UTF-8" standalone="no"?>
<svg
   id="Layer_1"
   data-name="Layer 1"
   viewBox="0 0 172 40"
   version="1.1"
   sodipodi:docname="boeing-logo.svg"
   inkscape:version="1.1.2 (0a00cf5339, 2022-02-04)"
   width="172"
   height="40"
   xmlns:inkscape="http://www.inkscape.org/namespaces/inkscape"
   xmlns:sodipodi="http://sodipodi.sourceforge.net/DTD/sodipodi-0.dtd"
   xmlns="http://www.w3.org/2000/svg"
   xmlns:svg="http://www.w3.org/2000/svg"
   xmlns:rdf="http://www.w3.org/1999/02/22-rdf-syntax-ns#"
   xmlns:cc="http://creativecommons.org/ns#"
   xmlns:dc="http://purl.org/dc/elements/1.1/">
  <sodipodi:namedview
     id="namedview23"
     pagecolor="#ffffff"
     bordercolor="#999999"
     borderopacity="1"
     inkscape:pageshadow="0"
     inkscape:pageopacity="0"
     inkscape:pagecheckerboard="0"
     showgrid="false"
     inkscape:zoom="6.4534884"
     inkscape:cx="85.69009"
     inkscape:cy="19.989189"
     inkscape:window-width="1920"
     inkscape:window-height="1043"
     inkscape:window-x="1920"
     inkscape:window-y="327"
     inkscape:window-maximized="1"
     inkscape:current-layer="Layer_1"
     fit-margin-top="0"
     fit-margin-left="0"
     fit-margin-right="0"
     fit-margin-bottom="0" />
  <defs
     id="defs4">
    <style
       id="style2">.cls-2{fill:#0033a1;}</style>
  </defs>
  <title
     id="title6">boeing_logo</title>
  <g
     id="g940">
    <path
       class="cls-2"
       d="m 27,24.16 a 13.54,13.54 0 0 0 -4.79,-17 c 2.17,-2.23 4.52,-4.44 7,-6.55 A 61,61 0 0 0 21,6.46 13.54,13.54 0 0 0 4.47,27.29 c -2.59,5.61 -3,10.11 -0.76,11.63 2.45,1.63 7.77,-1.33 11,-6.14 0,0 -4.94,4.45 -7.65,3.43 -1.67,-0.63 -1.67,-3.19 -0.3,-6.85 a 13.54,13.54 0 0 0 17.52,-1.28 l 0.48,0.9 C 30.66,28.5 48.27,28.03 48.27,28.03 48.23,27.2 36.57,28 27,24.16 Z M 2.82,18.45 A 11.92,11.92 0 0 1 19.67,7.61 64.92,64.92 0 0 0 5.26,25.68 11.86,11.86 0 0 1 2.82,18.45 Z M 14.73,30.36 A 11.86,11.86 0 0 1 7.36,27.81 C 9.72,22.49 14.52,15.35 21.07,8.37 a 11.91,11.91 0 0 1 4.43,15.15 21.76,21.76 0 0 1 -5.66,-3.69 l 3.59,6.74 a 11.87,11.87 0 0 1 -8.7,3.79 z"
       id="path8"
       style="fill:#1d439c;fill-opacity:1" />
    <path
       id="polygon10"
       style="fill:#1d439c"
       class="cls-2"
       d="M 114.58566,9.0994269 H 99.245663 l -10.55,14.0000001 h 15.339997 l 2.2,-2.93 h -7.679997 l 2.029997,-2.7 h 7.69 l 2.2,-2.93 h -7.68 l 1.89,-2.51 h 7.69 z" />
    <path
       id="polygon12"
       style="fill:#1d439c"
       class="cls-2"
       d="m 118.41,8.84 -10.55,14 h 7.66 l 10.54,-14 z" />
    <path
       id="polygon14"
       style="fill:#1d439c"
       class="cls-2"
       d="m 120.39,22.84 h 5.06 l 5.3,-7.03 1.63,7.03 h 6.04 l 10.55,-14 h -5.06 l -5.35,7.1 -1.64,-7.1 h -5.98 z" />
    <path
       class="cls-2"
       d="m 168.93,8.84 h -12.3 a 6.43,6.43 0 0 0 -5.15,2.57 l -6.35,8.43 a 1.85,1.85 0 0 0 -0.38,1.13 1.88,1.88 0 0 0 1.87,1.88 h 12.3 a 6.44,6.44 0 0 0 5.16,-2.57 l 1.53,-2 h 1.78 l 2.22,-3 h -9.42 l -3,3.95 a 1.67,1.67 0 0 1 -1.34,0.67 h -2.17 a 0.49,0.49 0 0 1 -0.49,-0.49 0.46,0.46 0 0 1 0.1,-0.29 l 5,-6.7 a 1.66,1.66 0 0 1 1.34,-0.67 h 2.17 a 0.49,0.49 0 0 1 0.49,0.49 0.51,0.51 0 0 1 -0.1,0.29 l -0.82,1.09 h 7.64 l 1.35,-1.8 a 1.87,1.87 0 0 0 -1.5,-3 z"
       id="path16"
       style="fill:#1d439c;fill-opacity:1" />
    <path
       class="cls-2"
       d="M 92.45,10.72 A 1.87,1.87 0 0 0 90.58,8.85 h -12.3 a 6.44,6.44 0 0 0 -5.16,2.57 l -6.35,8.43 a 1.88,1.88 0 0 0 1.5,3 h 12.3 a 6.44,6.44 0 0 0 5.16,-2.57 l 6.35,-8.43 a 1.86,1.86 0 0 0 0.37,-1.13 z m -8.55,1.83 -5,6.69 a 1.66,1.66 0 0 1 -1.34,0.67 h -2.21 a 0.49,0.49 0 0 1 -0.39,-0.78 l 5,-6.7 a 1.69,1.69 0 0 1 1.34,-0.67 h 2.17 a 0.49,0.49 0 0 1 0.49,0.49 0.51,0.51 0 0 1 -0.1,0.29 z"
       id="path18"
       style="fill:#1d439c;fill-opacity:1" />
    <path
       class="cls-2"
       d="m 63.52,16.18 a 6.43,6.43 0 0 0 3.72,-2.41 l 1.46,-1.93 a 1.87,1.87 0 0 0 -1.5,-3 H 51.68 l -10.55,14 h 16.06 a 6.44,6.44 0 0 0 5.16,-2.57 l 1.49,-2 a 1.47,1.47 0 0 0 0.3,-0.9 1.51,1.51 0 0 0 -0.61,-1.21 z m -7.1,1.82 -0.95,1.26 a 1.67,1.67 0 0 1 -1.34,0.67 H 51 l 2,-2.7 h 3 a 0.49,0.49 0 0 1 0.49,0.49 0.47,0.47 0 0 1 -0.1,0.29 z m 4.1,-5.44 -0.81,1.07 a 1.68,1.68 0 0 1 -1.34,0.66 h -3.13 l 1.89,-2.51 h 3 a 0.49,0.49 0 0 1 0.49,0.49 0.51,0.51 0 0 1 -0.1,0.29 z"
       id="path20"
       style="fill:#1d439c;fill-opacity:1" />
  </g>
  <metadata
     id="metadata840">
    <rdf:RDF>
      <cc:Work
         rdf:about="">
        <dc:title>boeing_logo</dc:title>
      </cc:Work>
    </rdf:RDF>
  </metadata>
</svg>
