<?xml version="1.0" encoding="UTF-8" standalone="no"?>
<!-- Created with Inkscape (http://www.inkscape.org/) -->

<svg
   width="52.552662mm"
   height="43.261951mm"
   viewBox="0 0 52.552661 43.261952"
   version="1.1"
   id="svg1"
   inkscape:version="1.3.2 (091e20e, 2023-11-25, custom)"
   sodipodi:docname="logo_triple_stacked.svg"
   xml:space="preserve"
   inkscape:export-filename="logo_triple.png"
   inkscape:export-xdpi="96"
   inkscape:export-ydpi="96"
   xmlns:inkscape="http://www.inkscape.org/namespaces/inkscape"
   xmlns:sodipodi="http://sodipodi.sourceforge.net/DTD/sodipodi-0.dtd"
   xmlns="http://www.w3.org/2000/svg"
   xmlns:svg="http://www.w3.org/2000/svg"><sodipodi:namedview
     id="namedview1"
     pagecolor="#ffffff"
     bordercolor="#000000"
     borderopacity="0.25"
     inkscape:showpageshadow="2"
     inkscape:pageopacity="0.0"
     inkscape:pagecheckerboard="0"
     inkscape:deskcolor="#d1d1d1"
     inkscape:document-units="mm"
     inkscape:zoom="4.3253108"
     inkscape:cx="132.01363"
     inkscape:cy="103.69197"
     inkscape:window-width="2560"
     inkscape:window-height="1377"
     inkscape:window-x="1432"
     inkscape:window-y="394"
     inkscape:window-maximized="1"
     inkscape:current-layer="layer1" /><defs
     id="defs1"><clipPath
       id="ivSFswcfwhHs"><path
         fill="none"
         stroke="none"
         d="M 0,0 H 37 V 35 H 0 Z"
         id="path1" /></clipPath></defs><g
     inkscape:label="Layer 1"
     inkscape:groupmode="layer"
     id="layer1"
     style="display:inline"
     transform="translate(-3.7811697e-7,4.450139)"><g
       id="g1"
       transform="translate(-74.055884,-76.593419)"><path
         style="font-style:italic;font-size:29.0456px;font-family:'IBM Plex Sans Condensed';-inkscape-font-specification:'IBM Plex Sans Condensed, ';stroke-width:0.302558"
         d="m 83.371108,108.05617 q -4.368186,0 -6.821745,-2.15573 -2.45356,-2.15572 -2.45356,-6.126802 0,-2.921579 0.893493,-5.403503 0.907675,-2.481924 2.623748,-4.325639 1.701891,-1.829532 4.169632,-2.864849 2.481924,-1.035317 5.573692,-1.035317 1.857898,0 3.701613,0.453837 1.857897,0.439656 3.786706,1.446608 l -0.638209,3.205227 h -0.255283 q -1.574249,-1.474972 -3.432146,-2.127363 -1.843715,-0.666574 -3.971079,-0.666574 -2.340099,0 -4.09872,0.921857 -1.75862,0.921858 -2.964126,2.453559 -1.177141,1.503337 -1.786985,3.503059 -0.595662,1.999721 -0.595662,4.027808 0,3.049222 1.659343,4.708562 1.673526,1.65935 4.935483,1.65935 1.432425,0 2.680478,-0.25529 1.262236,-0.26946 2.368465,-0.68075 l 1.191323,-5.403508 h -5.630421 l 0.538932,-2.368464 h 8.452723 l -2.098998,9.062572 q -0.93604,0.38292 -1.687708,0.69493 -0.751669,0.29784 -1.886263,0.62403 -0.978587,0.28365 -2.028086,0.46802 -1.035317,0.18437 -2.22664,0.18437 z m 26.152382,-0.41129 H 95.21343 l 0.666574,-2.96412 q 1.999722,-1.46079 3.389599,-2.48193 1.404057,-1.03531 3.375417,-2.609564 3.46051,-2.765572 4.87875,-4.651834 1.43243,-1.900445 1.43243,-3.68743 0,-1.389877 -0.99277,-2.098998 -0.97859,-0.709122 -2.52447,-0.709122 -1.26224,0 -2.89322,0.482203 -1.61679,0.46802 -3.17686,1.361512 h -0.141824 l 0.567297,-2.879031 q 1.120407,-0.510568 2.864847,-0.907675 1.74444,-0.411291 3.34705,-0.411291 2.85067,0 4.39655,1.248053 1.54589,1.233871 1.54589,3.347052 0,2.28337 -1.30478,4.325639 -1.30479,2.028086 -4.56674,4.736929 -1.943,1.602617 -3.99945,3.120137 -2.04227,1.50333 -3.375414,2.45355 h 11.345934 z m 12.14016,0 h -8.36763 l 0.46802,-2.05645 h 2.76557 l 3.94271,-17.004723 h -2.76557 l 0.46802,-2.056452 h 8.36763 l -0.46802,2.056452 h -2.76557 l -3.94272,17.004723 h 2.76558 z"
         id="text2"
         aria-label="G2I" /></g><path
       style="font-style:italic;font-weight:bold;font-size:8.78417px;font-family:'IBM Plex Sans Condensed';-inkscape-font-specification:'IBM Plex Sans Condensed, ';stroke-width:0.299461"
       d="m 1.9082306,44.811144 q -0.5621869,0 -0.93112206,-0.158115 -0.36893515,-0.158115 -0.5885394,-0.430424 -0.21082008,-0.281094 -0.29866179,-0.650029 -0.0878417,-0.368935 -0.0878417,-0.790575 0,-0.404072 0.06148919,-0.808144 0.06148919,-0.412856 0.14054673,-0.790575 0.13176255,-0.623676 0.36015097,-1.124374 0.22838843,-0.500697 0.57097106,-0.852064 0.3425826,-0.360151 0.7993595,-0.544619 0.4567768,-0.193252 1.0541004,-0.193252 0.412856,0 0.7290861,0.114195 0.3162302,0.114194 0.5358344,0.31623 0.2283884,0.193252 0.3689352,0.465561 0.1405467,0.272309 0.1932517,0.588539 L 3.735338,40.392707 q -0.026353,-0.447993 -0.2283885,-0.650029 -0.2020359,-0.21082 -0.6061077,-0.21082 -0.2986618,0 -0.5270502,0.07906 -0.2196043,0.07906 -0.3865035,0.263525 -0.1581151,0.184467 -0.2810934,0.500697 -0.1141943,0.31623 -0.2108201,0.790576 L 1.310907,42.088052 q -0.043921,0.202035 -0.070273,0.368935 -0.017568,0.166899 -0.017568,0.281093 0,0.52705 0.2020359,0.773007 0.2020359,0.237173 0.6412444,0.237173 0.2371726,0 0.4216402,-0.04392 0.1932517,-0.0527 0.3337985,-0.158115 0.1493309,-0.114194 0.2635251,-0.289878 0.1141942,-0.184467 0.2108201,-0.456777 l 1.0277479,0.456777 q -0.3337985,0.764223 -0.9311221,1.159511 -0.5973235,0.395287 -1.4845247,0.395287 z m 4.9191308,0 q -0.5621869,0 -0.9311221,-0.158115 -0.3689351,-0.158115 -0.5885394,-0.430424 -0.21082,-0.281094 -0.2986617,-0.650029 -0.087842,-0.368935 -0.087842,-0.790575 0,-0.404072 0.061489,-0.808144 0.061489,-0.412856 0.1405468,-0.790575 0.1317625,-0.623676 0.3601509,-1.124374 0.2371726,-0.500697 0.5885394,-0.852064 0.3513669,-0.360151 0.8169279,-0.544619 0.4743452,-0.193252 1.0804529,-0.193252 0.5621869,0 0.9223379,0.158116 0.3689351,0.158115 0.5885394,0.439208 0.2196042,0.272309 0.3074459,0.641244 0.087842,0.368936 0.087842,0.790576 0,0.404072 -0.061489,0.816928 -0.061489,0.404071 -0.1405467,0.781791 -0.1317625,0.623676 -0.3689351,1.124373 -0.2283885,0.500698 -0.5797553,0.860849 -0.3513668,0.351367 -0.825712,0.544619 -0.465561,0.184467 -1.0716687,0.184467 z m 0.158115,-1.062884 q 0.2986618,0 0.5182661,-0.07906 0.2196042,-0.07906 0.3777193,-0.263525 0.1668992,-0.184468 0.2810934,-0.500698 0.1229784,-0.31623 0.2196043,-0.790575 l 0.1844676,-0.922338 q 0.043921,-0.202036 0.061489,-0.368935 0.026352,-0.166899 0.026352,-0.281093 0,-0.527051 -0.2020359,-0.764223 -0.202036,-0.245957 -0.6412445,-0.245957 -0.2986618,0 -0.518266,0.07906 -0.2196043,0.07906 -0.3865035,0.263525 -0.1581151,0.184467 -0.2810934,0.500697 -0.1141942,0.31623 -0.2108201,0.790576 l -0.1844676,0.922338 q -0.043921,0.202035 -0.070273,0.368935 -0.017568,0.166899 -0.017568,0.281093 0,0.52705 0.2020359,0.773007 0.2020359,0.237173 0.6412444,0.237173 z m 7.8091226,-2.327805 0.298662,-1.194648 h -0.122979 l -0.720302,1.203432 -1.387899,2.248747 -0.553402,-2.248747 -0.21082,-1.203432 H 11.97488 l -0.09663,1.194648 -0.658812,3.285279 H 10.0775 l 1.229783,-6.131351 h 1.247353 l 0.52705,2.169691 0.140546,0.966258 h 0.08784 l 0.500698,-0.966258 1.37033,-2.169691 h 1.32641 l -1.229784,6.131351 h -1.141942 z m 1.633853,3.285279 1.229784,-6.131351 h 2.178474 q 0.825712,0 1.238568,0.351367 0.42164,0.351367 0.42164,1.185863 0,0.500698 -0.158115,0.922338 -0.158115,0.42164 -0.439209,0.729086 -0.281093,0.307446 -0.676381,0.48313 -0.395287,0.166899 -0.878417,0.166899 H 18.08866 l -0.456777,2.292668 z m 1.871028,-3.346769 h 1.150726 q 0.307446,0 0.465561,-0.158115 0.166899,-0.158115 0.237173,-0.518266 0.0527,-0.254741 0.07027,-0.377719 0.02635,-0.131763 0.02635,-0.219604 0,-0.228389 -0.10541,-0.342583 -0.09663,-0.114194 -0.360151,-0.114194 h -1.133158 z m 5.577949,-2.784582 -0.755439,3.768409 q -0.03514,0.149331 -0.06149,0.325015 -0.02635,0.166899 -0.02635,0.31623 0,0.42164 0.193252,0.597323 0.202036,0.1669 0.623676,0.1669 0.219605,0 0.395288,-0.06149 0.175683,-0.06149 0.307446,-0.210821 0.131762,-0.14933 0.228388,-0.404071 0.09663,-0.254741 0.175684,-0.641245 l 0.773007,-3.856251 h 1.203431 l -0.773007,3.856251 q -0.131763,0.650029 -0.325014,1.106806 -0.193252,0.447992 -0.48313,0.73787 -0.281093,0.281093 -0.676381,0.412856 -0.395287,0.122978 -0.931122,0.122978 -0.992611,0 -1.449388,-0.412856 -0.456777,-0.42164 -0.456777,-1.317625 0,-0.228389 0.02635,-0.439209 0.03514,-0.219604 0.08784,-0.474345 l 0.720302,-3.592726 z m 6.22798,1.054101 -1.018964,5.07725 h -1.203431 l 1.018964,-5.07725 h -1.423036 l 0.21082,-1.054101 h 4.049503 l -0.21082,1.054101 z m 0.975041,5.07725 0.193251,-0.966258 h 0.685166 l 0.84328,-4.198834 h -0.685165 l 0.193252,-0.966259 h 2.573761 l -0.193251,0.966259 h -0.685166 l -0.84328,4.198834 h 0.685165 l -0.193251,0.966258 z m 5.859033,-3.276495 -0.237173,-1.203432 h -0.122978 l -0.131763,1.194648 -0.658812,3.285279 h -1.141943 l 1.229784,-6.131351 h 1.43182 l 0.685165,3.276496 0.237173,1.203431 h 0.122978 l 0.131763,-1.194647 0.658813,-3.28528 h 1.141942 l -1.229784,6.131351 h -1.43182 z m 6.948274,2.187258 h -0.122978 q -0.1669,0.553403 -0.527051,0.878417 -0.360151,0.31623 -1.001395,0.31623 -0.491914,0 -0.825712,-0.158115 -0.333798,-0.158115 -0.535834,-0.430424 -0.202036,-0.281094 -0.298662,-0.650029 -0.08784,-0.368935 -0.08784,-0.790575 0,-0.404072 0.06149,-0.808144 0.06149,-0.412856 0.140547,-0.790575 0.131763,-0.623676 0.360151,-1.124374 0.237173,-0.500697 0.579755,-0.852064 0.342583,-0.360151 0.808144,-0.544619 0.465561,-0.193252 1.071669,-0.193252 0.852064,0 1.335194,0.368936 0.491913,0.368935 0.667596,1.080453 l -1.036532,0.42164 q -0.07027,-0.395288 -0.31623,-0.597324 -0.237172,-0.21082 -0.711518,-0.21082 -0.31623,0 -0.553402,0.07906 -0.228389,0.07906 -0.404072,0.263525 -0.166899,0.184467 -0.289878,0.500697 -0.122978,0.31623 -0.219604,0.790576 l -0.184467,0.922338 q -0.04392,0.202035 -0.07027,0.368935 -0.01757,0.166899 -0.01757,0.281093 0,0.52705 0.202036,0.773007 0.202036,0.237173 0.641244,0.237173 0.553403,0 0.895985,-0.289878 0.351367,-0.298662 0.447993,-0.729086 l 0.07906,-0.377719 h -0.983827 l 0.193251,-0.983827 h 2.12577 l -0.667597,3.337984 h -0.975043 z"
       id="text3"
       transform="scale(1.154628,0.86607983)"
       aria-label="COMPUTING" /><path
       style="display:inline;fill:#d92121;fill-opacity:1;stroke-width:1.32734"
       d="M 0.64221598,0.074681 0.00151208,2.837862 H 33.419285 l -10.3586,-7.288001 -2.173,1.8229999 3.84,2.7020001 z"
       id="path2-4"
       sodipodi:nodetypes="ccccccc" /><path
       style="display:inline;fill:#9e0061;fill-opacity:1;stroke-width:1.32734"
       d="M 0.64214088,3.0682563 0.00143718,5.8314364 43.016636,5.8345364 32.658035,-1.4534637 30.485036,0.36953643 34.325035,3.0715363 Z"
       id="path2-4-4"
       sodipodi:nodetypes="ccccccc" /><path
       style="display:inline;mix-blend-mode:normal;fill:#0000ff;fill-opacity:1;stroke-width:1.32734"
       d="m 0.64214108,6.0664416 -0.640704,2.7631805 52.55122492,0.0031 -10.3586,-7.2880005 -2.173,1.823 3.84,2.702 z"
       id="path2-6"
       sodipodi:nodetypes="ccccccc" /></g></svg>
