<svg width="50" height="45" viewBox="0 0 50 45" fill="none" xmlns="http://www.w3.org/2000/svg">
<path d="M35.955 31.824C36.184 31.5327 37.033 31.7931 36.8656 32.3219C36.3742 33.8586 35.0057 35.6034 33.293 35.4517C29.6132 35.1242 31.2482 26.528 32.1307 24.5269C32.274 24.2022 34.6682 24.2089 34.2611 25.7295C33.9652 26.8676 31.8776 33.8237 33.9023 34.0693C34.8677 34.1874 35.552 32.338 35.955 31.8267V31.824Z" fill="#000E55"/>
<path d="M37.722 33.4186C37.5346 33.8749 38.3956 35.6599 39.4334 35.7981C41.1755 36.0303 42.2588 32.6133 42.9163 31.9315C43.2885 31.5463 43.958 32.1113 43.8616 32.4563C43.2885 34.4882 41.1996 37.3496 38.8067 36.9939C36.0656 36.5873 35.1376 33.2387 35.3131 30.8618C35.5193 28.0555 36.466 22.6884 40.3078 22.6334C41.9709 22.6092 42.6043 24.2412 42.3927 25.6263C41.9187 28.7292 38.3152 31.9745 37.722 33.4172V33.4186ZM37.6109 32.0187C37.7783 32.0818 40.0935 27.6448 40.368 25.1968C40.443 24.5284 40.2421 24.1392 40.0025 24.1822C38.2844 24.4909 37.7876 29.4875 37.6444 31.192C37.6189 31.494 37.6109 32.0187 37.6109 32.0187Z" fill="#000E55"/>
<path d="M26.7434 29.0216C25.8034 31.3099 24.6906 34.9658 23.6234 38.164C22.2441 38.8069 21.6589 38.3707 21.6322 37.6379C21.5853 35.712 21.9656 30.518 22.3325 26.6232L23.2846 26.1011C24.1844 25.6113 24.8981 25.8998 24.8151 26.587C24.5446 28.733 23.8068 32.0641 23.5832 34.7779C24.9624 30.5449 25.8047 28.4834 26.9523 25.9844C27.3285 25.1617 28.4239 24.9255 29.4938 26.0797C28.2096 33.5673 28.9301 35.5415 29.6853 35.5013C30.3803 35.4637 30.8824 35.0114 31.5653 33.0989C31.9577 32.7634 32.6379 32.8922 32.5214 33.3928C32.101 35.1174 30.7552 36.7092 29.1671 36.8541C27.0714 37.0447 26.2198 33.8317 26.7407 29.0242L26.7434 29.0216Z" fill="#000E55"/>
<path d="M14.2462 28.1775C14.0373 27.7346 13.5338 27.5159 13.0691 27.6662C12.5563 27.8313 12.0555 28.0339 11.5721 28.2715C10.3589 28.8781 9.2836 29.7625 8.37571 30.7839C7.55353 31.6965 6.8706 32.7246 6.34837 33.8372C6.20643 34.1418 6.44612 34.4975 6.77151 34.4653C7.01388 34.4425 7.11297 34.2318 7.23483 34.0479C7.38748 33.8184 7.54817 33.5943 7.72225 33.3782C8.13468 32.8534 8.58862 32.3622 9.0814 31.9113C9.98795 31.0805 11.0498 30.3719 12.2041 29.9692C11.5828 37.2784 9.91296 41.6805 8.60335 41.918C7.275 42.1583 5.01734 39.9988 4.02911 33.7969C2.31645 23.0695 5.36951 17.7399 8.67165 17.1414C10.5691 16.7978 11.8077 19.4229 10.3548 24.7417C10.229 25.1658 10.5222 26.0369 11.9269 25.7819C14.7738 25.2665 16.2106 13.727 9.15237 15.0061C1.93348 16.3146 -0.989696 28.0822 0.293127 36.1188C1.43267 43.2574 5.15125 45.2733 6.8224 44.9713C9.02382 44.5714 11.4167 42.6938 13.0263 36.6221C13.8525 34.0237 14.3386 28.7224 14.3386 28.7224C14.3587 28.5359 14.3265 28.348 14.2462 28.1775Z" fill="#000E55"/>
<path d="M22.3269 35.3041H21.6922C21.5194 39.0728 19.0113 38.8688 18.1035 38.6138C17.1956 38.3588 16.4765 37.371 16.6452 36.9683C17.1969 35.6276 20.6396 32.6119 21.0789 29.7277C21.2757 28.4406 20.5941 26.924 19.0488 26.9455C15.4762 26.9965 14.5991 31.9851 14.4063 34.5928C14.247 36.7536 15.0718 39.2405 17.4942 39.7237C17.4942 39.7237 19.8027 40.2592 21.186 38.8795C21.186 38.8795 22.5733 37.6179 22.3282 35.3055L22.3269 35.3041ZM16.5421 35.6692C16.5421 35.6692 16.5501 35.1793 16.5729 34.9002C16.7068 33.3165 17.1688 28.6728 18.7663 28.3869C18.9913 28.3466 19.2671 28.7077 19.1988 29.3291C18.9417 31.6053 16.6974 35.7255 16.5421 35.6692Z" fill="#000E55"/>
<path d="M37.9586 7.85117C36.8565 7.53712 31.7828 6.48357 30.2657 11.8708C28.7485 17.258 33.6388 18.6873 32.7094 22.0171C32.7094 22.0171 32.2635 23.1633 33.4767 23.4907C34.6913 23.8182 34.8975 22.6465 34.8975 22.6465C35.8415 19.3208 40.851 20.7085 42.3882 15.3294C43.9254 9.95023 39.0593 8.16523 37.9586 7.85117ZM38.7339 18.6095L38.5344 18.5504C37.9104 18.3652 37.4069 17.87 37.0989 17.1452C36.6356 17.4593 36.1495 17.6257 35.6849 17.6244C35.4974 17.6244 35.3126 17.5975 35.1332 17.5439C34.5092 17.36 34.0057 16.8634 33.6977 16.1373C33.233 16.4514 32.7483 16.6178 32.2809 16.6178C32.0948 16.6178 31.91 16.5896 31.7319 16.5373L31.5324 16.4782L31.7828 15.6233L31.9823 15.6823C32.0788 15.7105 32.1778 15.724 32.2769 15.7253C32.7255 15.7253 33.1446 15.4636 33.4339 15.2233C33.316 14.5322 33.3455 13.7913 33.5156 13.2183C33.7178 12.5311 34.1115 12.1379 34.5975 12.1379C34.6872 12.1379 34.777 12.1513 34.864 12.1781C35.4559 12.3539 35.6741 12.97 35.4331 13.7873C35.2644 14.3617 34.8854 15.0006 34.4154 15.5132C34.6029 16.1467 34.947 16.5641 35.3836 16.693C35.4813 16.7225 35.5831 16.7372 35.6849 16.7372C36.1308 16.7372 36.5459 16.4742 36.8351 16.2353C36.6356 15.0771 36.8539 13.9041 37.3654 13.4182C37.5354 13.2491 37.7644 13.1525 38.0041 13.1512C38.0925 13.1512 38.1809 13.1646 38.2652 13.1901C38.5853 13.2827 38.829 13.5444 38.8973 13.8718C39.062 14.559 38.6094 15.6622 37.8153 16.5252C37.9412 16.9278 38.217 17.5371 38.7848 17.7049L38.9843 17.764L38.7339 18.6135V18.6095ZM38.1835 14.0356C38.1768 13.9645 38.1273 13.9054 38.0577 13.888C38.0429 13.8839 38.0282 13.8812 38.0135 13.8799H38.0028C37.9519 13.8826 37.905 13.9054 37.8715 13.943C37.6305 14.1711 37.4404 14.8945 37.5113 15.7387C38.0296 15.0703 38.2599 14.359 38.1822 14.0369L38.1835 14.0356ZM34.6565 12.8801C34.6444 12.876 34.6323 12.8747 34.6203 12.8733H34.6096C34.4409 12.8733 34.2962 13.1579 34.2199 13.4222C34.1155 13.7766 34.078 14.2557 34.1155 14.7268C34.3873 14.3818 34.5962 13.9913 34.7288 13.5726C34.7582 13.4692 34.8975 12.9512 34.6565 12.8787V12.8801Z" fill="#00B0EE"/>
<path d="M38.3264 6.17235L38.3384 1.41324C38.3397 0.630793 38.9745 -0.00133998 39.7538 2.13316e-06C40.5345 0.00134424 41.1652 0.637504 41.1638 1.41861C41.1638 1.66556 41.0982 1.90848 40.975 2.12321L38.6009 6.24483C38.5594 6.31462 38.4696 6.33878 38.4 6.29717C38.3545 6.27033 38.3277 6.22201 38.3277 6.17101L38.3264 6.17235Z" fill="#00B0EE"/>
<path d="M43.6038 10.263L46.9702 6.9091C47.5246 6.3575 48.4191 6.36018 48.9694 6.91447C49.5198 7.4701 49.5171 8.36663 48.9641 8.91824C48.7886 9.09137 48.5717 9.21753 48.3334 9.28195L43.7484 10.5086C43.6707 10.5288 43.5904 10.4831 43.5703 10.4053C43.5556 10.3543 43.5703 10.3006 43.6051 10.263H43.6038Z" fill="#00B0EE"/>
<path d="M43.843 16.7225L48.5913 16.7346C49.372 16.7359 50.0027 17.3721 50 18.1545C49.9987 18.937 49.364 19.5691 48.5833 19.5664C48.3369 19.5664 48.0945 19.5006 47.8816 19.3772L43.768 16.9963C43.6984 16.9547 43.6743 16.8661 43.7145 16.7963C43.7412 16.7507 43.7894 16.7225 43.8417 16.7225H43.843Z" fill="#00B0EE"/>
<path d="M31.7904 6.86348L30.7151 2.22649C30.537 1.46552 29.7778 0.991759 29.0185 1.17026C28.2593 1.34876 27.7866 2.10973 27.9647 2.87071C28.0209 3.1096 28.1374 3.33105 28.3048 3.51089L31.5413 6.99501C31.5962 7.05406 31.6886 7.05808 31.7489 7.00306C31.7877 6.96682 31.8038 6.91314 31.7917 6.86214L31.7904 6.86348Z" fill="#00B0EE"/>
<path d="M28.1591 12.205L24.1258 9.68852C23.4643 9.27515 22.5926 9.47647 22.1802 10.1408C21.7677 10.8038 21.9686 11.6775 22.6314 12.0909C22.8417 12.2224 23.0827 12.2962 23.3304 12.3043L28.0747 12.4774C28.1564 12.4801 28.2234 12.4157 28.226 12.3338C28.2274 12.2815 28.2019 12.2318 28.1564 12.2036H28.1591V12.205Z" fill="#00B0EE"/>
</svg>
